M48
;DRILL file {KiCad (5.0.2)-1} date 25.02.2020 13:05:03
;FORMAT={-:-/ absolute / inch / decimal}
FMAT,2
INCH,TZ
T1C0.0197
T2C0.0236
T3C0.0315
T4C0.0354
T5C0.0394
T6C0.0433
T7C0.0591
T8C0.1260
%
G90
G05
T1
X6.8555Y-3.9
X6.8832Y-3.8332
X6.8832Y-3.9668
X6.95Y-3.8055
X6.95Y-3.9945
X7.0168Y-3.8332
X7.0168Y-3.9668
X7.0445Y-3.9
X4.9555Y-3.9
X4.9832Y-3.8332
X4.9832Y-3.9668
X5.05Y-3.8055
X5.05Y-3.9945
X5.1168Y-3.8332
X5.1168Y-3.9668
X5.1445Y-3.9
X6.8555Y-2.2
X6.8832Y-2.1332
X6.8832Y-2.2668
X6.95Y-2.1055
X6.95Y-2.2945
X7.0168Y-2.1332
X7.0168Y-2.2668
X7.0445Y-2.2
X4.9555Y-2.2
X4.9832Y-2.1332
X4.9832Y-2.2668
X5.05Y-2.1055
X5.05Y-2.2945
X5.1168Y-2.1332
X5.1168Y-2.2668
X5.1445Y-2.2
T2
X5.9075Y-3.2434
X5.9075Y-3.3025
T3
X5.705Y-3.035
X5.705Y-3.135
X5.9984Y-3.4591
X5.9984Y-3.5378
X5.9984Y-3.6165
X5.9984Y-3.6953
X5.9984Y-3.774
X5.9984Y-3.8528
X5.9984Y-3.9315
X5.9984Y-4.0102
T4
X5.92Y-3.0225
X5.92Y-3.1225
T5
X5.2457Y-2.6963
X5.2457Y-2.8931
X5.2457Y-3.09
X5.4425Y-2.6963
X5.4425Y-2.8931
X5.4425Y-3.09
X5.8Y-3.45
X5.8Y-3.55
X5.8Y-3.65
X5.8Y-3.75
X5.8Y-3.85
X5.8Y-3.95
X6.1Y-2.15
X6.1Y-2.25
X6.1Y-2.35
X6.1Y-2.45
X6.1Y-2.55
X6.1Y-2.65
X6.1Y-2.75
X6.1Y-2.85
X6.1Y-2.95
X6.1Y-3.05
X6.1Y-3.15
X6.1Y-3.25
X6.5Y-3.25
X6.6Y-2.5
X6.6Y-2.6
X6.6Y-2.9
X6.6Y-3.
X6.6Y-3.25
X6.7Y-2.15
X6.7Y-2.25
X6.7Y-2.35
X6.7Y-2.45
X6.7Y-2.55
X6.7Y-2.65
X6.7Y-2.75
X6.7Y-2.85
X6.7Y-2.95
X6.7Y-3.05
X6.7Y-3.15
X6.7Y-3.25
X5.5981Y-2.1656
X5.5981Y-2.3625
X5.795Y-2.1656
X5.795Y-2.3625
X5.6175Y-3.365
X5.6175Y-3.465
X5.6175Y-3.565
X5.6175Y-3.665
T6
X5.6991Y-2.7203
X5.6991Y-2.8975
X5.955Y-2.7203
X5.955Y-2.8975
T7
X6.708Y-3.7725
T8
X6.95Y-3.9
X5.05Y-3.9
X6.95Y-2.2
X5.05Y-2.2
T0
M30
