G04 #@! TF.GenerationSoftware,KiCad,Pcbnew,(5.0.2)-1*
G04 #@! TF.CreationDate,2020-02-25T13:04:59+01:00*
G04 #@! TF.ProjectId,HB-UNI-Sen-Lev-Vo,48422d55-4e49-42d5-9365-6e2d4c65762d,V1.0.3*
G04 #@! TF.SameCoordinates,Original*
G04 #@! TF.FileFunction,Legend,Top*
G04 #@! TF.FilePolarity,Positive*
%FSLAX46Y46*%
G04 Gerber Fmt 4.6, Leading zero omitted, Abs format (unit mm)*
G04 Created by KiCad (PCBNEW (5.0.2)-1) date 25.02.2020 13:04:59*
%MOMM*%
%LPD*%
G01*
G04 APERTURE LIST*
%ADD10C,0.250000*%
%ADD11C,0.300000*%
%ADD12C,0.120000*%
%ADD13C,0.150000*%
G04 APERTURE END LIST*
D10*
X126690380Y-75874380D02*
X125690380Y-75874380D01*
X125690380Y-75636285D01*
X125738000Y-75493428D01*
X125833238Y-75398190D01*
X125928476Y-75350571D01*
X126118952Y-75302952D01*
X126261809Y-75302952D01*
X126452285Y-75350571D01*
X126547523Y-75398190D01*
X126642761Y-75493428D01*
X126690380Y-75636285D01*
X126690380Y-75874380D01*
X126690380Y-74445809D02*
X126166571Y-74445809D01*
X126071333Y-74493428D01*
X126023714Y-74588666D01*
X126023714Y-74779142D01*
X126071333Y-74874380D01*
X126642761Y-74445809D02*
X126690380Y-74541047D01*
X126690380Y-74779142D01*
X126642761Y-74874380D01*
X126547523Y-74922000D01*
X126452285Y-74922000D01*
X126357047Y-74874380D01*
X126309428Y-74779142D01*
X126309428Y-74541047D01*
X126261809Y-74445809D01*
X126023714Y-74112476D02*
X126023714Y-73731523D01*
X125690380Y-73969619D02*
X126547523Y-73969619D01*
X126642761Y-73922000D01*
X126690380Y-73826761D01*
X126690380Y-73731523D01*
X126690380Y-72969619D02*
X126166571Y-72969619D01*
X126071333Y-73017238D01*
X126023714Y-73112476D01*
X126023714Y-73302952D01*
X126071333Y-73398190D01*
X126642761Y-72969619D02*
X126690380Y-73064857D01*
X126690380Y-73302952D01*
X126642761Y-73398190D01*
X126547523Y-73445809D01*
X126452285Y-73445809D01*
X126357047Y-73398190D01*
X126309428Y-73302952D01*
X126309428Y-73064857D01*
X126261809Y-72969619D01*
D11*
X125857071Y-78529642D02*
X126999928Y-78529642D01*
X126428500Y-79101071D02*
X126428500Y-77958214D01*
X135235142Y-55181428D02*
X135235142Y-54038571D01*
X134683571Y-59924142D02*
X135826428Y-59924142D01*
X135255000Y-60495571D02*
X135255000Y-59352714D01*
D12*
G04 #@! TO.C,C1*
X152170000Y-83133500D02*
G75*
G03X152170000Y-83133500I-2120000J0D01*
G01*
X150890000Y-83133500D02*
X152130000Y-83133500D01*
X147970000Y-83133500D02*
X149210000Y-83133500D01*
X150890000Y-83093500D02*
X152130000Y-83093500D01*
X147970000Y-83093500D02*
X149210000Y-83093500D01*
X150890000Y-83053500D02*
X152129000Y-83053500D01*
X147971000Y-83053500D02*
X149210000Y-83053500D01*
X147973000Y-83013500D02*
X149210000Y-83013500D01*
X150890000Y-83013500D02*
X152127000Y-83013500D01*
X147976000Y-82973500D02*
X149210000Y-82973500D01*
X150890000Y-82973500D02*
X152124000Y-82973500D01*
X147979000Y-82933500D02*
X149210000Y-82933500D01*
X150890000Y-82933500D02*
X152121000Y-82933500D01*
X147983000Y-82893500D02*
X149210000Y-82893500D01*
X150890000Y-82893500D02*
X152117000Y-82893500D01*
X147988000Y-82853500D02*
X149210000Y-82853500D01*
X150890000Y-82853500D02*
X152112000Y-82853500D01*
X147994000Y-82813500D02*
X149210000Y-82813500D01*
X150890000Y-82813500D02*
X152106000Y-82813500D01*
X148000000Y-82773500D02*
X149210000Y-82773500D01*
X150890000Y-82773500D02*
X152100000Y-82773500D01*
X148008000Y-82733500D02*
X149210000Y-82733500D01*
X150890000Y-82733500D02*
X152092000Y-82733500D01*
X148016000Y-82693500D02*
X149210000Y-82693500D01*
X150890000Y-82693500D02*
X152084000Y-82693500D01*
X148025000Y-82653500D02*
X149210000Y-82653500D01*
X150890000Y-82653500D02*
X152075000Y-82653500D01*
X148034000Y-82613500D02*
X149210000Y-82613500D01*
X150890000Y-82613500D02*
X152066000Y-82613500D01*
X148045000Y-82573500D02*
X149210000Y-82573500D01*
X150890000Y-82573500D02*
X152055000Y-82573500D01*
X148056000Y-82533500D02*
X149210000Y-82533500D01*
X150890000Y-82533500D02*
X152044000Y-82533500D01*
X148068000Y-82493500D02*
X149210000Y-82493500D01*
X150890000Y-82493500D02*
X152032000Y-82493500D01*
X148082000Y-82453500D02*
X149210000Y-82453500D01*
X150890000Y-82453500D02*
X152018000Y-82453500D01*
X148096000Y-82412500D02*
X149210000Y-82412500D01*
X150890000Y-82412500D02*
X152004000Y-82412500D01*
X148110000Y-82372500D02*
X149210000Y-82372500D01*
X150890000Y-82372500D02*
X151990000Y-82372500D01*
X148126000Y-82332500D02*
X149210000Y-82332500D01*
X150890000Y-82332500D02*
X151974000Y-82332500D01*
X148143000Y-82292500D02*
X149210000Y-82292500D01*
X150890000Y-82292500D02*
X151957000Y-82292500D01*
X148161000Y-82252500D02*
X149210000Y-82252500D01*
X150890000Y-82252500D02*
X151939000Y-82252500D01*
X148180000Y-82212500D02*
X149210000Y-82212500D01*
X150890000Y-82212500D02*
X151920000Y-82212500D01*
X148199000Y-82172500D02*
X149210000Y-82172500D01*
X150890000Y-82172500D02*
X151901000Y-82172500D01*
X148220000Y-82132500D02*
X149210000Y-82132500D01*
X150890000Y-82132500D02*
X151880000Y-82132500D01*
X148242000Y-82092500D02*
X149210000Y-82092500D01*
X150890000Y-82092500D02*
X151858000Y-82092500D01*
X148265000Y-82052500D02*
X149210000Y-82052500D01*
X150890000Y-82052500D02*
X151835000Y-82052500D01*
X148290000Y-82012500D02*
X149210000Y-82012500D01*
X150890000Y-82012500D02*
X151810000Y-82012500D01*
X148315000Y-81972500D02*
X149210000Y-81972500D01*
X150890000Y-81972500D02*
X151785000Y-81972500D01*
X148342000Y-81932500D02*
X149210000Y-81932500D01*
X150890000Y-81932500D02*
X151758000Y-81932500D01*
X148370000Y-81892500D02*
X149210000Y-81892500D01*
X150890000Y-81892500D02*
X151730000Y-81892500D01*
X148400000Y-81852500D02*
X149210000Y-81852500D01*
X150890000Y-81852500D02*
X151700000Y-81852500D01*
X148431000Y-81812500D02*
X149210000Y-81812500D01*
X150890000Y-81812500D02*
X151669000Y-81812500D01*
X148463000Y-81772500D02*
X149210000Y-81772500D01*
X150890000Y-81772500D02*
X151637000Y-81772500D01*
X148498000Y-81732500D02*
X149210000Y-81732500D01*
X150890000Y-81732500D02*
X151602000Y-81732500D01*
X148534000Y-81692500D02*
X149210000Y-81692500D01*
X150890000Y-81692500D02*
X151566000Y-81692500D01*
X148572000Y-81652500D02*
X149210000Y-81652500D01*
X150890000Y-81652500D02*
X151528000Y-81652500D01*
X148612000Y-81612500D02*
X149210000Y-81612500D01*
X150890000Y-81612500D02*
X151488000Y-81612500D01*
X148654000Y-81572500D02*
X149210000Y-81572500D01*
X150890000Y-81572500D02*
X151446000Y-81572500D01*
X148699000Y-81532500D02*
X151401000Y-81532500D01*
X148746000Y-81492500D02*
X151354000Y-81492500D01*
X148796000Y-81452500D02*
X151304000Y-81452500D01*
X148850000Y-81412500D02*
X151250000Y-81412500D01*
X148908000Y-81372500D02*
X151192000Y-81372500D01*
X148970000Y-81332500D02*
X151130000Y-81332500D01*
X149037000Y-81292500D02*
X151063000Y-81292500D01*
X149110000Y-81252500D02*
X150990000Y-81252500D01*
X149191000Y-81212500D02*
X150909000Y-81212500D01*
X149282000Y-81172500D02*
X150818000Y-81172500D01*
X149386000Y-81132500D02*
X150714000Y-81132500D01*
X149513000Y-81092500D02*
X150587000Y-81092500D01*
X149680000Y-81052500D02*
X150420000Y-81052500D01*
X148855000Y-85403301D02*
X148855000Y-85003301D01*
X148655000Y-85203301D02*
X149055000Y-85203301D01*
G04 #@! TO.C,D1*
X151446608Y-79713835D02*
G75*
G03X151603516Y-76481500I-1078608J1672335D01*
G01*
X149289392Y-79713835D02*
G75*
G02X149132484Y-76481500I1078608J1672335D01*
G01*
X151447837Y-79082630D02*
G75*
G03X151448000Y-77000539I-1079837J1041130D01*
G01*
X149288163Y-79082630D02*
G75*
G02X149288000Y-77000539I1079837J1041130D01*
G01*
X151604000Y-76481500D02*
X151448000Y-76481500D01*
X149288000Y-76481500D02*
X149132000Y-76481500D01*
G04 #@! TO.C,J8*
X145990000Y-101660000D02*
X148650000Y-101660000D01*
X145990000Y-88900000D02*
X145990000Y-101660000D01*
X148650000Y-88900000D02*
X148650000Y-101660000D01*
X145990000Y-88900000D02*
X148650000Y-88900000D01*
X145990000Y-87630000D02*
X145990000Y-86300000D01*
X145990000Y-86300000D02*
X147320000Y-86300000D01*
G04 #@! TO.C,R1*
X146277000Y-77089000D02*
G75*
G03X146277000Y-77089000I-1370000J0D01*
G01*
X144907000Y-78459000D02*
X144907000Y-78529000D01*
G04 #@! TO.C,SW1*
X150257000Y-68096500D02*
X145757000Y-68096500D01*
X151507000Y-72096500D02*
X151507000Y-70596500D01*
X145757000Y-74596500D02*
X150257000Y-74596500D01*
X144507000Y-70596500D02*
X144507000Y-72096500D01*
D13*
G04 #@! TO.C,U1*
X169545000Y-52070000D02*
G75*
G03X169545000Y-52070000I-635000J0D01*
G01*
X167005000Y-52070000D02*
G75*
G03X167005000Y-52070000I-635000J0D01*
G01*
X164465000Y-52070000D02*
G75*
G03X164465000Y-52070000I-635000J0D01*
G01*
X161925000Y-52070000D02*
G75*
G03X161925000Y-52070000I-635000J0D01*
G01*
X159385000Y-52070000D02*
G75*
G03X159385000Y-52070000I-635000J0D01*
G01*
X156845000Y-52070000D02*
G75*
G03X156845000Y-52070000I-635000J0D01*
G01*
X160020000Y-81280000D02*
X165100000Y-81280000D01*
X165100000Y-81280000D02*
X165100000Y-78740000D01*
X165100000Y-78740000D02*
X160020000Y-78740000D01*
X160020000Y-78740000D02*
X160020000Y-81280000D01*
X167640000Y-68580000D02*
X162560000Y-63500000D01*
X162560000Y-63500000D02*
X157480000Y-68580000D01*
X157480000Y-68580000D02*
X162560000Y-73660000D01*
X162560000Y-73660000D02*
X167640000Y-68580000D01*
X171450000Y-83820000D02*
X171450000Y-50800000D01*
X171450000Y-50800000D02*
X153670000Y-50800000D01*
X153670000Y-50800000D02*
X153670000Y-83820000D01*
X153670000Y-83820000D02*
X171450000Y-83820000D01*
G04 #@! TO.C,U2*
X151360000Y-103360000D02*
X151360000Y-102860000D01*
X151360000Y-86360000D02*
X151360000Y-86860000D01*
X170860000Y-98360000D02*
G75*
G03X170860000Y-98360000I-500000J0D01*
G01*
X170860000Y-93360000D02*
G75*
G03X170860000Y-93360000I-500000J0D01*
G01*
X170860000Y-95860000D02*
G75*
G03X170860000Y-95860000I-500000J0D01*
G01*
X151360000Y-86360000D02*
X171360000Y-86360000D01*
X171360000Y-86360000D02*
X171360000Y-103360000D01*
X171360000Y-103360000D02*
X151360000Y-103360000D01*
D12*
G04 #@! TO.C,Antenne*
X168683000Y-97521500D02*
X168683000Y-94121500D01*
X172083000Y-97521500D02*
X168683000Y-97521500D01*
X172083000Y-94121500D02*
X172083000Y-97521500D01*
X168683000Y-94121500D02*
X172083000Y-94121500D01*
G04 #@! TO.C,J2*
X144014000Y-84141000D02*
X141354000Y-84141000D01*
X144014000Y-91821000D02*
X144014000Y-84141000D01*
X141354000Y-91821000D02*
X141354000Y-84141000D01*
X144014000Y-91821000D02*
X141354000Y-91821000D01*
X144014000Y-93091000D02*
X144014000Y-94421000D01*
X144014000Y-94421000D02*
X142684000Y-94421000D01*
G04 #@! TO.C,J1*
X150193000Y-63567500D02*
X150193000Y-51947500D01*
X144493000Y-63567500D02*
X144493000Y-51947500D01*
X141693000Y-63567500D02*
X141693000Y-60997500D01*
X141693000Y-59017500D02*
X141693000Y-55997500D01*
X141693000Y-54017500D02*
X141693000Y-51947500D01*
X137133000Y-63567500D02*
X137133000Y-51947500D01*
X151253000Y-63567500D02*
X151253000Y-51947500D01*
X137133000Y-63567500D02*
X151253000Y-63567500D01*
X137133000Y-51947500D02*
X151253000Y-51947500D01*
X146593000Y-61507500D02*
X146593000Y-60997500D01*
X146593000Y-59017500D02*
X146593000Y-57507500D01*
X149893000Y-61507500D02*
X149893000Y-57507500D01*
X146593000Y-61507500D02*
X149893000Y-61507500D01*
X146593000Y-57507500D02*
X149893000Y-57507500D01*
X137193000Y-62007500D02*
X137193000Y-57007500D01*
X151193000Y-62007500D02*
X151193000Y-57007500D01*
X137193000Y-62007500D02*
X151193000Y-62007500D01*
X137193000Y-57007500D02*
X151193000Y-57007500D01*
X144493000Y-61507500D02*
X144493000Y-57507500D01*
X145492000Y-61507500D02*
X145492000Y-60997500D01*
X145492000Y-59017500D02*
X145492000Y-57507500D01*
X144493000Y-61507500D02*
X145492000Y-61507500D01*
X144493000Y-57507500D02*
X145492000Y-57507500D01*
X137543000Y-60007500D02*
X137543000Y-59007500D01*
X140043000Y-60007500D02*
X140043000Y-59007500D01*
X137543000Y-60007500D02*
X140043000Y-60007500D01*
X137543000Y-59007500D02*
X140043000Y-59007500D01*
X146593000Y-56507500D02*
X146593000Y-55997500D01*
X146593000Y-54017500D02*
X146593000Y-52507500D01*
X149893000Y-56507500D02*
X149893000Y-52507500D01*
X146593000Y-56507500D02*
X149893000Y-56507500D01*
X146593000Y-52507500D02*
X149893000Y-52507500D01*
X137193000Y-57007500D02*
X137193000Y-52007500D01*
X151193000Y-57007500D02*
X151193000Y-52007500D01*
X137193000Y-57007500D02*
X151193000Y-57007500D01*
X137193000Y-52007500D02*
X151193000Y-52007500D01*
X144493000Y-56507500D02*
X144493000Y-52507500D01*
X145492000Y-56507500D02*
X145492000Y-55997500D01*
X145492000Y-54017500D02*
X145492000Y-52507500D01*
X144493000Y-56507500D02*
X145492000Y-56507500D01*
X144493000Y-52507500D02*
X145492000Y-52507500D01*
X137543000Y-55007500D02*
X137543000Y-54007500D01*
X140043000Y-55007500D02*
X140043000Y-54007500D01*
X137543000Y-55007500D02*
X140043000Y-55007500D01*
X137543000Y-54007500D02*
X140043000Y-54007500D01*
X150253000Y-63807500D02*
X151493000Y-63807500D01*
X151493000Y-63807500D02*
X151493000Y-62807500D01*
G04 #@! TO.C,J6*
X141240000Y-82046000D02*
X141240000Y-65426000D01*
X135540000Y-82046000D02*
X135540000Y-65426000D01*
X132740000Y-82046000D02*
X132740000Y-79476000D01*
X132740000Y-77496000D02*
X132740000Y-74476000D01*
X132740000Y-72496000D02*
X132740000Y-69476000D01*
X132740000Y-67496000D02*
X132740000Y-65426000D01*
X128180000Y-82046000D02*
X128180000Y-65426000D01*
X142300000Y-82046000D02*
X142300000Y-65426000D01*
X128180000Y-82046000D02*
X142300000Y-82046000D01*
X128180000Y-65426000D02*
X142300000Y-65426000D01*
X137640000Y-79986000D02*
X137640000Y-79476000D01*
X137640000Y-77496000D02*
X137640000Y-75986000D01*
X140940000Y-79986000D02*
X140940000Y-75986000D01*
X137640000Y-79986000D02*
X140940000Y-79986000D01*
X137640000Y-75986000D02*
X140940000Y-75986000D01*
X128240000Y-80486000D02*
X128240000Y-75486000D01*
X142240000Y-80486000D02*
X142240000Y-75486000D01*
X128240000Y-80486000D02*
X142240000Y-80486000D01*
X128240000Y-75486000D02*
X142240000Y-75486000D01*
X135540000Y-79986000D02*
X135540000Y-75986000D01*
X136539000Y-79986000D02*
X136539000Y-79476000D01*
X136539000Y-77496000D02*
X136539000Y-75986000D01*
X135540000Y-79986000D02*
X136539000Y-79986000D01*
X135540000Y-75986000D02*
X136539000Y-75986000D01*
X128590000Y-78486000D02*
X128590000Y-77486000D01*
X131090000Y-78486000D02*
X131090000Y-77486000D01*
X128590000Y-78486000D02*
X131090000Y-78486000D01*
X128590000Y-77486000D02*
X131090000Y-77486000D01*
X137640000Y-74986000D02*
X137640000Y-74476000D01*
X137640000Y-72496000D02*
X137640000Y-70986000D01*
X140940000Y-74986000D02*
X140940000Y-70986000D01*
X137640000Y-74986000D02*
X140940000Y-74986000D01*
X137640000Y-70986000D02*
X140940000Y-70986000D01*
X128240000Y-75486000D02*
X128240000Y-70486000D01*
X142240000Y-75486000D02*
X142240000Y-70486000D01*
X128240000Y-75486000D02*
X142240000Y-75486000D01*
X128240000Y-70486000D02*
X142240000Y-70486000D01*
X135540000Y-74986000D02*
X135540000Y-70986000D01*
X136539000Y-74986000D02*
X136539000Y-74476000D01*
X136539000Y-72496000D02*
X136539000Y-70986000D01*
X135540000Y-74986000D02*
X136539000Y-74986000D01*
X135540000Y-70986000D02*
X136539000Y-70986000D01*
X128590000Y-73486000D02*
X128590000Y-72486000D01*
X131090000Y-73486000D02*
X131090000Y-72486000D01*
X128590000Y-73486000D02*
X131090000Y-73486000D01*
X128590000Y-72486000D02*
X131090000Y-72486000D01*
X137640000Y-69986000D02*
X137640000Y-69476000D01*
X137640000Y-67496000D02*
X137640000Y-65986000D01*
X140940000Y-69986000D02*
X140940000Y-65986000D01*
X137640000Y-69986000D02*
X140940000Y-69986000D01*
X137640000Y-65986000D02*
X140940000Y-65986000D01*
X128240000Y-70486000D02*
X128240000Y-65486000D01*
X142240000Y-70486000D02*
X142240000Y-65486000D01*
X128240000Y-70486000D02*
X142240000Y-70486000D01*
X128240000Y-65486000D02*
X142240000Y-65486000D01*
X135540000Y-69986000D02*
X135540000Y-65986000D01*
X136539000Y-69986000D02*
X136539000Y-69476000D01*
X136539000Y-67496000D02*
X136539000Y-65986000D01*
X135540000Y-69986000D02*
X136539000Y-69986000D01*
X135540000Y-65986000D02*
X136539000Y-65986000D01*
X128590000Y-68486000D02*
X128590000Y-67486000D01*
X131090000Y-68486000D02*
X131090000Y-67486000D01*
X128590000Y-68486000D02*
X131090000Y-68486000D01*
X128590000Y-67486000D02*
X131090000Y-67486000D01*
X141300000Y-82286000D02*
X142540000Y-82286000D01*
X142540000Y-82286000D02*
X142540000Y-81286000D01*
G04 #@! TO.C,C1*
D13*
X147157142Y-83300166D02*
X147204761Y-83347785D01*
X147252380Y-83490642D01*
X147252380Y-83585880D01*
X147204761Y-83728738D01*
X147109523Y-83823976D01*
X147014285Y-83871595D01*
X146823809Y-83919214D01*
X146680952Y-83919214D01*
X146490476Y-83871595D01*
X146395238Y-83823976D01*
X146300000Y-83728738D01*
X146252380Y-83585880D01*
X146252380Y-83490642D01*
X146300000Y-83347785D01*
X146347619Y-83300166D01*
X147252380Y-82347785D02*
X147252380Y-82919214D01*
X147252380Y-82633500D02*
X146252380Y-82633500D01*
X146395238Y-82728738D01*
X146490476Y-82823976D01*
X146538095Y-82919214D01*
X153360380Y-84204928D02*
X153360380Y-84776357D01*
X153360380Y-84490642D02*
X152360380Y-84490642D01*
X152503238Y-84585880D01*
X152598476Y-84681119D01*
X152646095Y-84776357D01*
X152360380Y-83585880D02*
X152360380Y-83490642D01*
X152408000Y-83395404D01*
X152455619Y-83347785D01*
X152550857Y-83300166D01*
X152741333Y-83252547D01*
X152979428Y-83252547D01*
X153169904Y-83300166D01*
X153265142Y-83347785D01*
X153312761Y-83395404D01*
X153360380Y-83490642D01*
X153360380Y-83585880D01*
X153312761Y-83681119D01*
X153265142Y-83728738D01*
X153169904Y-83776357D01*
X152979428Y-83823976D01*
X152741333Y-83823976D01*
X152550857Y-83776357D01*
X152455619Y-83728738D01*
X152408000Y-83681119D01*
X152360380Y-83585880D01*
X152693714Y-82395404D02*
X153360380Y-82395404D01*
X152693714Y-82823976D02*
X153217523Y-82823976D01*
X153312761Y-82776357D01*
X153360380Y-82681119D01*
X153360380Y-82538261D01*
X153312761Y-82443023D01*
X153265142Y-82395404D01*
X152836571Y-81585880D02*
X152836571Y-81919214D01*
X153360380Y-81919214D02*
X152360380Y-81919214D01*
X152360380Y-81443023D01*
G04 #@! TO.C,D1*
X153360380Y-80494095D02*
X152360380Y-80494095D01*
X152360380Y-80256000D01*
X152408000Y-80113142D01*
X152503238Y-80017904D01*
X152598476Y-79970285D01*
X152788952Y-79922666D01*
X152931809Y-79922666D01*
X153122285Y-79970285D01*
X153217523Y-80017904D01*
X153312761Y-80113142D01*
X153360380Y-80256000D01*
X153360380Y-80494095D01*
X153360380Y-78970285D02*
X153360380Y-79541714D01*
X153360380Y-79256000D02*
X152360380Y-79256000D01*
X152503238Y-79351238D01*
X152598476Y-79446476D01*
X152646095Y-79541714D01*
X153487380Y-77350857D02*
X153487380Y-77827047D01*
X152487380Y-77827047D01*
X152963571Y-77017523D02*
X152963571Y-76684190D01*
X153487380Y-76541333D02*
X153487380Y-77017523D01*
X152487380Y-77017523D01*
X152487380Y-76541333D01*
X153487380Y-76112761D02*
X152487380Y-76112761D01*
X152487380Y-75874666D01*
X152535000Y-75731809D01*
X152630238Y-75636571D01*
X152725476Y-75588952D01*
X152915952Y-75541333D01*
X153058809Y-75541333D01*
X153249285Y-75588952D01*
X153344523Y-75636571D01*
X153439761Y-75731809D01*
X153487380Y-75874666D01*
X153487380Y-76112761D01*
G04 #@! TO.C,J8*
X146478666Y-84542380D02*
X146478666Y-85256666D01*
X146431047Y-85399523D01*
X146335809Y-85494761D01*
X146192952Y-85542380D01*
X146097714Y-85542380D01*
X147097714Y-84970952D02*
X147002476Y-84923333D01*
X146954857Y-84875714D01*
X146907238Y-84780476D01*
X146907238Y-84732857D01*
X146954857Y-84637619D01*
X147002476Y-84590000D01*
X147097714Y-84542380D01*
X147288190Y-84542380D01*
X147383428Y-84590000D01*
X147431047Y-84637619D01*
X147478666Y-84732857D01*
X147478666Y-84780476D01*
X147431047Y-84875714D01*
X147383428Y-84923333D01*
X147288190Y-84970952D01*
X147097714Y-84970952D01*
X147002476Y-85018571D01*
X146954857Y-85066190D01*
X146907238Y-85161428D01*
X146907238Y-85351904D01*
X146954857Y-85447142D01*
X147002476Y-85494761D01*
X147097714Y-85542380D01*
X147288190Y-85542380D01*
X147383428Y-85494761D01*
X147431047Y-85447142D01*
X147478666Y-85351904D01*
X147478666Y-85161428D01*
X147431047Y-85066190D01*
X147383428Y-85018571D01*
X147288190Y-84970952D01*
X145534285Y-103449380D02*
X145534285Y-102449380D01*
X145915238Y-102449380D01*
X146010476Y-102497000D01*
X146058095Y-102544619D01*
X146105714Y-102639857D01*
X146105714Y-102782714D01*
X146058095Y-102877952D01*
X146010476Y-102925571D01*
X145915238Y-102973190D01*
X145534285Y-102973190D01*
X147105714Y-103449380D02*
X146772380Y-102973190D01*
X146534285Y-103449380D02*
X146534285Y-102449380D01*
X146915238Y-102449380D01*
X147010476Y-102497000D01*
X147058095Y-102544619D01*
X147105714Y-102639857D01*
X147105714Y-102782714D01*
X147058095Y-102877952D01*
X147010476Y-102925571D01*
X146915238Y-102973190D01*
X146534285Y-102973190D01*
X147724761Y-102449380D02*
X147915238Y-102449380D01*
X148010476Y-102497000D01*
X148105714Y-102592238D01*
X148153333Y-102782714D01*
X148153333Y-103116047D01*
X148105714Y-103306523D01*
X148010476Y-103401761D01*
X147915238Y-103449380D01*
X147724761Y-103449380D01*
X147629523Y-103401761D01*
X147534285Y-103306523D01*
X147486666Y-103116047D01*
X147486666Y-102782714D01*
X147534285Y-102592238D01*
X147629523Y-102497000D01*
X147724761Y-102449380D01*
X149105714Y-102497000D02*
X149010476Y-102449380D01*
X148867619Y-102449380D01*
X148724761Y-102497000D01*
X148629523Y-102592238D01*
X148581904Y-102687476D01*
X148534285Y-102877952D01*
X148534285Y-103020809D01*
X148581904Y-103211285D01*
X148629523Y-103306523D01*
X148724761Y-103401761D01*
X148867619Y-103449380D01*
X148962857Y-103449380D01*
X149105714Y-103401761D01*
X149153333Y-103354142D01*
X149153333Y-103020809D01*
X148962857Y-103020809D01*
G04 #@! TO.C,R1*
X145232380Y-81827666D02*
X144756190Y-82161000D01*
X145232380Y-82399095D02*
X144232380Y-82399095D01*
X144232380Y-82018142D01*
X144280000Y-81922904D01*
X144327619Y-81875285D01*
X144422857Y-81827666D01*
X144565714Y-81827666D01*
X144660952Y-81875285D01*
X144708571Y-81922904D01*
X144756190Y-82018142D01*
X144756190Y-82399095D01*
X145232380Y-80875285D02*
X145232380Y-81446714D01*
X145232380Y-81161000D02*
X144232380Y-81161000D01*
X144375238Y-81256238D01*
X144470476Y-81351476D01*
X144518095Y-81446714D01*
X146645380Y-79390714D02*
X146645380Y-78771666D01*
X147026333Y-79105000D01*
X147026333Y-78962142D01*
X147073952Y-78866904D01*
X147121571Y-78819285D01*
X147216809Y-78771666D01*
X147454904Y-78771666D01*
X147550142Y-78819285D01*
X147597761Y-78866904D01*
X147645380Y-78962142D01*
X147645380Y-79247857D01*
X147597761Y-79343095D01*
X147550142Y-79390714D01*
X146645380Y-78438333D02*
X146645380Y-77819285D01*
X147026333Y-78152619D01*
X147026333Y-78009761D01*
X147073952Y-77914523D01*
X147121571Y-77866904D01*
X147216809Y-77819285D01*
X147454904Y-77819285D01*
X147550142Y-77866904D01*
X147597761Y-77914523D01*
X147645380Y-78009761D01*
X147645380Y-78295476D01*
X147597761Y-78390714D01*
X147550142Y-78438333D01*
X146645380Y-77200238D02*
X146645380Y-77105000D01*
X146693000Y-77009761D01*
X146740619Y-76962142D01*
X146835857Y-76914523D01*
X147026333Y-76866904D01*
X147264428Y-76866904D01*
X147454904Y-76914523D01*
X147550142Y-76962142D01*
X147597761Y-77009761D01*
X147645380Y-77105000D01*
X147645380Y-77200238D01*
X147597761Y-77295476D01*
X147550142Y-77343095D01*
X147454904Y-77390714D01*
X147264428Y-77438333D01*
X147026333Y-77438333D01*
X146835857Y-77390714D01*
X146740619Y-77343095D01*
X146693000Y-77295476D01*
X146645380Y-77200238D01*
G04 #@! TO.C,SW1*
X146685238Y-67253642D02*
X146637619Y-67301261D01*
X146494761Y-67348880D01*
X146399523Y-67348880D01*
X146256666Y-67301261D01*
X146161428Y-67206023D01*
X146113809Y-67110785D01*
X146066190Y-66920309D01*
X146066190Y-66777452D01*
X146113809Y-66586976D01*
X146161428Y-66491738D01*
X146256666Y-66396500D01*
X146399523Y-66348880D01*
X146494761Y-66348880D01*
X146637619Y-66396500D01*
X146685238Y-66444119D01*
X147304285Y-66348880D02*
X147494761Y-66348880D01*
X147590000Y-66396500D01*
X147685238Y-66491738D01*
X147732857Y-66682214D01*
X147732857Y-67015547D01*
X147685238Y-67206023D01*
X147590000Y-67301261D01*
X147494761Y-67348880D01*
X147304285Y-67348880D01*
X147209047Y-67301261D01*
X147113809Y-67206023D01*
X147066190Y-67015547D01*
X147066190Y-66682214D01*
X147113809Y-66491738D01*
X147209047Y-66396500D01*
X147304285Y-66348880D01*
X148161428Y-67348880D02*
X148161428Y-66348880D01*
X148732857Y-67348880D01*
X148732857Y-66348880D01*
X149542380Y-66825071D02*
X149209047Y-66825071D01*
X149209047Y-67348880D02*
X149209047Y-66348880D01*
X149685238Y-66348880D01*
X150066190Y-67348880D02*
X150066190Y-66348880D01*
X151066190Y-66396500D02*
X150970952Y-66348880D01*
X150828095Y-66348880D01*
X150685238Y-66396500D01*
X150590000Y-66491738D01*
X150542380Y-66586976D01*
X150494761Y-66777452D01*
X150494761Y-66920309D01*
X150542380Y-67110785D01*
X150590000Y-67206023D01*
X150685238Y-67301261D01*
X150828095Y-67348880D01*
X150923333Y-67348880D01*
X151066190Y-67301261D01*
X151113809Y-67253642D01*
X151113809Y-66920309D01*
X150923333Y-66920309D01*
X146673666Y-71751261D02*
X146816523Y-71798880D01*
X147054619Y-71798880D01*
X147149857Y-71751261D01*
X147197476Y-71703642D01*
X147245095Y-71608404D01*
X147245095Y-71513166D01*
X147197476Y-71417928D01*
X147149857Y-71370309D01*
X147054619Y-71322690D01*
X146864142Y-71275071D01*
X146768904Y-71227452D01*
X146721285Y-71179833D01*
X146673666Y-71084595D01*
X146673666Y-70989357D01*
X146721285Y-70894119D01*
X146768904Y-70846500D01*
X146864142Y-70798880D01*
X147102238Y-70798880D01*
X147245095Y-70846500D01*
X147578428Y-70798880D02*
X147816523Y-71798880D01*
X148007000Y-71084595D01*
X148197476Y-71798880D01*
X148435571Y-70798880D01*
X149340333Y-71798880D02*
X148768904Y-71798880D01*
X149054619Y-71798880D02*
X149054619Y-70798880D01*
X148959380Y-70941738D01*
X148864142Y-71036976D01*
X148768904Y-71084595D01*
G04 #@! TO.C,U1*
X162726666Y-72667142D02*
X162726666Y-72190952D01*
X163012380Y-72762380D02*
X162012380Y-72429047D01*
X163012380Y-72095714D01*
X163012380Y-71762380D02*
X162345714Y-71762380D01*
X162536190Y-71762380D02*
X162440952Y-71714761D01*
X162393333Y-71667142D01*
X162345714Y-71571904D01*
X162345714Y-71476666D01*
X163012380Y-70714761D02*
X162012380Y-70714761D01*
X162964761Y-70714761D02*
X163012380Y-70810000D01*
X163012380Y-71000476D01*
X162964761Y-71095714D01*
X162917142Y-71143333D01*
X162821904Y-71190952D01*
X162536190Y-71190952D01*
X162440952Y-71143333D01*
X162393333Y-71095714D01*
X162345714Y-71000476D01*
X162345714Y-70810000D01*
X162393333Y-70714761D01*
X162345714Y-69810000D02*
X163012380Y-69810000D01*
X162345714Y-70238571D02*
X162869523Y-70238571D01*
X162964761Y-70190952D01*
X163012380Y-70095714D01*
X163012380Y-69952857D01*
X162964761Y-69857619D01*
X162917142Y-69810000D01*
X163012380Y-69333809D02*
X162345714Y-69333809D01*
X162012380Y-69333809D02*
X162060000Y-69381428D01*
X162107619Y-69333809D01*
X162060000Y-69286190D01*
X162012380Y-69333809D01*
X162107619Y-69333809D01*
X162345714Y-68857619D02*
X163012380Y-68857619D01*
X162440952Y-68857619D02*
X162393333Y-68810000D01*
X162345714Y-68714761D01*
X162345714Y-68571904D01*
X162393333Y-68476666D01*
X162488571Y-68429047D01*
X163012380Y-68429047D01*
X163012380Y-67810000D02*
X162964761Y-67905238D01*
X162917142Y-67952857D01*
X162821904Y-68000476D01*
X162536190Y-68000476D01*
X162440952Y-67952857D01*
X162393333Y-67905238D01*
X162345714Y-67810000D01*
X162345714Y-67667142D01*
X162393333Y-67571904D01*
X162440952Y-67524285D01*
X162536190Y-67476666D01*
X162821904Y-67476666D01*
X162917142Y-67524285D01*
X162964761Y-67571904D01*
X163012380Y-67667142D01*
X163012380Y-67810000D01*
X163012380Y-67048095D02*
X162012380Y-67048095D01*
X162012380Y-66667142D01*
X162060000Y-66571904D01*
X162107619Y-66524285D01*
X162202857Y-66476666D01*
X162345714Y-66476666D01*
X162440952Y-66524285D01*
X162488571Y-66571904D01*
X162536190Y-66667142D01*
X162536190Y-67048095D01*
X163012380Y-66048095D02*
X162345714Y-66048095D01*
X162536190Y-66048095D02*
X162440952Y-66000476D01*
X162393333Y-65952857D01*
X162345714Y-65857619D01*
X162345714Y-65762380D01*
X163012380Y-65286190D02*
X162964761Y-65381428D01*
X162917142Y-65429047D01*
X162821904Y-65476666D01*
X162536190Y-65476666D01*
X162440952Y-65429047D01*
X162393333Y-65381428D01*
X162345714Y-65286190D01*
X162345714Y-65143333D01*
X162393333Y-65048095D01*
X162440952Y-65000476D01*
X162536190Y-64952857D01*
X162821904Y-64952857D01*
X162917142Y-65000476D01*
X162964761Y-65048095D01*
X163012380Y-65143333D01*
X163012380Y-65286190D01*
X163012380Y-64524285D02*
X162012380Y-64524285D01*
X162726666Y-64190952D01*
X162012380Y-63857619D01*
X163012380Y-63857619D01*
X163012380Y-63381428D02*
X162345714Y-63381428D01*
X162012380Y-63381428D02*
X162060000Y-63429047D01*
X162107619Y-63381428D01*
X162060000Y-63333809D01*
X162012380Y-63381428D01*
X162107619Y-63381428D01*
X162345714Y-62905238D02*
X163012380Y-62905238D01*
X162440952Y-62905238D02*
X162393333Y-62857619D01*
X162345714Y-62762380D01*
X162345714Y-62619523D01*
X162393333Y-62524285D01*
X162488571Y-62476666D01*
X163012380Y-62476666D01*
X163012380Y-62000476D02*
X162345714Y-62000476D01*
X162012380Y-62000476D02*
X162060000Y-62048095D01*
X162107619Y-62000476D01*
X162060000Y-61952857D01*
X162012380Y-62000476D01*
X162107619Y-62000476D01*
X163501428Y-55410000D02*
X164101428Y-55210000D01*
X163501428Y-55010000D01*
X164044285Y-54467142D02*
X164072857Y-54495714D01*
X164101428Y-54581428D01*
X164101428Y-54638571D01*
X164072857Y-54724285D01*
X164015714Y-54781428D01*
X163958571Y-54810000D01*
X163844285Y-54838571D01*
X163758571Y-54838571D01*
X163644285Y-54810000D01*
X163587142Y-54781428D01*
X163530000Y-54724285D01*
X163501428Y-54638571D01*
X163501428Y-54581428D01*
X163530000Y-54495714D01*
X163558571Y-54467142D01*
X164044285Y-53867142D02*
X164072857Y-53895714D01*
X164101428Y-53981428D01*
X164101428Y-54038571D01*
X164072857Y-54124285D01*
X164015714Y-54181428D01*
X163958571Y-54210000D01*
X163844285Y-54238571D01*
X163758571Y-54238571D01*
X163644285Y-54210000D01*
X163587142Y-54181428D01*
X163530000Y-54124285D01*
X163501428Y-54038571D01*
X163501428Y-53981428D01*
X163530000Y-53895714D01*
X163558571Y-53867142D01*
X161561428Y-54852857D02*
X161275714Y-55052857D01*
X161561428Y-55195714D02*
X160961428Y-55195714D01*
X160961428Y-54967142D01*
X160990000Y-54910000D01*
X161018571Y-54881428D01*
X161075714Y-54852857D01*
X161161428Y-54852857D01*
X161218571Y-54881428D01*
X161247142Y-54910000D01*
X161275714Y-54967142D01*
X161275714Y-55195714D01*
X160961428Y-54652857D02*
X161561428Y-54252857D01*
X160961428Y-54252857D02*
X161561428Y-54652857D01*
X161561428Y-54024285D02*
X160961428Y-54024285D01*
X158421428Y-55367142D02*
X158421428Y-55024285D01*
X159021428Y-55195714D02*
X158421428Y-55195714D01*
X158421428Y-54881428D02*
X159021428Y-54481428D01*
X158421428Y-54481428D02*
X159021428Y-54881428D01*
X159021428Y-54252857D02*
X158421428Y-54252857D01*
X158421428Y-54110000D01*
X158450000Y-54024285D01*
X158507142Y-53967142D01*
X158564285Y-53938571D01*
X158678571Y-53910000D01*
X158764285Y-53910000D01*
X158878571Y-53938571D01*
X158935714Y-53967142D01*
X158992857Y-54024285D01*
X159021428Y-54110000D01*
X159021428Y-54252857D01*
X157116428Y-55295714D02*
X156516428Y-55295714D01*
X156516428Y-55152857D01*
X156545000Y-55067142D01*
X156602142Y-55010000D01*
X156659285Y-54981428D01*
X156773571Y-54952857D01*
X156859285Y-54952857D01*
X156973571Y-54981428D01*
X157030714Y-55010000D01*
X157087857Y-55067142D01*
X157116428Y-55152857D01*
X157116428Y-55295714D01*
X156516428Y-54781428D02*
X156516428Y-54438571D01*
X157116428Y-54610000D02*
X156516428Y-54610000D01*
X157116428Y-53895714D02*
X156830714Y-54095714D01*
X157116428Y-54238571D02*
X156516428Y-54238571D01*
X156516428Y-54010000D01*
X156545000Y-53952857D01*
X156573571Y-53924285D01*
X156630714Y-53895714D01*
X156716428Y-53895714D01*
X156773571Y-53924285D01*
X156802142Y-53952857D01*
X156830714Y-54010000D01*
X156830714Y-54238571D01*
X167975000Y-55067142D02*
X167946428Y-55124285D01*
X167946428Y-55210000D01*
X167975000Y-55295714D01*
X168032142Y-55352857D01*
X168089285Y-55381428D01*
X168203571Y-55410000D01*
X168289285Y-55410000D01*
X168403571Y-55381428D01*
X168460714Y-55352857D01*
X168517857Y-55295714D01*
X168546428Y-55210000D01*
X168546428Y-55152857D01*
X168517857Y-55067142D01*
X168489285Y-55038571D01*
X168289285Y-55038571D01*
X168289285Y-55152857D01*
X168546428Y-54781428D02*
X167946428Y-54781428D01*
X168546428Y-54438571D01*
X167946428Y-54438571D01*
X168546428Y-54152857D02*
X167946428Y-54152857D01*
X167946428Y-54010000D01*
X167975000Y-53924285D01*
X168032142Y-53867142D01*
X168089285Y-53838571D01*
X168203571Y-53810000D01*
X168289285Y-53810000D01*
X168403571Y-53838571D01*
X168460714Y-53867142D01*
X168517857Y-53924285D01*
X168546428Y-54010000D01*
X168546428Y-54152857D01*
X166070000Y-55067142D02*
X166041428Y-55124285D01*
X166041428Y-55210000D01*
X166070000Y-55295714D01*
X166127142Y-55352857D01*
X166184285Y-55381428D01*
X166298571Y-55410000D01*
X166384285Y-55410000D01*
X166498571Y-55381428D01*
X166555714Y-55352857D01*
X166612857Y-55295714D01*
X166641428Y-55210000D01*
X166641428Y-55152857D01*
X166612857Y-55067142D01*
X166584285Y-55038571D01*
X166384285Y-55038571D01*
X166384285Y-55152857D01*
X166641428Y-54781428D02*
X166041428Y-54781428D01*
X166641428Y-54438571D01*
X166041428Y-54438571D01*
X166641428Y-54152857D02*
X166041428Y-54152857D01*
X166041428Y-54010000D01*
X166070000Y-53924285D01*
X166127142Y-53867142D01*
X166184285Y-53838571D01*
X166298571Y-53810000D01*
X166384285Y-53810000D01*
X166498571Y-53838571D01*
X166555714Y-53867142D01*
X166612857Y-53924285D01*
X166641428Y-54010000D01*
X166641428Y-54152857D01*
G04 #@! TO.C,U2*
X155598095Y-87812380D02*
X155598095Y-88621904D01*
X155645714Y-88717142D01*
X155693333Y-88764761D01*
X155788571Y-88812380D01*
X155979047Y-88812380D01*
X156074285Y-88764761D01*
X156121904Y-88717142D01*
X156169523Y-88621904D01*
X156169523Y-87812380D01*
X156598095Y-87907619D02*
X156645714Y-87860000D01*
X156740952Y-87812380D01*
X156979047Y-87812380D01*
X157074285Y-87860000D01*
X157121904Y-87907619D01*
X157169523Y-88002857D01*
X157169523Y-88098095D01*
X157121904Y-88240952D01*
X156550476Y-88812380D01*
X157169523Y-88812380D01*
X158940761Y-94845142D02*
X158893142Y-94892761D01*
X158750285Y-94940380D01*
X158655047Y-94940380D01*
X158512190Y-94892761D01*
X158416952Y-94797523D01*
X158369333Y-94702285D01*
X158321714Y-94511809D01*
X158321714Y-94368952D01*
X158369333Y-94178476D01*
X158416952Y-94083238D01*
X158512190Y-93988000D01*
X158655047Y-93940380D01*
X158750285Y-93940380D01*
X158893142Y-93988000D01*
X158940761Y-94035619D01*
X159940761Y-94845142D02*
X159893142Y-94892761D01*
X159750285Y-94940380D01*
X159655047Y-94940380D01*
X159512190Y-94892761D01*
X159416952Y-94797523D01*
X159369333Y-94702285D01*
X159321714Y-94511809D01*
X159321714Y-94368952D01*
X159369333Y-94178476D01*
X159416952Y-94083238D01*
X159512190Y-93988000D01*
X159655047Y-93940380D01*
X159750285Y-93940380D01*
X159893142Y-93988000D01*
X159940761Y-94035619D01*
X160893142Y-94940380D02*
X160321714Y-94940380D01*
X160607428Y-94940380D02*
X160607428Y-93940380D01*
X160512190Y-94083238D01*
X160416952Y-94178476D01*
X160321714Y-94226095D01*
X161845523Y-94940380D02*
X161274095Y-94940380D01*
X161559809Y-94940380D02*
X161559809Y-93940380D01*
X161464571Y-94083238D01*
X161369333Y-94178476D01*
X161274095Y-94226095D01*
X162464571Y-93940380D02*
X162559809Y-93940380D01*
X162655047Y-93988000D01*
X162702666Y-94035619D01*
X162750285Y-94130857D01*
X162797904Y-94321333D01*
X162797904Y-94559428D01*
X162750285Y-94749904D01*
X162702666Y-94845142D01*
X162655047Y-94892761D01*
X162559809Y-94940380D01*
X162464571Y-94940380D01*
X162369333Y-94892761D01*
X162321714Y-94845142D01*
X162274095Y-94749904D01*
X162226476Y-94559428D01*
X162226476Y-94321333D01*
X162274095Y-94130857D01*
X162321714Y-94035619D01*
X162369333Y-93988000D01*
X162464571Y-93940380D01*
X163750285Y-94940380D02*
X163178857Y-94940380D01*
X163464571Y-94940380D02*
X163464571Y-93940380D01*
X163369333Y-94083238D01*
X163274095Y-94178476D01*
X163178857Y-94226095D01*
G04 #@! TO.C,Antenne*
X167844566Y-98254795D02*
X167844566Y-97778604D01*
X168130280Y-98350033D02*
X167130280Y-98016700D01*
X168130280Y-97683366D01*
X167463614Y-97350033D02*
X168130280Y-97350033D01*
X167558852Y-97350033D02*
X167511233Y-97302414D01*
X167463614Y-97207176D01*
X167463614Y-97064319D01*
X167511233Y-96969080D01*
X167606471Y-96921461D01*
X168130280Y-96921461D01*
X167463614Y-96588128D02*
X167463614Y-96207176D01*
X167130280Y-96445271D02*
X167987423Y-96445271D01*
X168082661Y-96397652D01*
X168130280Y-96302414D01*
X168130280Y-96207176D01*
X168082661Y-95492890D02*
X168130280Y-95588128D01*
X168130280Y-95778604D01*
X168082661Y-95873842D01*
X167987423Y-95921461D01*
X167606471Y-95921461D01*
X167511233Y-95873842D01*
X167463614Y-95778604D01*
X167463614Y-95588128D01*
X167511233Y-95492890D01*
X167606471Y-95445271D01*
X167701709Y-95445271D01*
X167796947Y-95921461D01*
X167463614Y-95016700D02*
X168130280Y-95016700D01*
X167558852Y-95016700D02*
X167511233Y-94969080D01*
X167463614Y-94873842D01*
X167463614Y-94730985D01*
X167511233Y-94635747D01*
X167606471Y-94588128D01*
X168130280Y-94588128D01*
X167463614Y-94111938D02*
X168130280Y-94111938D01*
X167558852Y-94111938D02*
X167511233Y-94064319D01*
X167463614Y-93969080D01*
X167463614Y-93826223D01*
X167511233Y-93730985D01*
X167606471Y-93683366D01*
X168130280Y-93683366D01*
X168082661Y-92826223D02*
X168130280Y-92921461D01*
X168130280Y-93111938D01*
X168082661Y-93207176D01*
X167987423Y-93254795D01*
X167606471Y-93254795D01*
X167511233Y-93207176D01*
X167463614Y-93111938D01*
X167463614Y-92921461D01*
X167511233Y-92826223D01*
X167606471Y-92778604D01*
X167701709Y-92778604D01*
X167796947Y-93254795D01*
G04 #@! TO.C,J2*
X142350666Y-95337380D02*
X142350666Y-96051666D01*
X142303047Y-96194523D01*
X142207809Y-96289761D01*
X142064952Y-96337380D01*
X141969714Y-96337380D01*
X142779238Y-95432619D02*
X142826857Y-95385000D01*
X142922095Y-95337380D01*
X143160190Y-95337380D01*
X143255428Y-95385000D01*
X143303047Y-95432619D01*
X143350666Y-95527857D01*
X143350666Y-95623095D01*
X143303047Y-95765952D01*
X142731619Y-96337380D01*
X143350666Y-96337380D01*
X140152380Y-92558809D02*
X139152380Y-92558809D01*
X139152380Y-92320714D01*
X139200000Y-92177857D01*
X139295238Y-92082619D01*
X139390476Y-92035000D01*
X139580952Y-91987380D01*
X139723809Y-91987380D01*
X139914285Y-92035000D01*
X140009523Y-92082619D01*
X140104761Y-92177857D01*
X140152380Y-92320714D01*
X140152380Y-92558809D01*
X139247619Y-91606428D02*
X139200000Y-91558809D01*
X139152380Y-91463571D01*
X139152380Y-91225476D01*
X139200000Y-91130238D01*
X139247619Y-91082619D01*
X139342857Y-91035000D01*
X139438095Y-91035000D01*
X139580952Y-91082619D01*
X140152380Y-91654047D01*
X140152380Y-91035000D01*
X139485714Y-90177857D02*
X140152380Y-90177857D01*
X139104761Y-90415952D02*
X139819047Y-90654047D01*
X139819047Y-90035000D01*
X139152380Y-89796904D02*
X140152380Y-89463571D01*
X139152380Y-89130238D01*
X139152380Y-88320714D02*
X139152380Y-88796904D01*
X139628571Y-88844523D01*
X139580952Y-88796904D01*
X139533333Y-88701666D01*
X139533333Y-88463571D01*
X139580952Y-88368333D01*
X139628571Y-88320714D01*
X139723809Y-88273095D01*
X139961904Y-88273095D01*
X140057142Y-88320714D01*
X140104761Y-88368333D01*
X140152380Y-88463571D01*
X140152380Y-88701666D01*
X140104761Y-88796904D01*
X140057142Y-88844523D01*
X139628571Y-87511190D02*
X139628571Y-87844523D01*
X140152380Y-87844523D02*
X139152380Y-87844523D01*
X139152380Y-87368333D01*
X139152380Y-86511190D02*
X139152380Y-86987380D01*
X139628571Y-87035000D01*
X139580952Y-86987380D01*
X139533333Y-86892142D01*
X139533333Y-86654047D01*
X139580952Y-86558809D01*
X139628571Y-86511190D01*
X139723809Y-86463571D01*
X139961904Y-86463571D01*
X140057142Y-86511190D01*
X140104761Y-86558809D01*
X140152380Y-86654047D01*
X140152380Y-86892142D01*
X140104761Y-86987380D01*
X140057142Y-87035000D01*
G04 #@! TO.C,J1*
X135585380Y-58090833D02*
X136299666Y-58090833D01*
X136442523Y-58138452D01*
X136537761Y-58233690D01*
X136585380Y-58376547D01*
X136585380Y-58471785D01*
X136585380Y-57090833D02*
X136585380Y-57662261D01*
X136585380Y-57376547D02*
X135585380Y-57376547D01*
X135728238Y-57471785D01*
X135823476Y-57567023D01*
X135871095Y-57662261D01*
X152979380Y-59785000D02*
X152979380Y-60356428D01*
X152979380Y-60070714D02*
X151979380Y-60070714D01*
X152122238Y-60165952D01*
X152217476Y-60261190D01*
X152265095Y-60356428D01*
X152074619Y-59404047D02*
X152027000Y-59356428D01*
X151979380Y-59261190D01*
X151979380Y-59023095D01*
X152027000Y-58927857D01*
X152074619Y-58880238D01*
X152169857Y-58832619D01*
X152265095Y-58832619D01*
X152407952Y-58880238D01*
X152979380Y-59451666D01*
X152979380Y-58832619D01*
X151979380Y-58546904D02*
X152979380Y-58213571D01*
X151979380Y-57880238D01*
X152979380Y-56785000D02*
X151979380Y-56785000D01*
X151979380Y-56546904D01*
X152027000Y-56404047D01*
X152122238Y-56308809D01*
X152217476Y-56261190D01*
X152407952Y-56213571D01*
X152550809Y-56213571D01*
X152741285Y-56261190D01*
X152836523Y-56308809D01*
X152931761Y-56404047D01*
X152979380Y-56546904D01*
X152979380Y-56785000D01*
X152884142Y-55213571D02*
X152931761Y-55261190D01*
X152979380Y-55404047D01*
X152979380Y-55499285D01*
X152931761Y-55642142D01*
X152836523Y-55737380D01*
X152741285Y-55785000D01*
X152550809Y-55832619D01*
X152407952Y-55832619D01*
X152217476Y-55785000D01*
X152122238Y-55737380D01*
X152027000Y-55642142D01*
X151979380Y-55499285D01*
X151979380Y-55404047D01*
X152027000Y-55261190D01*
X152074619Y-55213571D01*
G04 #@! TO.C,J6*
X126632380Y-74069333D02*
X127346666Y-74069333D01*
X127489523Y-74116952D01*
X127584761Y-74212190D01*
X127632380Y-74355047D01*
X127632380Y-74450285D01*
X126632380Y-73164571D02*
X126632380Y-73355047D01*
X126680000Y-73450285D01*
X126727619Y-73497904D01*
X126870476Y-73593142D01*
X127060952Y-73640761D01*
X127441904Y-73640761D01*
X127537142Y-73593142D01*
X127584761Y-73545523D01*
X127632380Y-73450285D01*
X127632380Y-73259809D01*
X127584761Y-73164571D01*
X127537142Y-73116952D01*
X127441904Y-73069333D01*
X127203809Y-73069333D01*
X127108571Y-73116952D01*
X127060952Y-73164571D01*
X127013333Y-73259809D01*
X127013333Y-73450285D01*
X127060952Y-73545523D01*
X127108571Y-73593142D01*
X127203809Y-73640761D01*
X128103571Y-84224761D02*
X128246428Y-84272380D01*
X128484523Y-84272380D01*
X128579761Y-84224761D01*
X128627380Y-84177142D01*
X128675000Y-84081904D01*
X128675000Y-83986666D01*
X128627380Y-83891428D01*
X128579761Y-83843809D01*
X128484523Y-83796190D01*
X128294047Y-83748571D01*
X128198809Y-83700952D01*
X128151190Y-83653333D01*
X128103571Y-83558095D01*
X128103571Y-83462857D01*
X128151190Y-83367619D01*
X128198809Y-83320000D01*
X128294047Y-83272380D01*
X128532142Y-83272380D01*
X128675000Y-83320000D01*
X129246428Y-84272380D02*
X129151190Y-84224761D01*
X129103571Y-84177142D01*
X129055952Y-84081904D01*
X129055952Y-83796190D01*
X129103571Y-83700952D01*
X129151190Y-83653333D01*
X129246428Y-83605714D01*
X129389285Y-83605714D01*
X129484523Y-83653333D01*
X129532142Y-83700952D01*
X129579761Y-83796190D01*
X129579761Y-84081904D01*
X129532142Y-84177142D01*
X129484523Y-84224761D01*
X129389285Y-84272380D01*
X129246428Y-84272380D01*
X130008333Y-83605714D02*
X130008333Y-84272380D01*
X130008333Y-83700952D02*
X130055952Y-83653333D01*
X130151190Y-83605714D01*
X130294047Y-83605714D01*
X130389285Y-83653333D01*
X130436904Y-83748571D01*
X130436904Y-84272380D01*
X131341666Y-84272380D02*
X131341666Y-83272380D01*
X131341666Y-84224761D02*
X131246428Y-84272380D01*
X131055952Y-84272380D01*
X130960714Y-84224761D01*
X130913095Y-84177142D01*
X130865476Y-84081904D01*
X130865476Y-83796190D01*
X130913095Y-83700952D01*
X130960714Y-83653333D01*
X131055952Y-83605714D01*
X131246428Y-83605714D01*
X131341666Y-83653333D01*
X132198809Y-84224761D02*
X132103571Y-84272380D01*
X131913095Y-84272380D01*
X131817857Y-84224761D01*
X131770238Y-84129523D01*
X131770238Y-83748571D01*
X131817857Y-83653333D01*
X131913095Y-83605714D01*
X132103571Y-83605714D01*
X132198809Y-83653333D01*
X132246428Y-83748571D01*
X132246428Y-83843809D01*
X131770238Y-83939047D01*
G04 #@! TD*
M02*
