G04 #@! TF.GenerationSoftware,KiCad,Pcbnew,(5.0.2)-1*
G04 #@! TF.CreationDate,2019-03-20T19:27:35+01:00*
G04 #@! TF.ProjectId,HB-UNI-Sen-Lev-Vo,48422d55-4e49-42d5-9365-6e2d4c65762d,V1.0.2*
G04 #@! TF.SameCoordinates,Original*
G04 #@! TF.FileFunction,Copper,L1,Top*
G04 #@! TF.FilePolarity,Positive*
%FSLAX46Y46*%
G04 Gerber Fmt 4.6, Leading zero omitted, Abs format (unit mm)*
G04 Created by KiCad (PCBNEW (5.0.2)-1) date 20.03.2019 19:27:35*
%MOMM*%
%LPD*%
G01*
G04 APERTURE LIST*
G04 #@! TA.AperFunction,ComponentPad*
%ADD10R,1.200000X1.200000*%
G04 #@! TD*
G04 #@! TA.AperFunction,ComponentPad*
%ADD11C,1.200000*%
G04 #@! TD*
G04 #@! TA.AperFunction,ComponentPad*
%ADD12R,1.800000X1.800000*%
G04 #@! TD*
G04 #@! TA.AperFunction,ComponentPad*
%ADD13C,1.800000*%
G04 #@! TD*
G04 #@! TA.AperFunction,ComponentPad*
%ADD14R,1.700000X1.700000*%
G04 #@! TD*
G04 #@! TA.AperFunction,ComponentPad*
%ADD15O,1.700000X1.700000*%
G04 #@! TD*
G04 #@! TA.AperFunction,ComponentPad*
%ADD16C,1.600000*%
G04 #@! TD*
G04 #@! TA.AperFunction,ComponentPad*
%ADD17O,1.600000X1.600000*%
G04 #@! TD*
G04 #@! TA.AperFunction,ComponentPad*
%ADD18C,2.000000*%
G04 #@! TD*
G04 #@! TA.AperFunction,ComponentPad*
%ADD19C,1.350000*%
G04 #@! TD*
G04 #@! TA.AperFunction,ConnectorPad*
%ADD20R,1.800000X1.350000*%
G04 #@! TD*
G04 #@! TA.AperFunction,ComponentPad*
%ADD21C,0.800000*%
G04 #@! TD*
G04 #@! TA.AperFunction,ComponentPad*
%ADD22C,6.400000*%
G04 #@! TD*
G04 #@! TA.AperFunction,ComponentPad*
%ADD23R,3.000000X3.000000*%
G04 #@! TD*
G04 #@! TA.AperFunction,ComponentPad*
%ADD24R,3.000000X1.500000*%
G04 #@! TD*
G04 #@! TA.AperFunction,ComponentPad*
%ADD25O,3.000000X1.500000*%
G04 #@! TD*
G04 #@! TA.AperFunction,Conductor*
%ADD26C,0.250000*%
G04 #@! TD*
G04 #@! TA.AperFunction,Conductor*
%ADD27C,0.254000*%
G04 #@! TD*
G04 APERTURE END LIST*
D10*
G04 #@! TO.P,C1,1*
G04 #@! TO.N,+3V3*
X150050000Y-83883500D03*
D11*
G04 #@! TO.P,C1,2*
G04 #@! TO.N,GND*
X150050000Y-82383500D03*
G04 #@! TD*
D12*
G04 #@! TO.P,D1,1*
G04 #@! TO.N,GND*
X150368000Y-76771500D03*
D13*
G04 #@! TO.P,D1,2*
G04 #@! TO.N,Net-(D1-Pad2)*
X150368000Y-79311500D03*
G04 #@! TD*
D14*
G04 #@! TO.P,J8,1*
G04 #@! TO.N,+3V3*
X147320000Y-87630000D03*
D15*
G04 #@! TO.P,J8,2*
G04 #@! TO.N,GND*
X147320000Y-90170000D03*
G04 #@! TO.P,J8,3*
G04 #@! TO.N,/MOSI*
X147320000Y-92710000D03*
G04 #@! TO.P,J8,4*
G04 #@! TO.N,/SCK*
X147320000Y-95250000D03*
G04 #@! TO.P,J8,5*
G04 #@! TO.N,/MISO*
X147320000Y-97790000D03*
G04 #@! TO.P,J8,6*
G04 #@! TO.N,/RSET*
X147320000Y-100330000D03*
G04 #@! TD*
D16*
G04 #@! TO.P,R1,1*
G04 #@! TO.N,Net-(R1-Pad1)*
X144907000Y-77089000D03*
D17*
G04 #@! TO.P,R1,2*
G04 #@! TO.N,Net-(D1-Pad2)*
X144907000Y-79629000D03*
G04 #@! TD*
D18*
G04 #@! TO.P,SW1,2*
G04 #@! TO.N,GND*
X151257000Y-69096500D03*
G04 #@! TO.P,SW1,1*
G04 #@! TO.N,Net-(SW1-Pad1)*
X151257000Y-73596500D03*
G04 #@! TO.P,SW1,2*
G04 #@! TO.N,GND*
X144757000Y-69096500D03*
G04 #@! TO.P,SW1,1*
G04 #@! TO.N,Net-(SW1-Pad1)*
X144757000Y-73596500D03*
G04 #@! TD*
D13*
G04 #@! TO.P,U1,28*
G04 #@! TO.N,Net-(U1-Pad28)*
X167640000Y-73660000D03*
G04 #@! TO.P,U1,27*
G04 #@! TO.N,Net-(U1-Pad27)*
X167640000Y-76200000D03*
X165100000Y-82550000D03*
G04 #@! TO.P,U1,28*
G04 #@! TO.N,Net-(U1-Pad28)*
X167640000Y-82550000D03*
G04 #@! TO.P,U1,1*
G04 #@! TO.N,/SS*
X170180000Y-82550000D03*
G04 #@! TO.P,U1,2*
G04 #@! TO.N,/MOSI*
X170180000Y-80010000D03*
G04 #@! TO.P,U1,3*
G04 #@! TO.N,/MISO*
X170180000Y-77470000D03*
G04 #@! TO.P,U1,4*
G04 #@! TO.N,/SCK*
X170180000Y-74930000D03*
G04 #@! TO.P,U1,5*
G04 #@! TO.N,/A0*
X170180000Y-72390000D03*
G04 #@! TO.P,U1,6*
G04 #@! TO.N,Net-(U1-Pad6)*
X170180000Y-69850000D03*
G04 #@! TO.P,U1,7*
G04 #@! TO.N,Net-(U1-Pad7)*
X170180000Y-67310000D03*
G04 #@! TO.P,U1,8*
G04 #@! TO.N,Net-(U1-Pad8)*
X170180000Y-64770000D03*
G04 #@! TO.P,U1,9*
G04 #@! TO.N,+3V3*
X170180000Y-62230000D03*
G04 #@! TO.P,U1,10*
G04 #@! TO.N,/RSET*
X170180000Y-59690000D03*
G04 #@! TO.P,U1,11*
G04 #@! TO.N,GND*
X170180000Y-57150000D03*
G04 #@! TO.P,U1,12*
G04 #@! TO.N,+5V*
X170180000Y-54610000D03*
G04 #@! TO.P,U1,13*
G04 #@! TO.N,N/C*
X154940000Y-54610000D03*
G04 #@! TO.P,U1,14*
X154940000Y-57150000D03*
G04 #@! TO.P,U1,15*
X154940000Y-59690000D03*
G04 #@! TO.P,U1,16*
G04 #@! TO.N,GND*
X154940000Y-62230000D03*
G04 #@! TO.P,U1,17*
G04 #@! TO.N,/D2*
X154940000Y-64770000D03*
G04 #@! TO.P,U1,18*
G04 #@! TO.N,Net-(U1-Pad18)*
X154940000Y-67310000D03*
G04 #@! TO.P,U1,19*
G04 #@! TO.N,Net-(R1-Pad1)*
X154940000Y-69850000D03*
G04 #@! TO.P,U1,20*
G04 #@! TO.N,Net-(U1-Pad20)*
X154940000Y-72390000D03*
G04 #@! TO.P,U1,21*
G04 #@! TO.N,Net-(U1-Pad21)*
X154940000Y-74930000D03*
G04 #@! TO.P,U1,22*
G04 #@! TO.N,Net-(U1-Pad22)*
X154940000Y-77470000D03*
G04 #@! TO.P,U1,23*
G04 #@! TO.N,Net-(SW1-Pad1)*
X154940000Y-80010000D03*
G04 #@! TO.P,U1,24*
G04 #@! TO.N,Net-(U1-Pad24)*
X154940000Y-82550000D03*
G04 #@! TO.P,U1,25*
G04 #@! TO.N,Net-(U1-Pad25)*
X167640000Y-66040000D03*
G04 #@! TO.P,U1,26*
G04 #@! TO.N,Net-(U1-Pad26)*
X167640000Y-63500000D03*
G04 #@! TD*
D19*
G04 #@! TO.P,U2,8*
G04 #@! TO.N,/SS*
X152360000Y-101860000D03*
D20*
X151360000Y-101860000D03*
D19*
G04 #@! TO.P,U2,1*
G04 #@! TO.N,+3V3*
X152360000Y-87860000D03*
G04 #@! TO.P,U2,2*
G04 #@! TO.N,GND*
X152360000Y-89860000D03*
G04 #@! TO.P,U2,3*
G04 #@! TO.N,/MOSI*
X152360000Y-91860000D03*
G04 #@! TO.P,U2,4*
G04 #@! TO.N,/SCK*
X152360000Y-93860000D03*
G04 #@! TO.P,U2,5*
G04 #@! TO.N,/MISO*
X152360000Y-95860000D03*
G04 #@! TO.P,U2,6*
G04 #@! TO.N,Net-(U2-Pad6)*
X152360000Y-97860000D03*
G04 #@! TO.P,U2,7*
G04 #@! TO.N,/D2*
X152360000Y-99860000D03*
D20*
G04 #@! TO.P,U2,1*
G04 #@! TO.N,+3V3*
X151360000Y-87860000D03*
G04 #@! TO.P,U2,2*
G04 #@! TO.N,GND*
X151360000Y-89860000D03*
G04 #@! TO.P,U2,3*
G04 #@! TO.N,/MOSI*
X151360000Y-91860000D03*
G04 #@! TO.P,U2,4*
G04 #@! TO.N,/SCK*
X151360000Y-93860000D03*
G04 #@! TO.P,U2,5*
G04 #@! TO.N,/MISO*
X151360000Y-95860000D03*
G04 #@! TO.P,U2,6*
G04 #@! TO.N,Net-(U2-Pad6)*
X151360000Y-97860000D03*
G04 #@! TO.P,U2,7*
G04 #@! TO.N,/D2*
X151360000Y-99860000D03*
G04 #@! TD*
D21*
G04 #@! TO.P,REF02,1*
G04 #@! TO.N,N/C*
X178227056Y-54182944D03*
X176530000Y-53480000D03*
X174832944Y-54182944D03*
X174130000Y-55880000D03*
X174832944Y-57577056D03*
X176530000Y-58280000D03*
X178227056Y-57577056D03*
X178930000Y-55880000D03*
D22*
X176530000Y-55880000D03*
G04 #@! TD*
D21*
G04 #@! TO.P,REF01,1*
G04 #@! TO.N,N/C*
X129967056Y-54182944D03*
X128270000Y-53480000D03*
X126572944Y-54182944D03*
X125870000Y-55880000D03*
X126572944Y-57577056D03*
X128270000Y-58280000D03*
X129967056Y-57577056D03*
X130670000Y-55880000D03*
D22*
X128270000Y-55880000D03*
G04 #@! TD*
D21*
G04 #@! TO.P,REF03,1*
G04 #@! TO.N,N/C*
X129967056Y-97362944D03*
X128270000Y-96660000D03*
X126572944Y-97362944D03*
X125870000Y-99060000D03*
X126572944Y-100757056D03*
X128270000Y-101460000D03*
X129967056Y-100757056D03*
X130670000Y-99060000D03*
D22*
X128270000Y-99060000D03*
G04 #@! TD*
D21*
G04 #@! TO.P,REF04,1*
G04 #@! TO.N,N/C*
X178227056Y-97362944D03*
X176530000Y-96660000D03*
X174832944Y-97362944D03*
X174130000Y-99060000D03*
X174832944Y-100757056D03*
X176530000Y-101460000D03*
X178227056Y-100757056D03*
X178930000Y-99060000D03*
D22*
X176530000Y-99060000D03*
G04 #@! TD*
D23*
G04 #@! TO.P,Antenne,1*
G04 #@! TO.N,N/C*
X170383000Y-95821500D03*
G04 #@! TD*
D14*
G04 #@! TO.P,J2,1*
G04 #@! TO.N,Net-(J2-Pad1)*
X142684000Y-93091000D03*
D15*
G04 #@! TO.P,J2,2*
G04 #@! TO.N,+12V*
X142684000Y-90551000D03*
G04 #@! TO.P,J2,3*
G04 #@! TO.N,GND*
X142684000Y-88011000D03*
G04 #@! TO.P,J2,4*
G04 #@! TO.N,+5V*
X142684000Y-85471000D03*
G04 #@! TD*
D24*
G04 #@! TO.P,J1,1*
G04 #@! TO.N,+12V*
X147193000Y-60007500D03*
X142193000Y-60007500D03*
D25*
G04 #@! TO.P,J1,2*
G04 #@! TO.N,GND*
X147193000Y-55007500D03*
X142193000Y-55007500D03*
G04 #@! TD*
D24*
G04 #@! TO.P,J6,1*
G04 #@! TO.N,+12V*
X138240000Y-78486000D03*
X133240000Y-78486000D03*
D25*
G04 #@! TO.P,J6,2*
G04 #@! TO.N,/A0*
X138240000Y-73486000D03*
X133240000Y-73486000D03*
G04 #@! TO.P,J6,3*
G04 #@! TO.N,GND*
X138240000Y-68486000D03*
X133240000Y-68486000D03*
G04 #@! TD*
D26*
G04 #@! TO.N,+3V3*
X149904700Y-87630000D02*
X147320000Y-87630000D01*
X150134700Y-87860000D02*
X149904700Y-87630000D01*
X149904700Y-87630000D02*
X150050000Y-87484700D01*
X150050000Y-87484700D02*
X150050000Y-83883500D01*
X151360000Y-87860000D02*
X150134700Y-87860000D01*
X151360000Y-87860000D02*
X152360000Y-87860000D01*
G04 #@! TO.N,GND*
X138240000Y-68486000D02*
X144146500Y-68486000D01*
X144146500Y-68486000D02*
X144757000Y-69096500D01*
X133240000Y-68486000D02*
X138240000Y-68486000D01*
X147320000Y-90170000D02*
X146144700Y-90170000D01*
X144683900Y-87533800D02*
X146144700Y-88994700D01*
X146144700Y-88994700D02*
X146144700Y-90170000D01*
X143271700Y-88011000D02*
X143748900Y-87533800D01*
X143748900Y-87533800D02*
X144683800Y-87533800D01*
X144683800Y-87533800D02*
X144683900Y-87533800D01*
X150050000Y-82383500D02*
X149834200Y-82383500D01*
X149834200Y-82383500D02*
X144683900Y-87533800D01*
X142193000Y-55007500D02*
X147193000Y-55007500D01*
X147193000Y-55007500D02*
X149018300Y-55007500D01*
X154940000Y-62230000D02*
X149018300Y-56308300D01*
X149018300Y-56308300D02*
X149018300Y-55007500D01*
X170180000Y-57150000D02*
X165100000Y-62230000D01*
X165100000Y-62230000D02*
X154940000Y-62230000D01*
X151360000Y-89860000D02*
X150134700Y-89860000D01*
X147320000Y-90170000D02*
X149824700Y-90170000D01*
X149824700Y-90170000D02*
X150134700Y-89860000D01*
X142684000Y-88011000D02*
X143271700Y-88011000D01*
X151257000Y-69096500D02*
X144757000Y-69096500D01*
X152360000Y-89860000D02*
X151360000Y-89860000D01*
G04 #@! TO.N,Net-(D1-Pad2)*
X144907000Y-79629000D02*
X150050500Y-79629000D01*
X150050500Y-79629000D02*
X150368000Y-79311500D01*
G04 #@! TO.N,/A0*
X138240000Y-73486000D02*
X140892600Y-70833400D01*
X140892600Y-70833400D02*
X151439800Y-70833400D01*
X151439800Y-70833400D02*
X153693200Y-68580000D01*
X153693200Y-68580000D02*
X166370000Y-68580000D01*
X166370000Y-68580000D02*
X170180000Y-72390000D01*
X133240000Y-73486000D02*
X138240000Y-73486000D01*
G04 #@! TO.N,/MOSI*
X147320000Y-92710000D02*
X148495300Y-92710000D01*
X151360000Y-91860000D02*
X149345300Y-91860000D01*
X149345300Y-91860000D02*
X148495300Y-92710000D01*
X152360000Y-91860000D02*
X151360000Y-91860000D01*
G04 #@! TO.N,/SCK*
X170180000Y-74930000D02*
X170180000Y-75392900D01*
X170180000Y-75392900D02*
X162227800Y-83345100D01*
X162227800Y-83345100D02*
X162227800Y-83992200D01*
X162227800Y-83992200D02*
X152360000Y-93860000D01*
X147320000Y-95250000D02*
X148495300Y-95250000D01*
X151360000Y-93860000D02*
X149885300Y-93860000D01*
X149885300Y-93860000D02*
X148495300Y-95250000D01*
X152360000Y-93860000D02*
X151360000Y-93860000D01*
G04 #@! TO.N,/MISO*
X170180000Y-77470000D02*
X166370000Y-81280000D01*
X166370000Y-81280000D02*
X166370000Y-83071300D01*
X166370000Y-83071300D02*
X153581300Y-95860000D01*
X153581300Y-95860000D02*
X152360000Y-95860000D01*
X151360000Y-95860000D02*
X150134700Y-95860000D01*
X147320000Y-97790000D02*
X148495300Y-97790000D01*
X150134700Y-95860000D02*
X150134700Y-96150600D01*
X150134700Y-96150600D02*
X148495300Y-97790000D01*
X152360000Y-95860000D02*
X151360000Y-95860000D01*
G04 #@! TO.N,Net-(R1-Pad1)*
X154940000Y-69850000D02*
X153506200Y-71283800D01*
X153506200Y-71283800D02*
X145167900Y-71283800D01*
X145167900Y-71283800D02*
X143417100Y-73034600D01*
X143417100Y-73034600D02*
X143417100Y-75599100D01*
X143417100Y-75599100D02*
X144907000Y-77089000D01*
G04 #@! TO.N,Net-(SW1-Pad1)*
X144757000Y-73596500D02*
X151257000Y-73596500D01*
X154940000Y-80010000D02*
X152707400Y-77777400D01*
X152707400Y-77777400D02*
X152707400Y-75046900D01*
X152707400Y-75046900D02*
X151257000Y-73596500D01*
G04 #@! TO.N,/SS*
X151360000Y-101860000D02*
X152360000Y-101860000D01*
G04 #@! TO.N,/D2*
X151360000Y-99860000D02*
X152360000Y-99860000D01*
G04 #@! TO.N,Net-(U2-Pad6)*
X151360000Y-97860000D02*
X152360000Y-97860000D01*
G04 #@! TO.N,+12V*
X142193000Y-60007500D02*
X147193000Y-60007500D01*
X133240000Y-78486000D02*
X138240000Y-78486000D01*
G04 #@! TD*
D27*
G04 #@! TO.N,GND*
G36*
X152587787Y-51554065D02*
X152752920Y-51649405D01*
X152875488Y-51795477D01*
X152951555Y-52004465D01*
X152962702Y-52131880D01*
X152981996Y-52352413D01*
X153006003Y-52442010D01*
X153022112Y-52533368D01*
X153172965Y-52947830D01*
X153172966Y-52947835D01*
X153296257Y-53161380D01*
X153579769Y-53499256D01*
X153742978Y-53636205D01*
X153638690Y-53740493D01*
X153405000Y-54304670D01*
X153405000Y-54915330D01*
X153638690Y-55479507D01*
X154039183Y-55880000D01*
X153638690Y-56280493D01*
X153405000Y-56844670D01*
X153405000Y-57455330D01*
X153638690Y-58019507D01*
X154039183Y-58420000D01*
X153638690Y-58820493D01*
X153405000Y-59384670D01*
X153405000Y-59995330D01*
X153638690Y-60559507D01*
X154070493Y-60991310D01*
X154090115Y-60999438D01*
X154039446Y-61149841D01*
X154940000Y-62050395D01*
X155840554Y-61149841D01*
X155789885Y-60999438D01*
X155809507Y-60991310D01*
X156241310Y-60559507D01*
X156475000Y-59995330D01*
X156475000Y-59384670D01*
X156241310Y-58820493D01*
X155840817Y-58420000D01*
X156241310Y-58019507D01*
X156475000Y-57455330D01*
X156475000Y-56909336D01*
X168633542Y-56909336D01*
X168659161Y-57519460D01*
X168843357Y-57964148D01*
X169099841Y-58050554D01*
X170000395Y-57150000D01*
X170359605Y-57150000D01*
X171260159Y-58050554D01*
X171516643Y-57964148D01*
X171726458Y-57390664D01*
X171700839Y-56780540D01*
X171516643Y-56335852D01*
X171260159Y-56249446D01*
X170359605Y-57150000D01*
X170000395Y-57150000D01*
X169099841Y-56249446D01*
X168843357Y-56335852D01*
X168633542Y-56909336D01*
X156475000Y-56909336D01*
X156475000Y-56844670D01*
X156241310Y-56280493D01*
X155840817Y-55880000D01*
X156241310Y-55479507D01*
X156475000Y-54915330D01*
X156475000Y-54304670D01*
X156369512Y-54050000D01*
X168750488Y-54050000D01*
X168645000Y-54304670D01*
X168645000Y-54915330D01*
X168878690Y-55479507D01*
X169310493Y-55911310D01*
X169330115Y-55919438D01*
X169279446Y-56069841D01*
X170180000Y-56970395D01*
X171080554Y-56069841D01*
X171029885Y-55919438D01*
X171049507Y-55911310D01*
X171481310Y-55479507D01*
X171715000Y-54915330D01*
X171715000Y-54304670D01*
X171481310Y-53740493D01*
X171370983Y-53630166D01*
X171609256Y-53430231D01*
X171767754Y-53241340D01*
X171767755Y-53241338D01*
X171988287Y-52859368D01*
X171988288Y-52859366D01*
X171988289Y-52859365D01*
X172072624Y-52627656D01*
X172149214Y-52193289D01*
X172204065Y-51882213D01*
X172299405Y-51717080D01*
X172445477Y-51594512D01*
X172654465Y-51518445D01*
X172750996Y-51510000D01*
X179007881Y-51510000D01*
X179257787Y-51554065D01*
X179422920Y-51649405D01*
X179545488Y-51795477D01*
X179621555Y-52004465D01*
X179630001Y-52101007D01*
X179630001Y-53556492D01*
X178702353Y-52628844D01*
X177292829Y-52045000D01*
X175767171Y-52045000D01*
X174357647Y-52628844D01*
X173278844Y-53707647D01*
X172695000Y-55117171D01*
X172695000Y-56642829D01*
X173278844Y-58052353D01*
X174357647Y-59131156D01*
X175767171Y-59715000D01*
X177292829Y-59715000D01*
X178702353Y-59131156D01*
X179630001Y-58203508D01*
X179630000Y-96736491D01*
X178702353Y-95808844D01*
X177292829Y-95225000D01*
X175767171Y-95225000D01*
X174357647Y-95808844D01*
X173278844Y-96887647D01*
X172695000Y-98297171D01*
X172695000Y-99822829D01*
X173278844Y-101232353D01*
X174357647Y-102311156D01*
X175767171Y-102895000D01*
X177292829Y-102895000D01*
X178702353Y-102311156D01*
X179630000Y-101383509D01*
X179630000Y-102807881D01*
X179585935Y-103057787D01*
X179490596Y-103222919D01*
X179344524Y-103345488D01*
X179135532Y-103421555D01*
X179039004Y-103430000D01*
X125792119Y-103430000D01*
X125542213Y-103385935D01*
X125377081Y-103290596D01*
X125254512Y-103144524D01*
X125178445Y-102935532D01*
X125170000Y-102839004D01*
X125170000Y-101383509D01*
X126097647Y-102311156D01*
X127507171Y-102895000D01*
X129032829Y-102895000D01*
X130442353Y-102311156D01*
X131521156Y-101232353D01*
X132105000Y-99822829D01*
X132105000Y-98297171D01*
X131521156Y-96887647D01*
X130442353Y-95808844D01*
X129032829Y-95225000D01*
X127507171Y-95225000D01*
X126097647Y-95808844D01*
X125170000Y-96736491D01*
X125170000Y-90551000D01*
X141169908Y-90551000D01*
X141285161Y-91130418D01*
X141613375Y-91621625D01*
X141631619Y-91633816D01*
X141586235Y-91642843D01*
X141376191Y-91783191D01*
X141235843Y-91993235D01*
X141186560Y-92241000D01*
X141186560Y-93941000D01*
X141235843Y-94188765D01*
X141376191Y-94398809D01*
X141586235Y-94539157D01*
X141834000Y-94588440D01*
X143534000Y-94588440D01*
X143781765Y-94539157D01*
X143991809Y-94398809D01*
X144132157Y-94188765D01*
X144181440Y-93941000D01*
X144181440Y-92241000D01*
X144132157Y-91993235D01*
X143991809Y-91783191D01*
X143781765Y-91642843D01*
X143736381Y-91633816D01*
X143754625Y-91621625D01*
X144082839Y-91130418D01*
X144198092Y-90551000D01*
X144082839Y-89971582D01*
X143754625Y-89480375D01*
X143435522Y-89267157D01*
X143565358Y-89206183D01*
X143955645Y-88777924D01*
X144125476Y-88367890D01*
X144004155Y-88138000D01*
X142811000Y-88138000D01*
X142811000Y-88158000D01*
X142557000Y-88158000D01*
X142557000Y-88138000D01*
X141363845Y-88138000D01*
X141242524Y-88367890D01*
X141412355Y-88777924D01*
X141802642Y-89206183D01*
X141932478Y-89267157D01*
X141613375Y-89480375D01*
X141285161Y-89971582D01*
X141169908Y-90551000D01*
X125170000Y-90551000D01*
X125170000Y-85471000D01*
X141169908Y-85471000D01*
X141285161Y-86050418D01*
X141613375Y-86541625D01*
X141932478Y-86754843D01*
X141802642Y-86815817D01*
X141412355Y-87244076D01*
X141242524Y-87654110D01*
X141363845Y-87884000D01*
X142557000Y-87884000D01*
X142557000Y-87864000D01*
X142811000Y-87864000D01*
X142811000Y-87884000D01*
X144004155Y-87884000D01*
X144125476Y-87654110D01*
X143955645Y-87244076D01*
X143565358Y-86815817D01*
X143435522Y-86754843D01*
X143754625Y-86541625D01*
X144082839Y-86050418D01*
X144198092Y-85471000D01*
X144082839Y-84891582D01*
X143754625Y-84400375D01*
X143263418Y-84072161D01*
X142830256Y-83986000D01*
X142537744Y-83986000D01*
X142104582Y-84072161D01*
X141613375Y-84400375D01*
X141285161Y-84891582D01*
X141169908Y-85471000D01*
X125170000Y-85471000D01*
X125170000Y-81520765D01*
X149366870Y-81520765D01*
X150050000Y-82203895D01*
X150733130Y-81520765D01*
X150683617Y-81295336D01*
X150218964Y-81135693D01*
X149728587Y-81166018D01*
X149416383Y-81295336D01*
X149366870Y-81520765D01*
X125170000Y-81520765D01*
X125170000Y-77736000D01*
X131092560Y-77736000D01*
X131092560Y-79236000D01*
X131141843Y-79483765D01*
X131282191Y-79693809D01*
X131492235Y-79834157D01*
X131740000Y-79883440D01*
X134740000Y-79883440D01*
X134987765Y-79834157D01*
X135197809Y-79693809D01*
X135338157Y-79483765D01*
X135385451Y-79246000D01*
X136094549Y-79246000D01*
X136141843Y-79483765D01*
X136282191Y-79693809D01*
X136492235Y-79834157D01*
X136740000Y-79883440D01*
X139740000Y-79883440D01*
X139987765Y-79834157D01*
X140197809Y-79693809D01*
X140338157Y-79483765D01*
X140387440Y-79236000D01*
X140387440Y-77736000D01*
X140338157Y-77488235D01*
X140197809Y-77278191D01*
X139987765Y-77137843D01*
X139740000Y-77088560D01*
X136740000Y-77088560D01*
X136492235Y-77137843D01*
X136282191Y-77278191D01*
X136141843Y-77488235D01*
X136094549Y-77726000D01*
X135385451Y-77726000D01*
X135338157Y-77488235D01*
X135197809Y-77278191D01*
X134987765Y-77137843D01*
X134740000Y-77088560D01*
X131740000Y-77088560D01*
X131492235Y-77137843D01*
X131282191Y-77278191D01*
X131141843Y-77488235D01*
X131092560Y-77736000D01*
X125170000Y-77736000D01*
X125170000Y-73486000D01*
X131077867Y-73486000D01*
X131185359Y-74026400D01*
X131491471Y-74484529D01*
X131949600Y-74790641D01*
X132353593Y-74871000D01*
X134126407Y-74871000D01*
X134530400Y-74790641D01*
X134988529Y-74484529D01*
X135147909Y-74246000D01*
X136332091Y-74246000D01*
X136491471Y-74484529D01*
X136949600Y-74790641D01*
X137353593Y-74871000D01*
X139126407Y-74871000D01*
X139530400Y-74790641D01*
X139988529Y-74484529D01*
X140294641Y-74026400D01*
X140402133Y-73486000D01*
X140294641Y-72945600D01*
X140118626Y-72682175D01*
X141207402Y-71593400D01*
X143783498Y-71593400D01*
X142932630Y-72444269D01*
X142869171Y-72486671D01*
X142701196Y-72738064D01*
X142657100Y-72959749D01*
X142657100Y-72959753D01*
X142642212Y-73034600D01*
X142657100Y-73109447D01*
X142657101Y-75524248D01*
X142642212Y-75599100D01*
X142701197Y-75895637D01*
X142727499Y-75935000D01*
X142869172Y-76147029D01*
X142932628Y-76189429D01*
X143493897Y-76750698D01*
X143472000Y-76803561D01*
X143472000Y-77374439D01*
X143690466Y-77901862D01*
X144094138Y-78305534D01*
X144224168Y-78359394D01*
X143872423Y-78594423D01*
X143555260Y-79069091D01*
X143443887Y-79629000D01*
X143555260Y-80188909D01*
X143872423Y-80663577D01*
X144347091Y-80980740D01*
X144765667Y-81064000D01*
X145048333Y-81064000D01*
X145466909Y-80980740D01*
X145941577Y-80663577D01*
X146125043Y-80389000D01*
X149274683Y-80389000D01*
X149498493Y-80612810D01*
X150062670Y-80846500D01*
X150673330Y-80846500D01*
X151237507Y-80612810D01*
X151669310Y-80181007D01*
X151903000Y-79616830D01*
X151903000Y-79006170D01*
X151669310Y-78441993D01*
X151492956Y-78265639D01*
X151627699Y-78209827D01*
X151806327Y-78031198D01*
X151903000Y-77797809D01*
X151903000Y-77057250D01*
X151744250Y-76898500D01*
X150495000Y-76898500D01*
X150495000Y-76918500D01*
X150241000Y-76918500D01*
X150241000Y-76898500D01*
X148991750Y-76898500D01*
X148833000Y-77057250D01*
X148833000Y-77797809D01*
X148929673Y-78031198D01*
X149108301Y-78209827D01*
X149243044Y-78265639D01*
X149066690Y-78441993D01*
X148889818Y-78869000D01*
X146125043Y-78869000D01*
X145941577Y-78594423D01*
X145589832Y-78359394D01*
X145719862Y-78305534D01*
X146123534Y-77901862D01*
X146342000Y-77374439D01*
X146342000Y-76803561D01*
X146123534Y-76276138D01*
X145719862Y-75872466D01*
X145412594Y-75745191D01*
X148833000Y-75745191D01*
X148833000Y-76485750D01*
X148991750Y-76644500D01*
X150241000Y-76644500D01*
X150241000Y-75395250D01*
X150495000Y-75395250D01*
X150495000Y-76644500D01*
X151744250Y-76644500D01*
X151903000Y-76485750D01*
X151903000Y-75745191D01*
X151806327Y-75511802D01*
X151627699Y-75333173D01*
X151394310Y-75236500D01*
X150653750Y-75236500D01*
X150495000Y-75395250D01*
X150241000Y-75395250D01*
X150082250Y-75236500D01*
X149341690Y-75236500D01*
X149108301Y-75333173D01*
X148929673Y-75511802D01*
X148833000Y-75745191D01*
X145412594Y-75745191D01*
X145192439Y-75654000D01*
X144621561Y-75654000D01*
X144568698Y-75675897D01*
X144177100Y-75284299D01*
X144177100Y-75126009D01*
X144431778Y-75231500D01*
X145082222Y-75231500D01*
X145683153Y-74982586D01*
X146143086Y-74522653D01*
X146211909Y-74356500D01*
X149802091Y-74356500D01*
X149870914Y-74522653D01*
X150330847Y-74982586D01*
X150931778Y-75231500D01*
X151582222Y-75231500D01*
X151748375Y-75162677D01*
X151947401Y-75361704D01*
X151947400Y-77702553D01*
X151932512Y-77777400D01*
X151947400Y-77852247D01*
X151947400Y-77852251D01*
X151991496Y-78073936D01*
X152159471Y-78325329D01*
X152222930Y-78367731D01*
X153450360Y-79595162D01*
X153405000Y-79704670D01*
X153405000Y-80315330D01*
X153638690Y-80879507D01*
X154039183Y-81280000D01*
X153638690Y-81680493D01*
X153405000Y-82244670D01*
X153405000Y-82855330D01*
X153638690Y-83419507D01*
X154070493Y-83851310D01*
X154634670Y-84085000D01*
X155245330Y-84085000D01*
X155809507Y-83851310D01*
X156241310Y-83419507D01*
X156475000Y-82855330D01*
X156475000Y-82244670D01*
X156241310Y-81680493D01*
X155840817Y-81280000D01*
X156241310Y-80879507D01*
X156475000Y-80315330D01*
X156475000Y-79704670D01*
X156241310Y-79140493D01*
X155840817Y-78740000D01*
X156241310Y-78339507D01*
X156475000Y-77775330D01*
X156475000Y-77164670D01*
X156241310Y-76600493D01*
X155840817Y-76200000D01*
X156241310Y-75799507D01*
X156475000Y-75235330D01*
X156475000Y-74624670D01*
X156241310Y-74060493D01*
X155840817Y-73660000D01*
X156241310Y-73259507D01*
X156475000Y-72695330D01*
X156475000Y-72084670D01*
X156241310Y-71520493D01*
X155840817Y-71120000D01*
X156241310Y-70719507D01*
X156475000Y-70155330D01*
X156475000Y-69544670D01*
X156390223Y-69340000D01*
X166055199Y-69340000D01*
X168690360Y-71975162D01*
X168645000Y-72084670D01*
X168645000Y-72494183D01*
X168509507Y-72358690D01*
X167945330Y-72125000D01*
X167334670Y-72125000D01*
X166770493Y-72358690D01*
X166338690Y-72790493D01*
X166105000Y-73354670D01*
X166105000Y-73965330D01*
X166338690Y-74529507D01*
X166739183Y-74930000D01*
X166338690Y-75330493D01*
X166105000Y-75894670D01*
X166105000Y-76505330D01*
X166338690Y-77069507D01*
X166770493Y-77501310D01*
X166930508Y-77567590D01*
X161743330Y-82754769D01*
X161679871Y-82797171D01*
X161511896Y-83048564D01*
X161467800Y-83270249D01*
X161467800Y-83270253D01*
X161452912Y-83345100D01*
X161467800Y-83419947D01*
X161467800Y-83677398D01*
X153633615Y-91511584D01*
X153470564Y-91117945D01*
X153102055Y-90749436D01*
X153047045Y-90726650D01*
X152895000Y-90574605D01*
X152895000Y-90215395D01*
X153277147Y-90597542D01*
X153510328Y-90538781D01*
X153682522Y-90046900D01*
X153653375Y-89526566D01*
X153510328Y-89181219D01*
X153277147Y-89122458D01*
X152895000Y-89504605D01*
X152895000Y-89145395D01*
X153047045Y-88993350D01*
X153102055Y-88970564D01*
X153470564Y-88602055D01*
X153670000Y-88120575D01*
X153670000Y-87599425D01*
X153470564Y-87117945D01*
X153102055Y-86749436D01*
X152620575Y-86550000D01*
X152322541Y-86550000D01*
X152260000Y-86537560D01*
X150810000Y-86537560D01*
X150810000Y-85099114D01*
X150897765Y-85081657D01*
X151107809Y-84941309D01*
X151248157Y-84731265D01*
X151297440Y-84483500D01*
X151297440Y-83283500D01*
X151248157Y-83035735D01*
X151171291Y-82920698D01*
X151297807Y-82552464D01*
X151267482Y-82062087D01*
X151138164Y-81749883D01*
X150912735Y-81700370D01*
X150229605Y-82383500D01*
X150243748Y-82397643D01*
X150064143Y-82577248D01*
X150050000Y-82563105D01*
X150035858Y-82577248D01*
X149856253Y-82397643D01*
X149870395Y-82383500D01*
X149187265Y-81700370D01*
X148961836Y-81749883D01*
X148802193Y-82214536D01*
X148832518Y-82704913D01*
X148924505Y-82926990D01*
X148851843Y-83035735D01*
X148802560Y-83283500D01*
X148802560Y-84483500D01*
X148851843Y-84731265D01*
X148992191Y-84941309D01*
X149202235Y-85081657D01*
X149290001Y-85099114D01*
X149290000Y-86870000D01*
X148817440Y-86870000D01*
X148817440Y-86780000D01*
X148768157Y-86532235D01*
X148627809Y-86322191D01*
X148417765Y-86181843D01*
X148170000Y-86132560D01*
X146470000Y-86132560D01*
X146222235Y-86181843D01*
X146012191Y-86322191D01*
X145871843Y-86532235D01*
X145822560Y-86780000D01*
X145822560Y-88480000D01*
X145871843Y-88727765D01*
X146012191Y-88937809D01*
X146222235Y-89078157D01*
X146325708Y-89098739D01*
X146048355Y-89403076D01*
X145878524Y-89813110D01*
X145999845Y-90043000D01*
X147193000Y-90043000D01*
X147193000Y-90023000D01*
X147447000Y-90023000D01*
X147447000Y-90043000D01*
X148640155Y-90043000D01*
X148761476Y-89813110D01*
X148591645Y-89403076D01*
X148314292Y-89098739D01*
X148417765Y-89078157D01*
X148627809Y-88937809D01*
X148768157Y-88727765D01*
X148817440Y-88480000D01*
X148817440Y-88390000D01*
X149574791Y-88390000D01*
X149586771Y-88407929D01*
X149818019Y-88562444D01*
X149861843Y-88782765D01*
X149909654Y-88854318D01*
X149825000Y-89058690D01*
X149825000Y-89574250D01*
X149983750Y-89733000D01*
X151040833Y-89733000D01*
X151055061Y-89987000D01*
X149983750Y-89987000D01*
X149825000Y-90145750D01*
X149825000Y-90661310D01*
X149909654Y-90865682D01*
X149861843Y-90937235D01*
X149829467Y-91100000D01*
X149420148Y-91100000D01*
X149345300Y-91085112D01*
X149270452Y-91100000D01*
X149270448Y-91100000D01*
X149048763Y-91144096D01*
X148797371Y-91312071D01*
X148754971Y-91375527D01*
X148430879Y-91699619D01*
X148390625Y-91639375D01*
X148071522Y-91426157D01*
X148201358Y-91365183D01*
X148591645Y-90936924D01*
X148761476Y-90526890D01*
X148640155Y-90297000D01*
X147447000Y-90297000D01*
X147447000Y-90317000D01*
X147193000Y-90317000D01*
X147193000Y-90297000D01*
X145999845Y-90297000D01*
X145878524Y-90526890D01*
X146048355Y-90936924D01*
X146438642Y-91365183D01*
X146568478Y-91426157D01*
X146249375Y-91639375D01*
X145921161Y-92130582D01*
X145805908Y-92710000D01*
X145921161Y-93289418D01*
X146249375Y-93780625D01*
X146547761Y-93980000D01*
X146249375Y-94179375D01*
X145921161Y-94670582D01*
X145805908Y-95250000D01*
X145921161Y-95829418D01*
X146249375Y-96320625D01*
X146547761Y-96520000D01*
X146249375Y-96719375D01*
X145921161Y-97210582D01*
X145805908Y-97790000D01*
X145921161Y-98369418D01*
X146249375Y-98860625D01*
X146547761Y-99060000D01*
X146249375Y-99259375D01*
X145921161Y-99750582D01*
X145805908Y-100330000D01*
X145921161Y-100909418D01*
X146249375Y-101400625D01*
X146740582Y-101728839D01*
X147173744Y-101815000D01*
X147466256Y-101815000D01*
X147899418Y-101728839D01*
X148390625Y-101400625D01*
X148718839Y-100909418D01*
X148834092Y-100330000D01*
X148718839Y-99750582D01*
X148390625Y-99259375D01*
X148092239Y-99060000D01*
X148390625Y-98860625D01*
X148602474Y-98543571D01*
X148791837Y-98505904D01*
X149043229Y-98337929D01*
X149085631Y-98274470D01*
X149812560Y-97547541D01*
X149812560Y-98535000D01*
X149861843Y-98782765D01*
X149913450Y-98860000D01*
X149861843Y-98937235D01*
X149812560Y-99185000D01*
X149812560Y-100535000D01*
X149861843Y-100782765D01*
X149913450Y-100860000D01*
X149861843Y-100937235D01*
X149812560Y-101185000D01*
X149812560Y-102535000D01*
X149861843Y-102782765D01*
X150002191Y-102992809D01*
X150212235Y-103133157D01*
X150460000Y-103182440D01*
X152260000Y-103182440D01*
X152322541Y-103170000D01*
X152620575Y-103170000D01*
X153102055Y-102970564D01*
X153470564Y-102602055D01*
X153670000Y-102120575D01*
X153670000Y-101599425D01*
X153470564Y-101117945D01*
X153212619Y-100860000D01*
X153470564Y-100602055D01*
X153670000Y-100120575D01*
X153670000Y-99599425D01*
X153470564Y-99117945D01*
X153212619Y-98860000D01*
X153470564Y-98602055D01*
X153670000Y-98120575D01*
X153670000Y-97599425D01*
X153470564Y-97117945D01*
X153212619Y-96860000D01*
X153452619Y-96620000D01*
X153506453Y-96620000D01*
X153581300Y-96634888D01*
X153656147Y-96620000D01*
X153656152Y-96620000D01*
X153877837Y-96575904D01*
X154129229Y-96407929D01*
X154171631Y-96344470D01*
X156194601Y-94321500D01*
X168235560Y-94321500D01*
X168235560Y-97321500D01*
X168284843Y-97569265D01*
X168425191Y-97779309D01*
X168635235Y-97919657D01*
X168883000Y-97968940D01*
X171883000Y-97968940D01*
X172130765Y-97919657D01*
X172340809Y-97779309D01*
X172481157Y-97569265D01*
X172530440Y-97321500D01*
X172530440Y-94321500D01*
X172481157Y-94073735D01*
X172340809Y-93863691D01*
X172130765Y-93723343D01*
X171883000Y-93674060D01*
X168883000Y-93674060D01*
X168635235Y-93723343D01*
X168425191Y-93863691D01*
X168284843Y-94073735D01*
X168235560Y-94321500D01*
X156194601Y-94321500D01*
X166717642Y-83798459D01*
X166770493Y-83851310D01*
X167334670Y-84085000D01*
X167945330Y-84085000D01*
X168509507Y-83851310D01*
X168910000Y-83450817D01*
X169310493Y-83851310D01*
X169874670Y-84085000D01*
X170485330Y-84085000D01*
X171049507Y-83851310D01*
X171481310Y-83419507D01*
X171715000Y-82855330D01*
X171715000Y-82244670D01*
X171481310Y-81680493D01*
X171080817Y-81280000D01*
X171481310Y-80879507D01*
X171715000Y-80315330D01*
X171715000Y-79704670D01*
X171481310Y-79140493D01*
X171080817Y-78740000D01*
X171481310Y-78339507D01*
X171715000Y-77775330D01*
X171715000Y-77164670D01*
X171481310Y-76600493D01*
X171080817Y-76200000D01*
X171481310Y-75799507D01*
X171715000Y-75235330D01*
X171715000Y-74624670D01*
X171481310Y-74060493D01*
X171080817Y-73660000D01*
X171481310Y-73259507D01*
X171715000Y-72695330D01*
X171715000Y-72084670D01*
X171481310Y-71520493D01*
X171080817Y-71120000D01*
X171481310Y-70719507D01*
X171715000Y-70155330D01*
X171715000Y-69544670D01*
X171481310Y-68980493D01*
X171080817Y-68580000D01*
X171481310Y-68179507D01*
X171715000Y-67615330D01*
X171715000Y-67004670D01*
X171481310Y-66440493D01*
X171080817Y-66040000D01*
X171481310Y-65639507D01*
X171715000Y-65075330D01*
X171715000Y-64464670D01*
X171481310Y-63900493D01*
X171080817Y-63500000D01*
X171481310Y-63099507D01*
X171715000Y-62535330D01*
X171715000Y-61924670D01*
X171481310Y-61360493D01*
X171080817Y-60960000D01*
X171481310Y-60559507D01*
X171715000Y-59995330D01*
X171715000Y-59384670D01*
X171481310Y-58820493D01*
X171049507Y-58388690D01*
X171029885Y-58380562D01*
X171080554Y-58230159D01*
X170180000Y-57329605D01*
X169279446Y-58230159D01*
X169330115Y-58380562D01*
X169310493Y-58388690D01*
X168878690Y-58820493D01*
X168645000Y-59384670D01*
X168645000Y-59995330D01*
X168878690Y-60559507D01*
X169279183Y-60960000D01*
X168878690Y-61360493D01*
X168645000Y-61924670D01*
X168645000Y-62334183D01*
X168509507Y-62198690D01*
X167945330Y-61965000D01*
X167334670Y-61965000D01*
X166770493Y-62198690D01*
X166338690Y-62630493D01*
X166105000Y-63194670D01*
X166105000Y-63805330D01*
X166338690Y-64369507D01*
X166739183Y-64770000D01*
X166338690Y-65170493D01*
X166105000Y-65734670D01*
X166105000Y-66345330D01*
X166338690Y-66909507D01*
X166770493Y-67341310D01*
X167334670Y-67575000D01*
X167945330Y-67575000D01*
X168509507Y-67341310D01*
X168645000Y-67205817D01*
X168645000Y-67615330D01*
X168878690Y-68179507D01*
X169279183Y-68580000D01*
X168878690Y-68980493D01*
X168645000Y-69544670D01*
X168645000Y-69780199D01*
X166960331Y-68095530D01*
X166917929Y-68032071D01*
X166666537Y-67864096D01*
X166444852Y-67820000D01*
X166444847Y-67820000D01*
X166370000Y-67805112D01*
X166295153Y-67820000D01*
X156390223Y-67820000D01*
X156475000Y-67615330D01*
X156475000Y-67004670D01*
X156241310Y-66440493D01*
X155840817Y-66040000D01*
X156241310Y-65639507D01*
X156475000Y-65075330D01*
X156475000Y-64464670D01*
X156241310Y-63900493D01*
X155809507Y-63468690D01*
X155789885Y-63460562D01*
X155840554Y-63310159D01*
X154940000Y-62409605D01*
X154039446Y-63310159D01*
X154090115Y-63460562D01*
X154070493Y-63468690D01*
X153638690Y-63900493D01*
X153405000Y-64464670D01*
X153405000Y-65075330D01*
X153638690Y-65639507D01*
X154039183Y-66040000D01*
X153638690Y-66440493D01*
X153405000Y-67004670D01*
X153405000Y-67615330D01*
X153499564Y-67843628D01*
X153444805Y-67854520D01*
X153396662Y-67864096D01*
X153277126Y-67943968D01*
X153145271Y-68032071D01*
X153102871Y-68095527D01*
X152764189Y-68434209D01*
X152676387Y-68222236D01*
X152409532Y-68123573D01*
X151436605Y-69096500D01*
X151450748Y-69110643D01*
X151271143Y-69290248D01*
X151257000Y-69276105D01*
X151242858Y-69290248D01*
X151063253Y-69110643D01*
X151077395Y-69096500D01*
X150104468Y-68123573D01*
X149837613Y-68222236D01*
X149611092Y-68831961D01*
X149635144Y-69481960D01*
X149837613Y-69970764D01*
X150104466Y-70069426D01*
X150100492Y-70073400D01*
X145913508Y-70073400D01*
X145909534Y-70069426D01*
X146176387Y-69970764D01*
X146402908Y-69361039D01*
X146378856Y-68711040D01*
X146176387Y-68222236D01*
X145909532Y-68123573D01*
X144936605Y-69096500D01*
X144950748Y-69110643D01*
X144771143Y-69290248D01*
X144757000Y-69276105D01*
X144742858Y-69290248D01*
X144563253Y-69110643D01*
X144577395Y-69096500D01*
X143604468Y-68123573D01*
X143337613Y-68222236D01*
X143111092Y-68831961D01*
X143135144Y-69481960D01*
X143337613Y-69970764D01*
X143604466Y-70069426D01*
X143600492Y-70073400D01*
X140967447Y-70073400D01*
X140892600Y-70058512D01*
X140817753Y-70073400D01*
X140817748Y-70073400D01*
X140596063Y-70117496D01*
X140344671Y-70285471D01*
X140302271Y-70348927D01*
X138550199Y-72101000D01*
X137353593Y-72101000D01*
X136949600Y-72181359D01*
X136491471Y-72487471D01*
X136332091Y-72726000D01*
X135147909Y-72726000D01*
X134988529Y-72487471D01*
X134530400Y-72181359D01*
X134126407Y-72101000D01*
X132353593Y-72101000D01*
X131949600Y-72181359D01*
X131491471Y-72487471D01*
X131185359Y-72945600D01*
X131077867Y-73486000D01*
X125170000Y-73486000D01*
X125170000Y-68827185D01*
X131147682Y-68827185D01*
X131161827Y-68898684D01*
X131420855Y-69375540D01*
X131842651Y-69716972D01*
X132363000Y-69871000D01*
X133113000Y-69871000D01*
X133113000Y-68613000D01*
X133367000Y-68613000D01*
X133367000Y-69871000D01*
X134117000Y-69871000D01*
X134637349Y-69716972D01*
X135059145Y-69375540D01*
X135318173Y-68898684D01*
X135332318Y-68827185D01*
X136147682Y-68827185D01*
X136161827Y-68898684D01*
X136420855Y-69375540D01*
X136842651Y-69716972D01*
X137363000Y-69871000D01*
X138113000Y-69871000D01*
X138113000Y-68613000D01*
X138367000Y-68613000D01*
X138367000Y-69871000D01*
X139117000Y-69871000D01*
X139637349Y-69716972D01*
X140059145Y-69375540D01*
X140318173Y-68898684D01*
X140332318Y-68827185D01*
X140209656Y-68613000D01*
X138367000Y-68613000D01*
X138113000Y-68613000D01*
X136270344Y-68613000D01*
X136147682Y-68827185D01*
X135332318Y-68827185D01*
X135209656Y-68613000D01*
X133367000Y-68613000D01*
X133113000Y-68613000D01*
X131270344Y-68613000D01*
X131147682Y-68827185D01*
X125170000Y-68827185D01*
X125170000Y-68144815D01*
X131147682Y-68144815D01*
X131270344Y-68359000D01*
X133113000Y-68359000D01*
X133113000Y-67101000D01*
X133367000Y-67101000D01*
X133367000Y-68359000D01*
X135209656Y-68359000D01*
X135332318Y-68144815D01*
X136147682Y-68144815D01*
X136270344Y-68359000D01*
X138113000Y-68359000D01*
X138113000Y-67101000D01*
X138367000Y-67101000D01*
X138367000Y-68359000D01*
X140209656Y-68359000D01*
X140332318Y-68144815D01*
X140318173Y-68073316D01*
X140247912Y-67943968D01*
X143784073Y-67943968D01*
X144757000Y-68916895D01*
X145729927Y-67943968D01*
X150284073Y-67943968D01*
X151257000Y-68916895D01*
X152229927Y-67943968D01*
X152131264Y-67677113D01*
X151521539Y-67450592D01*
X150871540Y-67474644D01*
X150382736Y-67677113D01*
X150284073Y-67943968D01*
X145729927Y-67943968D01*
X145631264Y-67677113D01*
X145021539Y-67450592D01*
X144371540Y-67474644D01*
X143882736Y-67677113D01*
X143784073Y-67943968D01*
X140247912Y-67943968D01*
X140059145Y-67596460D01*
X139637349Y-67255028D01*
X139117000Y-67101000D01*
X138367000Y-67101000D01*
X138113000Y-67101000D01*
X137363000Y-67101000D01*
X136842651Y-67255028D01*
X136420855Y-67596460D01*
X136161827Y-68073316D01*
X136147682Y-68144815D01*
X135332318Y-68144815D01*
X135318173Y-68073316D01*
X135059145Y-67596460D01*
X134637349Y-67255028D01*
X134117000Y-67101000D01*
X133367000Y-67101000D01*
X133113000Y-67101000D01*
X132363000Y-67101000D01*
X131842651Y-67255028D01*
X131420855Y-67596460D01*
X131161827Y-68073316D01*
X131147682Y-68144815D01*
X125170000Y-68144815D01*
X125170000Y-61989336D01*
X153393542Y-61989336D01*
X153419161Y-62599460D01*
X153603357Y-63044148D01*
X153859841Y-63130554D01*
X154760395Y-62230000D01*
X155119605Y-62230000D01*
X156020159Y-63130554D01*
X156276643Y-63044148D01*
X156486458Y-62470664D01*
X156460839Y-61860540D01*
X156276643Y-61415852D01*
X156020159Y-61329446D01*
X155119605Y-62230000D01*
X154760395Y-62230000D01*
X153859841Y-61329446D01*
X153603357Y-61415852D01*
X153393542Y-61989336D01*
X125170000Y-61989336D01*
X125170000Y-58203509D01*
X126097647Y-59131156D01*
X127507171Y-59715000D01*
X129032829Y-59715000D01*
X130137331Y-59257500D01*
X140045560Y-59257500D01*
X140045560Y-60757500D01*
X140094843Y-61005265D01*
X140235191Y-61215309D01*
X140445235Y-61355657D01*
X140693000Y-61404940D01*
X143693000Y-61404940D01*
X143940765Y-61355657D01*
X144150809Y-61215309D01*
X144291157Y-61005265D01*
X144338451Y-60767500D01*
X145047549Y-60767500D01*
X145094843Y-61005265D01*
X145235191Y-61215309D01*
X145445235Y-61355657D01*
X145693000Y-61404940D01*
X148693000Y-61404940D01*
X148940765Y-61355657D01*
X149150809Y-61215309D01*
X149291157Y-61005265D01*
X149340440Y-60757500D01*
X149340440Y-59257500D01*
X149291157Y-59009735D01*
X149150809Y-58799691D01*
X148940765Y-58659343D01*
X148693000Y-58610060D01*
X145693000Y-58610060D01*
X145445235Y-58659343D01*
X145235191Y-58799691D01*
X145094843Y-59009735D01*
X145047549Y-59247500D01*
X144338451Y-59247500D01*
X144291157Y-59009735D01*
X144150809Y-58799691D01*
X143940765Y-58659343D01*
X143693000Y-58610060D01*
X140693000Y-58610060D01*
X140445235Y-58659343D01*
X140235191Y-58799691D01*
X140094843Y-59009735D01*
X140045560Y-59257500D01*
X130137331Y-59257500D01*
X130442353Y-59131156D01*
X131521156Y-58052353D01*
X132105000Y-56642829D01*
X132105000Y-55348685D01*
X140100682Y-55348685D01*
X140114827Y-55420184D01*
X140373855Y-55897040D01*
X140795651Y-56238472D01*
X141316000Y-56392500D01*
X142066000Y-56392500D01*
X142066000Y-55134500D01*
X142320000Y-55134500D01*
X142320000Y-56392500D01*
X143070000Y-56392500D01*
X143590349Y-56238472D01*
X144012145Y-55897040D01*
X144271173Y-55420184D01*
X144285318Y-55348685D01*
X145100682Y-55348685D01*
X145114827Y-55420184D01*
X145373855Y-55897040D01*
X145795651Y-56238472D01*
X146316000Y-56392500D01*
X147066000Y-56392500D01*
X147066000Y-55134500D01*
X147320000Y-55134500D01*
X147320000Y-56392500D01*
X148070000Y-56392500D01*
X148590349Y-56238472D01*
X149012145Y-55897040D01*
X149271173Y-55420184D01*
X149285318Y-55348685D01*
X149162656Y-55134500D01*
X147320000Y-55134500D01*
X147066000Y-55134500D01*
X145223344Y-55134500D01*
X145100682Y-55348685D01*
X144285318Y-55348685D01*
X144162656Y-55134500D01*
X142320000Y-55134500D01*
X142066000Y-55134500D01*
X140223344Y-55134500D01*
X140100682Y-55348685D01*
X132105000Y-55348685D01*
X132105000Y-55117171D01*
X131918250Y-54666315D01*
X140100682Y-54666315D01*
X140223344Y-54880500D01*
X142066000Y-54880500D01*
X142066000Y-53622500D01*
X142320000Y-53622500D01*
X142320000Y-54880500D01*
X144162656Y-54880500D01*
X144285318Y-54666315D01*
X145100682Y-54666315D01*
X145223344Y-54880500D01*
X147066000Y-54880500D01*
X147066000Y-53622500D01*
X147320000Y-53622500D01*
X147320000Y-54880500D01*
X149162656Y-54880500D01*
X149285318Y-54666315D01*
X149271173Y-54594816D01*
X149012145Y-54117960D01*
X148590349Y-53776528D01*
X148070000Y-53622500D01*
X147320000Y-53622500D01*
X147066000Y-53622500D01*
X146316000Y-53622500D01*
X145795651Y-53776528D01*
X145373855Y-54117960D01*
X145114827Y-54594816D01*
X145100682Y-54666315D01*
X144285318Y-54666315D01*
X144271173Y-54594816D01*
X144012145Y-54117960D01*
X143590349Y-53776528D01*
X143070000Y-53622500D01*
X142320000Y-53622500D01*
X142066000Y-53622500D01*
X141316000Y-53622500D01*
X140795651Y-53776528D01*
X140373855Y-54117960D01*
X140114827Y-54594816D01*
X140100682Y-54666315D01*
X131918250Y-54666315D01*
X131521156Y-53707647D01*
X130442353Y-52628844D01*
X129032829Y-52045000D01*
X127507171Y-52045000D01*
X126097647Y-52628844D01*
X125170000Y-53556491D01*
X125170000Y-52132119D01*
X125214065Y-51882213D01*
X125309405Y-51717080D01*
X125455477Y-51594512D01*
X125664465Y-51518445D01*
X125760996Y-51510000D01*
X152337881Y-51510000D01*
X152587787Y-51554065D01*
X152587787Y-51554065D01*
G37*
X152587787Y-51554065D02*
X152752920Y-51649405D01*
X152875488Y-51795477D01*
X152951555Y-52004465D01*
X152962702Y-52131880D01*
X152981996Y-52352413D01*
X153006003Y-52442010D01*
X153022112Y-52533368D01*
X153172965Y-52947830D01*
X153172966Y-52947835D01*
X153296257Y-53161380D01*
X153579769Y-53499256D01*
X153742978Y-53636205D01*
X153638690Y-53740493D01*
X153405000Y-54304670D01*
X153405000Y-54915330D01*
X153638690Y-55479507D01*
X154039183Y-55880000D01*
X153638690Y-56280493D01*
X153405000Y-56844670D01*
X153405000Y-57455330D01*
X153638690Y-58019507D01*
X154039183Y-58420000D01*
X153638690Y-58820493D01*
X153405000Y-59384670D01*
X153405000Y-59995330D01*
X153638690Y-60559507D01*
X154070493Y-60991310D01*
X154090115Y-60999438D01*
X154039446Y-61149841D01*
X154940000Y-62050395D01*
X155840554Y-61149841D01*
X155789885Y-60999438D01*
X155809507Y-60991310D01*
X156241310Y-60559507D01*
X156475000Y-59995330D01*
X156475000Y-59384670D01*
X156241310Y-58820493D01*
X155840817Y-58420000D01*
X156241310Y-58019507D01*
X156475000Y-57455330D01*
X156475000Y-56909336D01*
X168633542Y-56909336D01*
X168659161Y-57519460D01*
X168843357Y-57964148D01*
X169099841Y-58050554D01*
X170000395Y-57150000D01*
X170359605Y-57150000D01*
X171260159Y-58050554D01*
X171516643Y-57964148D01*
X171726458Y-57390664D01*
X171700839Y-56780540D01*
X171516643Y-56335852D01*
X171260159Y-56249446D01*
X170359605Y-57150000D01*
X170000395Y-57150000D01*
X169099841Y-56249446D01*
X168843357Y-56335852D01*
X168633542Y-56909336D01*
X156475000Y-56909336D01*
X156475000Y-56844670D01*
X156241310Y-56280493D01*
X155840817Y-55880000D01*
X156241310Y-55479507D01*
X156475000Y-54915330D01*
X156475000Y-54304670D01*
X156369512Y-54050000D01*
X168750488Y-54050000D01*
X168645000Y-54304670D01*
X168645000Y-54915330D01*
X168878690Y-55479507D01*
X169310493Y-55911310D01*
X169330115Y-55919438D01*
X169279446Y-56069841D01*
X170180000Y-56970395D01*
X171080554Y-56069841D01*
X171029885Y-55919438D01*
X171049507Y-55911310D01*
X171481310Y-55479507D01*
X171715000Y-54915330D01*
X171715000Y-54304670D01*
X171481310Y-53740493D01*
X171370983Y-53630166D01*
X171609256Y-53430231D01*
X171767754Y-53241340D01*
X171767755Y-53241338D01*
X171988287Y-52859368D01*
X171988288Y-52859366D01*
X171988289Y-52859365D01*
X172072624Y-52627656D01*
X172149214Y-52193289D01*
X172204065Y-51882213D01*
X172299405Y-51717080D01*
X172445477Y-51594512D01*
X172654465Y-51518445D01*
X172750996Y-51510000D01*
X179007881Y-51510000D01*
X179257787Y-51554065D01*
X179422920Y-51649405D01*
X179545488Y-51795477D01*
X179621555Y-52004465D01*
X179630001Y-52101007D01*
X179630001Y-53556492D01*
X178702353Y-52628844D01*
X177292829Y-52045000D01*
X175767171Y-52045000D01*
X174357647Y-52628844D01*
X173278844Y-53707647D01*
X172695000Y-55117171D01*
X172695000Y-56642829D01*
X173278844Y-58052353D01*
X174357647Y-59131156D01*
X175767171Y-59715000D01*
X177292829Y-59715000D01*
X178702353Y-59131156D01*
X179630001Y-58203508D01*
X179630000Y-96736491D01*
X178702353Y-95808844D01*
X177292829Y-95225000D01*
X175767171Y-95225000D01*
X174357647Y-95808844D01*
X173278844Y-96887647D01*
X172695000Y-98297171D01*
X172695000Y-99822829D01*
X173278844Y-101232353D01*
X174357647Y-102311156D01*
X175767171Y-102895000D01*
X177292829Y-102895000D01*
X178702353Y-102311156D01*
X179630000Y-101383509D01*
X179630000Y-102807881D01*
X179585935Y-103057787D01*
X179490596Y-103222919D01*
X179344524Y-103345488D01*
X179135532Y-103421555D01*
X179039004Y-103430000D01*
X125792119Y-103430000D01*
X125542213Y-103385935D01*
X125377081Y-103290596D01*
X125254512Y-103144524D01*
X125178445Y-102935532D01*
X125170000Y-102839004D01*
X125170000Y-101383509D01*
X126097647Y-102311156D01*
X127507171Y-102895000D01*
X129032829Y-102895000D01*
X130442353Y-102311156D01*
X131521156Y-101232353D01*
X132105000Y-99822829D01*
X132105000Y-98297171D01*
X131521156Y-96887647D01*
X130442353Y-95808844D01*
X129032829Y-95225000D01*
X127507171Y-95225000D01*
X126097647Y-95808844D01*
X125170000Y-96736491D01*
X125170000Y-90551000D01*
X141169908Y-90551000D01*
X141285161Y-91130418D01*
X141613375Y-91621625D01*
X141631619Y-91633816D01*
X141586235Y-91642843D01*
X141376191Y-91783191D01*
X141235843Y-91993235D01*
X141186560Y-92241000D01*
X141186560Y-93941000D01*
X141235843Y-94188765D01*
X141376191Y-94398809D01*
X141586235Y-94539157D01*
X141834000Y-94588440D01*
X143534000Y-94588440D01*
X143781765Y-94539157D01*
X143991809Y-94398809D01*
X144132157Y-94188765D01*
X144181440Y-93941000D01*
X144181440Y-92241000D01*
X144132157Y-91993235D01*
X143991809Y-91783191D01*
X143781765Y-91642843D01*
X143736381Y-91633816D01*
X143754625Y-91621625D01*
X144082839Y-91130418D01*
X144198092Y-90551000D01*
X144082839Y-89971582D01*
X143754625Y-89480375D01*
X143435522Y-89267157D01*
X143565358Y-89206183D01*
X143955645Y-88777924D01*
X144125476Y-88367890D01*
X144004155Y-88138000D01*
X142811000Y-88138000D01*
X142811000Y-88158000D01*
X142557000Y-88158000D01*
X142557000Y-88138000D01*
X141363845Y-88138000D01*
X141242524Y-88367890D01*
X141412355Y-88777924D01*
X141802642Y-89206183D01*
X141932478Y-89267157D01*
X141613375Y-89480375D01*
X141285161Y-89971582D01*
X141169908Y-90551000D01*
X125170000Y-90551000D01*
X125170000Y-85471000D01*
X141169908Y-85471000D01*
X141285161Y-86050418D01*
X141613375Y-86541625D01*
X141932478Y-86754843D01*
X141802642Y-86815817D01*
X141412355Y-87244076D01*
X141242524Y-87654110D01*
X141363845Y-87884000D01*
X142557000Y-87884000D01*
X142557000Y-87864000D01*
X142811000Y-87864000D01*
X142811000Y-87884000D01*
X144004155Y-87884000D01*
X144125476Y-87654110D01*
X143955645Y-87244076D01*
X143565358Y-86815817D01*
X143435522Y-86754843D01*
X143754625Y-86541625D01*
X144082839Y-86050418D01*
X144198092Y-85471000D01*
X144082839Y-84891582D01*
X143754625Y-84400375D01*
X143263418Y-84072161D01*
X142830256Y-83986000D01*
X142537744Y-83986000D01*
X142104582Y-84072161D01*
X141613375Y-84400375D01*
X141285161Y-84891582D01*
X141169908Y-85471000D01*
X125170000Y-85471000D01*
X125170000Y-81520765D01*
X149366870Y-81520765D01*
X150050000Y-82203895D01*
X150733130Y-81520765D01*
X150683617Y-81295336D01*
X150218964Y-81135693D01*
X149728587Y-81166018D01*
X149416383Y-81295336D01*
X149366870Y-81520765D01*
X125170000Y-81520765D01*
X125170000Y-77736000D01*
X131092560Y-77736000D01*
X131092560Y-79236000D01*
X131141843Y-79483765D01*
X131282191Y-79693809D01*
X131492235Y-79834157D01*
X131740000Y-79883440D01*
X134740000Y-79883440D01*
X134987765Y-79834157D01*
X135197809Y-79693809D01*
X135338157Y-79483765D01*
X135385451Y-79246000D01*
X136094549Y-79246000D01*
X136141843Y-79483765D01*
X136282191Y-79693809D01*
X136492235Y-79834157D01*
X136740000Y-79883440D01*
X139740000Y-79883440D01*
X139987765Y-79834157D01*
X140197809Y-79693809D01*
X140338157Y-79483765D01*
X140387440Y-79236000D01*
X140387440Y-77736000D01*
X140338157Y-77488235D01*
X140197809Y-77278191D01*
X139987765Y-77137843D01*
X139740000Y-77088560D01*
X136740000Y-77088560D01*
X136492235Y-77137843D01*
X136282191Y-77278191D01*
X136141843Y-77488235D01*
X136094549Y-77726000D01*
X135385451Y-77726000D01*
X135338157Y-77488235D01*
X135197809Y-77278191D01*
X134987765Y-77137843D01*
X134740000Y-77088560D01*
X131740000Y-77088560D01*
X131492235Y-77137843D01*
X131282191Y-77278191D01*
X131141843Y-77488235D01*
X131092560Y-77736000D01*
X125170000Y-77736000D01*
X125170000Y-73486000D01*
X131077867Y-73486000D01*
X131185359Y-74026400D01*
X131491471Y-74484529D01*
X131949600Y-74790641D01*
X132353593Y-74871000D01*
X134126407Y-74871000D01*
X134530400Y-74790641D01*
X134988529Y-74484529D01*
X135147909Y-74246000D01*
X136332091Y-74246000D01*
X136491471Y-74484529D01*
X136949600Y-74790641D01*
X137353593Y-74871000D01*
X139126407Y-74871000D01*
X139530400Y-74790641D01*
X139988529Y-74484529D01*
X140294641Y-74026400D01*
X140402133Y-73486000D01*
X140294641Y-72945600D01*
X140118626Y-72682175D01*
X141207402Y-71593400D01*
X143783498Y-71593400D01*
X142932630Y-72444269D01*
X142869171Y-72486671D01*
X142701196Y-72738064D01*
X142657100Y-72959749D01*
X142657100Y-72959753D01*
X142642212Y-73034600D01*
X142657100Y-73109447D01*
X142657101Y-75524248D01*
X142642212Y-75599100D01*
X142701197Y-75895637D01*
X142727499Y-75935000D01*
X142869172Y-76147029D01*
X142932628Y-76189429D01*
X143493897Y-76750698D01*
X143472000Y-76803561D01*
X143472000Y-77374439D01*
X143690466Y-77901862D01*
X144094138Y-78305534D01*
X144224168Y-78359394D01*
X143872423Y-78594423D01*
X143555260Y-79069091D01*
X143443887Y-79629000D01*
X143555260Y-80188909D01*
X143872423Y-80663577D01*
X144347091Y-80980740D01*
X144765667Y-81064000D01*
X145048333Y-81064000D01*
X145466909Y-80980740D01*
X145941577Y-80663577D01*
X146125043Y-80389000D01*
X149274683Y-80389000D01*
X149498493Y-80612810D01*
X150062670Y-80846500D01*
X150673330Y-80846500D01*
X151237507Y-80612810D01*
X151669310Y-80181007D01*
X151903000Y-79616830D01*
X151903000Y-79006170D01*
X151669310Y-78441993D01*
X151492956Y-78265639D01*
X151627699Y-78209827D01*
X151806327Y-78031198D01*
X151903000Y-77797809D01*
X151903000Y-77057250D01*
X151744250Y-76898500D01*
X150495000Y-76898500D01*
X150495000Y-76918500D01*
X150241000Y-76918500D01*
X150241000Y-76898500D01*
X148991750Y-76898500D01*
X148833000Y-77057250D01*
X148833000Y-77797809D01*
X148929673Y-78031198D01*
X149108301Y-78209827D01*
X149243044Y-78265639D01*
X149066690Y-78441993D01*
X148889818Y-78869000D01*
X146125043Y-78869000D01*
X145941577Y-78594423D01*
X145589832Y-78359394D01*
X145719862Y-78305534D01*
X146123534Y-77901862D01*
X146342000Y-77374439D01*
X146342000Y-76803561D01*
X146123534Y-76276138D01*
X145719862Y-75872466D01*
X145412594Y-75745191D01*
X148833000Y-75745191D01*
X148833000Y-76485750D01*
X148991750Y-76644500D01*
X150241000Y-76644500D01*
X150241000Y-75395250D01*
X150495000Y-75395250D01*
X150495000Y-76644500D01*
X151744250Y-76644500D01*
X151903000Y-76485750D01*
X151903000Y-75745191D01*
X151806327Y-75511802D01*
X151627699Y-75333173D01*
X151394310Y-75236500D01*
X150653750Y-75236500D01*
X150495000Y-75395250D01*
X150241000Y-75395250D01*
X150082250Y-75236500D01*
X149341690Y-75236500D01*
X149108301Y-75333173D01*
X148929673Y-75511802D01*
X148833000Y-75745191D01*
X145412594Y-75745191D01*
X145192439Y-75654000D01*
X144621561Y-75654000D01*
X144568698Y-75675897D01*
X144177100Y-75284299D01*
X144177100Y-75126009D01*
X144431778Y-75231500D01*
X145082222Y-75231500D01*
X145683153Y-74982586D01*
X146143086Y-74522653D01*
X146211909Y-74356500D01*
X149802091Y-74356500D01*
X149870914Y-74522653D01*
X150330847Y-74982586D01*
X150931778Y-75231500D01*
X151582222Y-75231500D01*
X151748375Y-75162677D01*
X151947401Y-75361704D01*
X151947400Y-77702553D01*
X151932512Y-77777400D01*
X151947400Y-77852247D01*
X151947400Y-77852251D01*
X151991496Y-78073936D01*
X152159471Y-78325329D01*
X152222930Y-78367731D01*
X153450360Y-79595162D01*
X153405000Y-79704670D01*
X153405000Y-80315330D01*
X153638690Y-80879507D01*
X154039183Y-81280000D01*
X153638690Y-81680493D01*
X153405000Y-82244670D01*
X153405000Y-82855330D01*
X153638690Y-83419507D01*
X154070493Y-83851310D01*
X154634670Y-84085000D01*
X155245330Y-84085000D01*
X155809507Y-83851310D01*
X156241310Y-83419507D01*
X156475000Y-82855330D01*
X156475000Y-82244670D01*
X156241310Y-81680493D01*
X155840817Y-81280000D01*
X156241310Y-80879507D01*
X156475000Y-80315330D01*
X156475000Y-79704670D01*
X156241310Y-79140493D01*
X155840817Y-78740000D01*
X156241310Y-78339507D01*
X156475000Y-77775330D01*
X156475000Y-77164670D01*
X156241310Y-76600493D01*
X155840817Y-76200000D01*
X156241310Y-75799507D01*
X156475000Y-75235330D01*
X156475000Y-74624670D01*
X156241310Y-74060493D01*
X155840817Y-73660000D01*
X156241310Y-73259507D01*
X156475000Y-72695330D01*
X156475000Y-72084670D01*
X156241310Y-71520493D01*
X155840817Y-71120000D01*
X156241310Y-70719507D01*
X156475000Y-70155330D01*
X156475000Y-69544670D01*
X156390223Y-69340000D01*
X166055199Y-69340000D01*
X168690360Y-71975162D01*
X168645000Y-72084670D01*
X168645000Y-72494183D01*
X168509507Y-72358690D01*
X167945330Y-72125000D01*
X167334670Y-72125000D01*
X166770493Y-72358690D01*
X166338690Y-72790493D01*
X166105000Y-73354670D01*
X166105000Y-73965330D01*
X166338690Y-74529507D01*
X166739183Y-74930000D01*
X166338690Y-75330493D01*
X166105000Y-75894670D01*
X166105000Y-76505330D01*
X166338690Y-77069507D01*
X166770493Y-77501310D01*
X166930508Y-77567590D01*
X161743330Y-82754769D01*
X161679871Y-82797171D01*
X161511896Y-83048564D01*
X161467800Y-83270249D01*
X161467800Y-83270253D01*
X161452912Y-83345100D01*
X161467800Y-83419947D01*
X161467800Y-83677398D01*
X153633615Y-91511584D01*
X153470564Y-91117945D01*
X153102055Y-90749436D01*
X153047045Y-90726650D01*
X152895000Y-90574605D01*
X152895000Y-90215395D01*
X153277147Y-90597542D01*
X153510328Y-90538781D01*
X153682522Y-90046900D01*
X153653375Y-89526566D01*
X153510328Y-89181219D01*
X153277147Y-89122458D01*
X152895000Y-89504605D01*
X152895000Y-89145395D01*
X153047045Y-88993350D01*
X153102055Y-88970564D01*
X153470564Y-88602055D01*
X153670000Y-88120575D01*
X153670000Y-87599425D01*
X153470564Y-87117945D01*
X153102055Y-86749436D01*
X152620575Y-86550000D01*
X152322541Y-86550000D01*
X152260000Y-86537560D01*
X150810000Y-86537560D01*
X150810000Y-85099114D01*
X150897765Y-85081657D01*
X151107809Y-84941309D01*
X151248157Y-84731265D01*
X151297440Y-84483500D01*
X151297440Y-83283500D01*
X151248157Y-83035735D01*
X151171291Y-82920698D01*
X151297807Y-82552464D01*
X151267482Y-82062087D01*
X151138164Y-81749883D01*
X150912735Y-81700370D01*
X150229605Y-82383500D01*
X150243748Y-82397643D01*
X150064143Y-82577248D01*
X150050000Y-82563105D01*
X150035858Y-82577248D01*
X149856253Y-82397643D01*
X149870395Y-82383500D01*
X149187265Y-81700370D01*
X148961836Y-81749883D01*
X148802193Y-82214536D01*
X148832518Y-82704913D01*
X148924505Y-82926990D01*
X148851843Y-83035735D01*
X148802560Y-83283500D01*
X148802560Y-84483500D01*
X148851843Y-84731265D01*
X148992191Y-84941309D01*
X149202235Y-85081657D01*
X149290001Y-85099114D01*
X149290000Y-86870000D01*
X148817440Y-86870000D01*
X148817440Y-86780000D01*
X148768157Y-86532235D01*
X148627809Y-86322191D01*
X148417765Y-86181843D01*
X148170000Y-86132560D01*
X146470000Y-86132560D01*
X146222235Y-86181843D01*
X146012191Y-86322191D01*
X145871843Y-86532235D01*
X145822560Y-86780000D01*
X145822560Y-88480000D01*
X145871843Y-88727765D01*
X146012191Y-88937809D01*
X146222235Y-89078157D01*
X146325708Y-89098739D01*
X146048355Y-89403076D01*
X145878524Y-89813110D01*
X145999845Y-90043000D01*
X147193000Y-90043000D01*
X147193000Y-90023000D01*
X147447000Y-90023000D01*
X147447000Y-90043000D01*
X148640155Y-90043000D01*
X148761476Y-89813110D01*
X148591645Y-89403076D01*
X148314292Y-89098739D01*
X148417765Y-89078157D01*
X148627809Y-88937809D01*
X148768157Y-88727765D01*
X148817440Y-88480000D01*
X148817440Y-88390000D01*
X149574791Y-88390000D01*
X149586771Y-88407929D01*
X149818019Y-88562444D01*
X149861843Y-88782765D01*
X149909654Y-88854318D01*
X149825000Y-89058690D01*
X149825000Y-89574250D01*
X149983750Y-89733000D01*
X151040833Y-89733000D01*
X151055061Y-89987000D01*
X149983750Y-89987000D01*
X149825000Y-90145750D01*
X149825000Y-90661310D01*
X149909654Y-90865682D01*
X149861843Y-90937235D01*
X149829467Y-91100000D01*
X149420148Y-91100000D01*
X149345300Y-91085112D01*
X149270452Y-91100000D01*
X149270448Y-91100000D01*
X149048763Y-91144096D01*
X148797371Y-91312071D01*
X148754971Y-91375527D01*
X148430879Y-91699619D01*
X148390625Y-91639375D01*
X148071522Y-91426157D01*
X148201358Y-91365183D01*
X148591645Y-90936924D01*
X148761476Y-90526890D01*
X148640155Y-90297000D01*
X147447000Y-90297000D01*
X147447000Y-90317000D01*
X147193000Y-90317000D01*
X147193000Y-90297000D01*
X145999845Y-90297000D01*
X145878524Y-90526890D01*
X146048355Y-90936924D01*
X146438642Y-91365183D01*
X146568478Y-91426157D01*
X146249375Y-91639375D01*
X145921161Y-92130582D01*
X145805908Y-92710000D01*
X145921161Y-93289418D01*
X146249375Y-93780625D01*
X146547761Y-93980000D01*
X146249375Y-94179375D01*
X145921161Y-94670582D01*
X145805908Y-95250000D01*
X145921161Y-95829418D01*
X146249375Y-96320625D01*
X146547761Y-96520000D01*
X146249375Y-96719375D01*
X145921161Y-97210582D01*
X145805908Y-97790000D01*
X145921161Y-98369418D01*
X146249375Y-98860625D01*
X146547761Y-99060000D01*
X146249375Y-99259375D01*
X145921161Y-99750582D01*
X145805908Y-100330000D01*
X145921161Y-100909418D01*
X146249375Y-101400625D01*
X146740582Y-101728839D01*
X147173744Y-101815000D01*
X147466256Y-101815000D01*
X147899418Y-101728839D01*
X148390625Y-101400625D01*
X148718839Y-100909418D01*
X148834092Y-100330000D01*
X148718839Y-99750582D01*
X148390625Y-99259375D01*
X148092239Y-99060000D01*
X148390625Y-98860625D01*
X148602474Y-98543571D01*
X148791837Y-98505904D01*
X149043229Y-98337929D01*
X149085631Y-98274470D01*
X149812560Y-97547541D01*
X149812560Y-98535000D01*
X149861843Y-98782765D01*
X149913450Y-98860000D01*
X149861843Y-98937235D01*
X149812560Y-99185000D01*
X149812560Y-100535000D01*
X149861843Y-100782765D01*
X149913450Y-100860000D01*
X149861843Y-100937235D01*
X149812560Y-101185000D01*
X149812560Y-102535000D01*
X149861843Y-102782765D01*
X150002191Y-102992809D01*
X150212235Y-103133157D01*
X150460000Y-103182440D01*
X152260000Y-103182440D01*
X152322541Y-103170000D01*
X152620575Y-103170000D01*
X153102055Y-102970564D01*
X153470564Y-102602055D01*
X153670000Y-102120575D01*
X153670000Y-101599425D01*
X153470564Y-101117945D01*
X153212619Y-100860000D01*
X153470564Y-100602055D01*
X153670000Y-100120575D01*
X153670000Y-99599425D01*
X153470564Y-99117945D01*
X153212619Y-98860000D01*
X153470564Y-98602055D01*
X153670000Y-98120575D01*
X153670000Y-97599425D01*
X153470564Y-97117945D01*
X153212619Y-96860000D01*
X153452619Y-96620000D01*
X153506453Y-96620000D01*
X153581300Y-96634888D01*
X153656147Y-96620000D01*
X153656152Y-96620000D01*
X153877837Y-96575904D01*
X154129229Y-96407929D01*
X154171631Y-96344470D01*
X156194601Y-94321500D01*
X168235560Y-94321500D01*
X168235560Y-97321500D01*
X168284843Y-97569265D01*
X168425191Y-97779309D01*
X168635235Y-97919657D01*
X168883000Y-97968940D01*
X171883000Y-97968940D01*
X172130765Y-97919657D01*
X172340809Y-97779309D01*
X172481157Y-97569265D01*
X172530440Y-97321500D01*
X172530440Y-94321500D01*
X172481157Y-94073735D01*
X172340809Y-93863691D01*
X172130765Y-93723343D01*
X171883000Y-93674060D01*
X168883000Y-93674060D01*
X168635235Y-93723343D01*
X168425191Y-93863691D01*
X168284843Y-94073735D01*
X168235560Y-94321500D01*
X156194601Y-94321500D01*
X166717642Y-83798459D01*
X166770493Y-83851310D01*
X167334670Y-84085000D01*
X167945330Y-84085000D01*
X168509507Y-83851310D01*
X168910000Y-83450817D01*
X169310493Y-83851310D01*
X169874670Y-84085000D01*
X170485330Y-84085000D01*
X171049507Y-83851310D01*
X171481310Y-83419507D01*
X171715000Y-82855330D01*
X171715000Y-82244670D01*
X171481310Y-81680493D01*
X171080817Y-81280000D01*
X171481310Y-80879507D01*
X171715000Y-80315330D01*
X171715000Y-79704670D01*
X171481310Y-79140493D01*
X171080817Y-78740000D01*
X171481310Y-78339507D01*
X171715000Y-77775330D01*
X171715000Y-77164670D01*
X171481310Y-76600493D01*
X171080817Y-76200000D01*
X171481310Y-75799507D01*
X171715000Y-75235330D01*
X171715000Y-74624670D01*
X171481310Y-74060493D01*
X171080817Y-73660000D01*
X171481310Y-73259507D01*
X171715000Y-72695330D01*
X171715000Y-72084670D01*
X171481310Y-71520493D01*
X171080817Y-71120000D01*
X171481310Y-70719507D01*
X171715000Y-70155330D01*
X171715000Y-69544670D01*
X171481310Y-68980493D01*
X171080817Y-68580000D01*
X171481310Y-68179507D01*
X171715000Y-67615330D01*
X171715000Y-67004670D01*
X171481310Y-66440493D01*
X171080817Y-66040000D01*
X171481310Y-65639507D01*
X171715000Y-65075330D01*
X171715000Y-64464670D01*
X171481310Y-63900493D01*
X171080817Y-63500000D01*
X171481310Y-63099507D01*
X171715000Y-62535330D01*
X171715000Y-61924670D01*
X171481310Y-61360493D01*
X171080817Y-60960000D01*
X171481310Y-60559507D01*
X171715000Y-59995330D01*
X171715000Y-59384670D01*
X171481310Y-58820493D01*
X171049507Y-58388690D01*
X171029885Y-58380562D01*
X171080554Y-58230159D01*
X170180000Y-57329605D01*
X169279446Y-58230159D01*
X169330115Y-58380562D01*
X169310493Y-58388690D01*
X168878690Y-58820493D01*
X168645000Y-59384670D01*
X168645000Y-59995330D01*
X168878690Y-60559507D01*
X169279183Y-60960000D01*
X168878690Y-61360493D01*
X168645000Y-61924670D01*
X168645000Y-62334183D01*
X168509507Y-62198690D01*
X167945330Y-61965000D01*
X167334670Y-61965000D01*
X166770493Y-62198690D01*
X166338690Y-62630493D01*
X166105000Y-63194670D01*
X166105000Y-63805330D01*
X166338690Y-64369507D01*
X166739183Y-64770000D01*
X166338690Y-65170493D01*
X166105000Y-65734670D01*
X166105000Y-66345330D01*
X166338690Y-66909507D01*
X166770493Y-67341310D01*
X167334670Y-67575000D01*
X167945330Y-67575000D01*
X168509507Y-67341310D01*
X168645000Y-67205817D01*
X168645000Y-67615330D01*
X168878690Y-68179507D01*
X169279183Y-68580000D01*
X168878690Y-68980493D01*
X168645000Y-69544670D01*
X168645000Y-69780199D01*
X166960331Y-68095530D01*
X166917929Y-68032071D01*
X166666537Y-67864096D01*
X166444852Y-67820000D01*
X166444847Y-67820000D01*
X166370000Y-67805112D01*
X166295153Y-67820000D01*
X156390223Y-67820000D01*
X156475000Y-67615330D01*
X156475000Y-67004670D01*
X156241310Y-66440493D01*
X155840817Y-66040000D01*
X156241310Y-65639507D01*
X156475000Y-65075330D01*
X156475000Y-64464670D01*
X156241310Y-63900493D01*
X155809507Y-63468690D01*
X155789885Y-63460562D01*
X155840554Y-63310159D01*
X154940000Y-62409605D01*
X154039446Y-63310159D01*
X154090115Y-63460562D01*
X154070493Y-63468690D01*
X153638690Y-63900493D01*
X153405000Y-64464670D01*
X153405000Y-65075330D01*
X153638690Y-65639507D01*
X154039183Y-66040000D01*
X153638690Y-66440493D01*
X153405000Y-67004670D01*
X153405000Y-67615330D01*
X153499564Y-67843628D01*
X153444805Y-67854520D01*
X153396662Y-67864096D01*
X153277126Y-67943968D01*
X153145271Y-68032071D01*
X153102871Y-68095527D01*
X152764189Y-68434209D01*
X152676387Y-68222236D01*
X152409532Y-68123573D01*
X151436605Y-69096500D01*
X151450748Y-69110643D01*
X151271143Y-69290248D01*
X151257000Y-69276105D01*
X151242858Y-69290248D01*
X151063253Y-69110643D01*
X151077395Y-69096500D01*
X150104468Y-68123573D01*
X149837613Y-68222236D01*
X149611092Y-68831961D01*
X149635144Y-69481960D01*
X149837613Y-69970764D01*
X150104466Y-70069426D01*
X150100492Y-70073400D01*
X145913508Y-70073400D01*
X145909534Y-70069426D01*
X146176387Y-69970764D01*
X146402908Y-69361039D01*
X146378856Y-68711040D01*
X146176387Y-68222236D01*
X145909532Y-68123573D01*
X144936605Y-69096500D01*
X144950748Y-69110643D01*
X144771143Y-69290248D01*
X144757000Y-69276105D01*
X144742858Y-69290248D01*
X144563253Y-69110643D01*
X144577395Y-69096500D01*
X143604468Y-68123573D01*
X143337613Y-68222236D01*
X143111092Y-68831961D01*
X143135144Y-69481960D01*
X143337613Y-69970764D01*
X143604466Y-70069426D01*
X143600492Y-70073400D01*
X140967447Y-70073400D01*
X140892600Y-70058512D01*
X140817753Y-70073400D01*
X140817748Y-70073400D01*
X140596063Y-70117496D01*
X140344671Y-70285471D01*
X140302271Y-70348927D01*
X138550199Y-72101000D01*
X137353593Y-72101000D01*
X136949600Y-72181359D01*
X136491471Y-72487471D01*
X136332091Y-72726000D01*
X135147909Y-72726000D01*
X134988529Y-72487471D01*
X134530400Y-72181359D01*
X134126407Y-72101000D01*
X132353593Y-72101000D01*
X131949600Y-72181359D01*
X131491471Y-72487471D01*
X131185359Y-72945600D01*
X131077867Y-73486000D01*
X125170000Y-73486000D01*
X125170000Y-68827185D01*
X131147682Y-68827185D01*
X131161827Y-68898684D01*
X131420855Y-69375540D01*
X131842651Y-69716972D01*
X132363000Y-69871000D01*
X133113000Y-69871000D01*
X133113000Y-68613000D01*
X133367000Y-68613000D01*
X133367000Y-69871000D01*
X134117000Y-69871000D01*
X134637349Y-69716972D01*
X135059145Y-69375540D01*
X135318173Y-68898684D01*
X135332318Y-68827185D01*
X136147682Y-68827185D01*
X136161827Y-68898684D01*
X136420855Y-69375540D01*
X136842651Y-69716972D01*
X137363000Y-69871000D01*
X138113000Y-69871000D01*
X138113000Y-68613000D01*
X138367000Y-68613000D01*
X138367000Y-69871000D01*
X139117000Y-69871000D01*
X139637349Y-69716972D01*
X140059145Y-69375540D01*
X140318173Y-68898684D01*
X140332318Y-68827185D01*
X140209656Y-68613000D01*
X138367000Y-68613000D01*
X138113000Y-68613000D01*
X136270344Y-68613000D01*
X136147682Y-68827185D01*
X135332318Y-68827185D01*
X135209656Y-68613000D01*
X133367000Y-68613000D01*
X133113000Y-68613000D01*
X131270344Y-68613000D01*
X131147682Y-68827185D01*
X125170000Y-68827185D01*
X125170000Y-68144815D01*
X131147682Y-68144815D01*
X131270344Y-68359000D01*
X133113000Y-68359000D01*
X133113000Y-67101000D01*
X133367000Y-67101000D01*
X133367000Y-68359000D01*
X135209656Y-68359000D01*
X135332318Y-68144815D01*
X136147682Y-68144815D01*
X136270344Y-68359000D01*
X138113000Y-68359000D01*
X138113000Y-67101000D01*
X138367000Y-67101000D01*
X138367000Y-68359000D01*
X140209656Y-68359000D01*
X140332318Y-68144815D01*
X140318173Y-68073316D01*
X140247912Y-67943968D01*
X143784073Y-67943968D01*
X144757000Y-68916895D01*
X145729927Y-67943968D01*
X150284073Y-67943968D01*
X151257000Y-68916895D01*
X152229927Y-67943968D01*
X152131264Y-67677113D01*
X151521539Y-67450592D01*
X150871540Y-67474644D01*
X150382736Y-67677113D01*
X150284073Y-67943968D01*
X145729927Y-67943968D01*
X145631264Y-67677113D01*
X145021539Y-67450592D01*
X144371540Y-67474644D01*
X143882736Y-67677113D01*
X143784073Y-67943968D01*
X140247912Y-67943968D01*
X140059145Y-67596460D01*
X139637349Y-67255028D01*
X139117000Y-67101000D01*
X138367000Y-67101000D01*
X138113000Y-67101000D01*
X137363000Y-67101000D01*
X136842651Y-67255028D01*
X136420855Y-67596460D01*
X136161827Y-68073316D01*
X136147682Y-68144815D01*
X135332318Y-68144815D01*
X135318173Y-68073316D01*
X135059145Y-67596460D01*
X134637349Y-67255028D01*
X134117000Y-67101000D01*
X133367000Y-67101000D01*
X133113000Y-67101000D01*
X132363000Y-67101000D01*
X131842651Y-67255028D01*
X131420855Y-67596460D01*
X131161827Y-68073316D01*
X131147682Y-68144815D01*
X125170000Y-68144815D01*
X125170000Y-61989336D01*
X153393542Y-61989336D01*
X153419161Y-62599460D01*
X153603357Y-63044148D01*
X153859841Y-63130554D01*
X154760395Y-62230000D01*
X155119605Y-62230000D01*
X156020159Y-63130554D01*
X156276643Y-63044148D01*
X156486458Y-62470664D01*
X156460839Y-61860540D01*
X156276643Y-61415852D01*
X156020159Y-61329446D01*
X155119605Y-62230000D01*
X154760395Y-62230000D01*
X153859841Y-61329446D01*
X153603357Y-61415852D01*
X153393542Y-61989336D01*
X125170000Y-61989336D01*
X125170000Y-58203509D01*
X126097647Y-59131156D01*
X127507171Y-59715000D01*
X129032829Y-59715000D01*
X130137331Y-59257500D01*
X140045560Y-59257500D01*
X140045560Y-60757500D01*
X140094843Y-61005265D01*
X140235191Y-61215309D01*
X140445235Y-61355657D01*
X140693000Y-61404940D01*
X143693000Y-61404940D01*
X143940765Y-61355657D01*
X144150809Y-61215309D01*
X144291157Y-61005265D01*
X144338451Y-60767500D01*
X145047549Y-60767500D01*
X145094843Y-61005265D01*
X145235191Y-61215309D01*
X145445235Y-61355657D01*
X145693000Y-61404940D01*
X148693000Y-61404940D01*
X148940765Y-61355657D01*
X149150809Y-61215309D01*
X149291157Y-61005265D01*
X149340440Y-60757500D01*
X149340440Y-59257500D01*
X149291157Y-59009735D01*
X149150809Y-58799691D01*
X148940765Y-58659343D01*
X148693000Y-58610060D01*
X145693000Y-58610060D01*
X145445235Y-58659343D01*
X145235191Y-58799691D01*
X145094843Y-59009735D01*
X145047549Y-59247500D01*
X144338451Y-59247500D01*
X144291157Y-59009735D01*
X144150809Y-58799691D01*
X143940765Y-58659343D01*
X143693000Y-58610060D01*
X140693000Y-58610060D01*
X140445235Y-58659343D01*
X140235191Y-58799691D01*
X140094843Y-59009735D01*
X140045560Y-59257500D01*
X130137331Y-59257500D01*
X130442353Y-59131156D01*
X131521156Y-58052353D01*
X132105000Y-56642829D01*
X132105000Y-55348685D01*
X140100682Y-55348685D01*
X140114827Y-55420184D01*
X140373855Y-55897040D01*
X140795651Y-56238472D01*
X141316000Y-56392500D01*
X142066000Y-56392500D01*
X142066000Y-55134500D01*
X142320000Y-55134500D01*
X142320000Y-56392500D01*
X143070000Y-56392500D01*
X143590349Y-56238472D01*
X144012145Y-55897040D01*
X144271173Y-55420184D01*
X144285318Y-55348685D01*
X145100682Y-55348685D01*
X145114827Y-55420184D01*
X145373855Y-55897040D01*
X145795651Y-56238472D01*
X146316000Y-56392500D01*
X147066000Y-56392500D01*
X147066000Y-55134500D01*
X147320000Y-55134500D01*
X147320000Y-56392500D01*
X148070000Y-56392500D01*
X148590349Y-56238472D01*
X149012145Y-55897040D01*
X149271173Y-55420184D01*
X149285318Y-55348685D01*
X149162656Y-55134500D01*
X147320000Y-55134500D01*
X147066000Y-55134500D01*
X145223344Y-55134500D01*
X145100682Y-55348685D01*
X144285318Y-55348685D01*
X144162656Y-55134500D01*
X142320000Y-55134500D01*
X142066000Y-55134500D01*
X140223344Y-55134500D01*
X140100682Y-55348685D01*
X132105000Y-55348685D01*
X132105000Y-55117171D01*
X131918250Y-54666315D01*
X140100682Y-54666315D01*
X140223344Y-54880500D01*
X142066000Y-54880500D01*
X142066000Y-53622500D01*
X142320000Y-53622500D01*
X142320000Y-54880500D01*
X144162656Y-54880500D01*
X144285318Y-54666315D01*
X145100682Y-54666315D01*
X145223344Y-54880500D01*
X147066000Y-54880500D01*
X147066000Y-53622500D01*
X147320000Y-53622500D01*
X147320000Y-54880500D01*
X149162656Y-54880500D01*
X149285318Y-54666315D01*
X149271173Y-54594816D01*
X149012145Y-54117960D01*
X148590349Y-53776528D01*
X148070000Y-53622500D01*
X147320000Y-53622500D01*
X147066000Y-53622500D01*
X146316000Y-53622500D01*
X145795651Y-53776528D01*
X145373855Y-54117960D01*
X145114827Y-54594816D01*
X145100682Y-54666315D01*
X144285318Y-54666315D01*
X144271173Y-54594816D01*
X144012145Y-54117960D01*
X143590349Y-53776528D01*
X143070000Y-53622500D01*
X142320000Y-53622500D01*
X142066000Y-53622500D01*
X141316000Y-53622500D01*
X140795651Y-53776528D01*
X140373855Y-54117960D01*
X140114827Y-54594816D01*
X140100682Y-54666315D01*
X131918250Y-54666315D01*
X131521156Y-53707647D01*
X130442353Y-52628844D01*
X129032829Y-52045000D01*
X127507171Y-52045000D01*
X126097647Y-52628844D01*
X125170000Y-53556491D01*
X125170000Y-52132119D01*
X125214065Y-51882213D01*
X125309405Y-51717080D01*
X125455477Y-51594512D01*
X125664465Y-51518445D01*
X125760996Y-51510000D01*
X152337881Y-51510000D01*
X152587787Y-51554065D01*
G04 #@! TD*
M02*
