G04 #@! TF.GenerationSoftware,KiCad,Pcbnew,(5.0.2)-1*
G04 #@! TF.CreationDate,2019-03-20T19:27:35+01:00*
G04 #@! TF.ProjectId,HB-UNI-Sen-Lev-Vo,48422d55-4e49-42d5-9365-6e2d4c65762d,V1.0.2*
G04 #@! TF.SameCoordinates,Original*
G04 #@! TF.FileFunction,Legend,Bot*
G04 #@! TF.FilePolarity,Positive*
%FSLAX46Y46*%
G04 Gerber Fmt 4.6, Leading zero omitted, Abs format (unit mm)*
G04 Created by KiCad (PCBNEW (5.0.2)-1) date 20.03.2019 19:27:35*
%MOMM*%
%LPD*%
G01*
G04 APERTURE LIST*
%ADD10C,0.187500*%
%ADD11C,0.150000*%
%ADD12C,0.010000*%
%ADD13C,0.120000*%
G04 APERTURE END LIST*
D10*
X175667142Y-79060000D02*
X174767142Y-79060000D01*
X175195714Y-79060000D02*
X175195714Y-79488571D01*
X175667142Y-79488571D02*
X174767142Y-79488571D01*
X175195714Y-80095714D02*
X175238571Y-80202857D01*
X175281428Y-80238571D01*
X175367142Y-80274285D01*
X175495714Y-80274285D01*
X175581428Y-80238571D01*
X175624285Y-80202857D01*
X175667142Y-80131428D01*
X175667142Y-79845714D01*
X174767142Y-79845714D01*
X174767142Y-80095714D01*
X174810000Y-80167142D01*
X174852857Y-80202857D01*
X174938571Y-80238571D01*
X175024285Y-80238571D01*
X175110000Y-80202857D01*
X175152857Y-80167142D01*
X175195714Y-80095714D01*
X175195714Y-79845714D01*
X175324285Y-80595714D02*
X175324285Y-81167142D01*
X175624285Y-81488571D02*
X175667142Y-81595714D01*
X175667142Y-81774285D01*
X175624285Y-81845714D01*
X175581428Y-81881428D01*
X175495714Y-81917142D01*
X175410000Y-81917142D01*
X175324285Y-81881428D01*
X175281428Y-81845714D01*
X175238571Y-81774285D01*
X175195714Y-81631428D01*
X175152857Y-81560000D01*
X175110000Y-81524285D01*
X175024285Y-81488571D01*
X174938571Y-81488571D01*
X174852857Y-81524285D01*
X174810000Y-81560000D01*
X174767142Y-81631428D01*
X174767142Y-81810000D01*
X174810000Y-81917142D01*
X175624285Y-82524285D02*
X175667142Y-82452857D01*
X175667142Y-82310000D01*
X175624285Y-82238571D01*
X175538571Y-82202857D01*
X175195714Y-82202857D01*
X175110000Y-82238571D01*
X175067142Y-82310000D01*
X175067142Y-82452857D01*
X175110000Y-82524285D01*
X175195714Y-82560000D01*
X175281428Y-82560000D01*
X175367142Y-82202857D01*
X175067142Y-82881428D02*
X175667142Y-82881428D01*
X175152857Y-82881428D02*
X175110000Y-82917142D01*
X175067142Y-82988571D01*
X175067142Y-83095714D01*
X175110000Y-83167142D01*
X175195714Y-83202857D01*
X175667142Y-83202857D01*
X175324285Y-83560000D02*
X175324285Y-84131428D01*
X175667142Y-84488571D02*
X174767142Y-84488571D01*
X175410000Y-84738571D01*
X174767142Y-84988571D01*
X175667142Y-84988571D01*
X174767142Y-85345714D02*
X175495714Y-85345714D01*
X175581428Y-85381428D01*
X175624285Y-85417142D01*
X175667142Y-85488571D01*
X175667142Y-85631428D01*
X175624285Y-85702857D01*
X175581428Y-85738571D01*
X175495714Y-85774285D01*
X174767142Y-85774285D01*
X175667142Y-86488571D02*
X175667142Y-86131428D01*
X174767142Y-86131428D01*
X174767142Y-86631428D02*
X174767142Y-87060000D01*
X175667142Y-86845714D02*
X174767142Y-86845714D01*
X175667142Y-87310000D02*
X174767142Y-87310000D01*
D11*
G04 #@! TO.C,U1*
X169545000Y-52070000D02*
G75*
G03X169545000Y-52070000I-635000J0D01*
G01*
X167005000Y-52070000D02*
G75*
G03X167005000Y-52070000I-635000J0D01*
G01*
X164465000Y-52070000D02*
G75*
G03X164465000Y-52070000I-635000J0D01*
G01*
X161925000Y-52070000D02*
G75*
G03X161925000Y-52070000I-635000J0D01*
G01*
X159385000Y-52070000D02*
G75*
G03X159385000Y-52070000I-635000J0D01*
G01*
X156845000Y-52070000D02*
G75*
G03X156845000Y-52070000I-635000J0D01*
G01*
D12*
G04 #@! TO.C,G\002A\002A\002A*
G36*
X178732592Y-63392837D02*
X178713157Y-63268464D01*
X178699108Y-63215656D01*
X178633894Y-63066137D01*
X178539337Y-62935043D01*
X178418752Y-62824983D01*
X178275452Y-62738563D01*
X178112751Y-62678391D01*
X177983368Y-62652503D01*
X177788843Y-62641867D01*
X177605944Y-62662829D01*
X177437625Y-62714670D01*
X177286842Y-62796673D01*
X177237076Y-62833718D01*
X177111353Y-62957395D01*
X177015060Y-63100519D01*
X176949539Y-63259560D01*
X176916135Y-63430988D01*
X176916193Y-63611272D01*
X176922088Y-63660785D01*
X176961746Y-63814037D01*
X177032336Y-63952340D01*
X177130206Y-64071739D01*
X177251708Y-64168277D01*
X177393192Y-64237996D01*
X177477964Y-64263420D01*
X177573214Y-64285942D01*
X177573214Y-63858094D01*
X177493690Y-63838069D01*
X177417330Y-63803128D01*
X177348882Y-63744233D01*
X177299950Y-63672527D01*
X177287727Y-63640275D01*
X177280176Y-63594893D01*
X177275268Y-63529899D01*
X177274163Y-63480070D01*
X177288555Y-63371439D01*
X177332515Y-63280844D01*
X177408212Y-63204768D01*
X177467728Y-63165786D01*
X177577621Y-63118257D01*
X177702095Y-63089608D01*
X177833590Y-63079267D01*
X177964548Y-63086663D01*
X178087409Y-63111224D01*
X178194615Y-63152379D01*
X178278605Y-63209554D01*
X178297071Y-63228513D01*
X178352704Y-63318017D01*
X178381649Y-63424175D01*
X178383026Y-63538130D01*
X178355952Y-63651028D01*
X178342306Y-63683038D01*
X178298752Y-63743782D01*
X178235315Y-63796853D01*
X178165871Y-63831774D01*
X178136021Y-63838820D01*
X178101698Y-63836373D01*
X178085225Y-63810404D01*
X178081592Y-63794269D01*
X178076751Y-63774516D01*
X178068484Y-63766082D01*
X178052432Y-63771834D01*
X178024238Y-63794641D01*
X177979541Y-63837369D01*
X177913984Y-63902886D01*
X177909235Y-63907662D01*
X177746328Y-64071500D01*
X177909235Y-64235380D01*
X178072143Y-64399261D01*
X178081214Y-64339702D01*
X178091331Y-64301350D01*
X178113797Y-64278036D01*
X178159233Y-64259978D01*
X178171929Y-64256161D01*
X178338808Y-64192512D01*
X178476370Y-64107887D01*
X178585410Y-64001554D01*
X178666723Y-63872781D01*
X178709945Y-63761186D01*
X178731263Y-63653179D01*
X178738719Y-63525736D01*
X178732592Y-63392837D01*
X178732592Y-63392837D01*
G37*
X178732592Y-63392837D02*
X178713157Y-63268464D01*
X178699108Y-63215656D01*
X178633894Y-63066137D01*
X178539337Y-62935043D01*
X178418752Y-62824983D01*
X178275452Y-62738563D01*
X178112751Y-62678391D01*
X177983368Y-62652503D01*
X177788843Y-62641867D01*
X177605944Y-62662829D01*
X177437625Y-62714670D01*
X177286842Y-62796673D01*
X177237076Y-62833718D01*
X177111353Y-62957395D01*
X177015060Y-63100519D01*
X176949539Y-63259560D01*
X176916135Y-63430988D01*
X176916193Y-63611272D01*
X176922088Y-63660785D01*
X176961746Y-63814037D01*
X177032336Y-63952340D01*
X177130206Y-64071739D01*
X177251708Y-64168277D01*
X177393192Y-64237996D01*
X177477964Y-64263420D01*
X177573214Y-64285942D01*
X177573214Y-63858094D01*
X177493690Y-63838069D01*
X177417330Y-63803128D01*
X177348882Y-63744233D01*
X177299950Y-63672527D01*
X177287727Y-63640275D01*
X177280176Y-63594893D01*
X177275268Y-63529899D01*
X177274163Y-63480070D01*
X177288555Y-63371439D01*
X177332515Y-63280844D01*
X177408212Y-63204768D01*
X177467728Y-63165786D01*
X177577621Y-63118257D01*
X177702095Y-63089608D01*
X177833590Y-63079267D01*
X177964548Y-63086663D01*
X178087409Y-63111224D01*
X178194615Y-63152379D01*
X178278605Y-63209554D01*
X178297071Y-63228513D01*
X178352704Y-63318017D01*
X178381649Y-63424175D01*
X178383026Y-63538130D01*
X178355952Y-63651028D01*
X178342306Y-63683038D01*
X178298752Y-63743782D01*
X178235315Y-63796853D01*
X178165871Y-63831774D01*
X178136021Y-63838820D01*
X178101698Y-63836373D01*
X178085225Y-63810404D01*
X178081592Y-63794269D01*
X178076751Y-63774516D01*
X178068484Y-63766082D01*
X178052432Y-63771834D01*
X178024238Y-63794641D01*
X177979541Y-63837369D01*
X177913984Y-63902886D01*
X177909235Y-63907662D01*
X177746328Y-64071500D01*
X177909235Y-64235380D01*
X178072143Y-64399261D01*
X178081214Y-64339702D01*
X178091331Y-64301350D01*
X178113797Y-64278036D01*
X178159233Y-64259978D01*
X178171929Y-64256161D01*
X178338808Y-64192512D01*
X178476370Y-64107887D01*
X178585410Y-64001554D01*
X178666723Y-63872781D01*
X178709945Y-63761186D01*
X178731263Y-63653179D01*
X178738719Y-63525736D01*
X178732592Y-63392837D01*
G36*
X178944706Y-70783329D02*
X178914901Y-70705566D01*
X178886528Y-70669333D01*
X178820961Y-70626985D01*
X178740487Y-70608420D01*
X178656009Y-70612925D01*
X178578433Y-70639787D01*
X178518664Y-70688294D01*
X178514561Y-70693655D01*
X178484472Y-70758956D01*
X178471023Y-70840763D01*
X178476456Y-70922274D01*
X178481425Y-70941966D01*
X178514278Y-71007836D01*
X178568063Y-71050096D01*
X178646964Y-71071164D01*
X178710985Y-71074643D01*
X178777808Y-71072825D01*
X178821118Y-71064776D01*
X178853611Y-71046601D01*
X178879561Y-71022944D01*
X178926825Y-70952779D01*
X178948610Y-70869321D01*
X178944706Y-70783329D01*
X178944706Y-70783329D01*
G37*
X178944706Y-70783329D02*
X178914901Y-70705566D01*
X178886528Y-70669333D01*
X178820961Y-70626985D01*
X178740487Y-70608420D01*
X178656009Y-70612925D01*
X178578433Y-70639787D01*
X178518664Y-70688294D01*
X178514561Y-70693655D01*
X178484472Y-70758956D01*
X178471023Y-70840763D01*
X178476456Y-70922274D01*
X178481425Y-70941966D01*
X178514278Y-71007836D01*
X178568063Y-71050096D01*
X178646964Y-71071164D01*
X178710985Y-71074643D01*
X178777808Y-71072825D01*
X178821118Y-71064776D01*
X178853611Y-71046601D01*
X178879561Y-71022944D01*
X178926825Y-70952779D01*
X178948610Y-70869321D01*
X178944706Y-70783329D01*
G36*
X178371165Y-70709275D02*
X178369958Y-70607061D01*
X178367575Y-70531967D01*
X178363711Y-70479411D01*
X178358063Y-70444815D01*
X178350326Y-70423596D01*
X178342990Y-70413725D01*
X178328206Y-70403873D01*
X178303100Y-70396520D01*
X178262896Y-70391326D01*
X178202819Y-70387949D01*
X178118093Y-70386047D01*
X178003941Y-70385280D01*
X177943847Y-70385215D01*
X177573214Y-70385215D01*
X177573214Y-70584786D01*
X176738643Y-70584786D01*
X176738643Y-71110929D01*
X177573214Y-71110929D01*
X177573214Y-71310500D01*
X177942331Y-71310500D01*
X178068194Y-71310241D01*
X178162773Y-71309188D01*
X178231066Y-71306923D01*
X178278071Y-71303033D01*
X178308789Y-71297102D01*
X178328217Y-71288713D01*
X178341356Y-71277452D01*
X178341474Y-71277322D01*
X178351429Y-71262259D01*
X178358951Y-71238854D01*
X178364368Y-71202390D01*
X178368005Y-71148152D01*
X178370188Y-71071421D01*
X178371244Y-70967483D01*
X178371500Y-70843189D01*
X178371165Y-70709275D01*
X178371165Y-70709275D01*
G37*
X178371165Y-70709275D02*
X178369958Y-70607061D01*
X178367575Y-70531967D01*
X178363711Y-70479411D01*
X178358063Y-70444815D01*
X178350326Y-70423596D01*
X178342990Y-70413725D01*
X178328206Y-70403873D01*
X178303100Y-70396520D01*
X178262896Y-70391326D01*
X178202819Y-70387949D01*
X178118093Y-70386047D01*
X178003941Y-70385280D01*
X177943847Y-70385215D01*
X177573214Y-70385215D01*
X177573214Y-70584786D01*
X176738643Y-70584786D01*
X176738643Y-71110929D01*
X177573214Y-71110929D01*
X177573214Y-71310500D01*
X177942331Y-71310500D01*
X178068194Y-71310241D01*
X178162773Y-71309188D01*
X178231066Y-71306923D01*
X178278071Y-71303033D01*
X178308789Y-71297102D01*
X178328217Y-71288713D01*
X178341356Y-71277452D01*
X178341474Y-71277322D01*
X178351429Y-71262259D01*
X178358951Y-71238854D01*
X178364368Y-71202390D01*
X178368005Y-71148152D01*
X178370188Y-71071421D01*
X178371244Y-70967483D01*
X178371500Y-70843189D01*
X178371165Y-70709275D01*
G36*
X178369296Y-73949638D02*
X178354746Y-73843050D01*
X178327493Y-73751424D01*
X178311151Y-73718169D01*
X178273323Y-73663615D01*
X178228666Y-73613488D01*
X178184593Y-73574581D01*
X178148519Y-73553684D01*
X178131563Y-73553665D01*
X178116159Y-73573631D01*
X178090830Y-73616501D01*
X178064730Y-73665858D01*
X178012771Y-73768857D01*
X178057153Y-73802276D01*
X178095866Y-73842314D01*
X178129227Y-73893836D01*
X178130721Y-73896897D01*
X178148130Y-73971999D01*
X178134787Y-74047594D01*
X178094032Y-74112366D01*
X178058744Y-74140765D01*
X177970939Y-74176704D01*
X177870948Y-74190091D01*
X177769568Y-74181794D01*
X177677598Y-74152682D01*
X177606633Y-74104425D01*
X177574531Y-74065900D01*
X177559219Y-74024468D01*
X177555087Y-73964233D01*
X177555071Y-73958360D01*
X177557936Y-73898527D01*
X177571252Y-73858013D01*
X177602100Y-73820006D01*
X177621118Y-73801566D01*
X177687165Y-73739276D01*
X177644674Y-73648554D01*
X177618604Y-73596690D01*
X177596735Y-73559768D01*
X177587376Y-73548683D01*
X177561711Y-73552281D01*
X177522245Y-73578932D01*
X177475972Y-73621953D01*
X177429884Y-73674661D01*
X177390976Y-73730372D01*
X177383386Y-73743626D01*
X177343322Y-73848546D01*
X177324262Y-73969288D01*
X177327467Y-74091230D01*
X177346007Y-74177072D01*
X177400216Y-74287040D01*
X177484570Y-74378145D01*
X177586251Y-74442878D01*
X177644583Y-74468770D01*
X177697524Y-74484045D01*
X177758697Y-74491334D01*
X177841724Y-74493272D01*
X177846966Y-74493276D01*
X177929699Y-74491755D01*
X177989679Y-74485352D01*
X178040373Y-74471306D01*
X178095253Y-74446854D01*
X178110199Y-74439307D01*
X178214281Y-74368896D01*
X178295717Y-74278368D01*
X178348424Y-74174823D01*
X178354860Y-74153630D01*
X178369786Y-74057670D01*
X178369296Y-73949638D01*
X178369296Y-73949638D01*
G37*
X178369296Y-73949638D02*
X178354746Y-73843050D01*
X178327493Y-73751424D01*
X178311151Y-73718169D01*
X178273323Y-73663615D01*
X178228666Y-73613488D01*
X178184593Y-73574581D01*
X178148519Y-73553684D01*
X178131563Y-73553665D01*
X178116159Y-73573631D01*
X178090830Y-73616501D01*
X178064730Y-73665858D01*
X178012771Y-73768857D01*
X178057153Y-73802276D01*
X178095866Y-73842314D01*
X178129227Y-73893836D01*
X178130721Y-73896897D01*
X178148130Y-73971999D01*
X178134787Y-74047594D01*
X178094032Y-74112366D01*
X178058744Y-74140765D01*
X177970939Y-74176704D01*
X177870948Y-74190091D01*
X177769568Y-74181794D01*
X177677598Y-74152682D01*
X177606633Y-74104425D01*
X177574531Y-74065900D01*
X177559219Y-74024468D01*
X177555087Y-73964233D01*
X177555071Y-73958360D01*
X177557936Y-73898527D01*
X177571252Y-73858013D01*
X177602100Y-73820006D01*
X177621118Y-73801566D01*
X177687165Y-73739276D01*
X177644674Y-73648554D01*
X177618604Y-73596690D01*
X177596735Y-73559768D01*
X177587376Y-73548683D01*
X177561711Y-73552281D01*
X177522245Y-73578932D01*
X177475972Y-73621953D01*
X177429884Y-73674661D01*
X177390976Y-73730372D01*
X177383386Y-73743626D01*
X177343322Y-73848546D01*
X177324262Y-73969288D01*
X177327467Y-74091230D01*
X177346007Y-74177072D01*
X177400216Y-74287040D01*
X177484570Y-74378145D01*
X177586251Y-74442878D01*
X177644583Y-74468770D01*
X177697524Y-74484045D01*
X177758697Y-74491334D01*
X177841724Y-74493272D01*
X177846966Y-74493276D01*
X177929699Y-74491755D01*
X177989679Y-74485352D01*
X178040373Y-74471306D01*
X178095253Y-74446854D01*
X178110199Y-74439307D01*
X178214281Y-74368896D01*
X178295717Y-74278368D01*
X178348424Y-74174823D01*
X178354860Y-74153630D01*
X178369786Y-74057670D01*
X178369296Y-73949638D01*
G36*
X178363939Y-74868453D02*
X178346339Y-74781946D01*
X178343535Y-74773531D01*
X178319467Y-74725035D01*
X178281703Y-74669331D01*
X178237443Y-74614908D01*
X178193890Y-74570251D01*
X178158246Y-74543848D01*
X178145473Y-74540144D01*
X178127826Y-74555020D01*
X178099776Y-74593801D01*
X178067588Y-74647752D01*
X178008604Y-74755145D01*
X178062597Y-74793591D01*
X178117583Y-74853335D01*
X178143739Y-74928500D01*
X178138320Y-75009281D01*
X178129861Y-75033783D01*
X178091814Y-75096588D01*
X178035777Y-75138301D01*
X177955443Y-75162560D01*
X177893335Y-75170220D01*
X177777333Y-75169608D01*
X177686418Y-75146107D01*
X177616574Y-75098501D01*
X177601022Y-75081611D01*
X177565392Y-75016122D01*
X177554139Y-74941413D01*
X177565962Y-74868084D01*
X177599558Y-74806734D01*
X177638718Y-74774713D01*
X177668828Y-74753224D01*
X177679135Y-74726387D01*
X177669258Y-74686618D01*
X177638814Y-74626333D01*
X177630485Y-74611604D01*
X177578898Y-74521280D01*
X177493655Y-74596314D01*
X177410657Y-74683471D01*
X177358272Y-74775914D01*
X177331543Y-74884062D01*
X177326212Y-74948143D01*
X177325466Y-75021305D01*
X177328835Y-75087544D01*
X177335001Y-75129572D01*
X177382482Y-75242729D01*
X177458814Y-75340683D01*
X177557454Y-75416217D01*
X177623048Y-75447188D01*
X177745574Y-75476880D01*
X177879997Y-75482553D01*
X178011047Y-75464248D01*
X178070695Y-75446055D01*
X178159542Y-75398397D01*
X178242180Y-75328431D01*
X178308862Y-75246105D01*
X178349841Y-75161367D01*
X178349932Y-75161064D01*
X178366006Y-75074351D01*
X178370585Y-74971368D01*
X178363939Y-74868453D01*
X178363939Y-74868453D01*
G37*
X178363939Y-74868453D02*
X178346339Y-74781946D01*
X178343535Y-74773531D01*
X178319467Y-74725035D01*
X178281703Y-74669331D01*
X178237443Y-74614908D01*
X178193890Y-74570251D01*
X178158246Y-74543848D01*
X178145473Y-74540144D01*
X178127826Y-74555020D01*
X178099776Y-74593801D01*
X178067588Y-74647752D01*
X178008604Y-74755145D01*
X178062597Y-74793591D01*
X178117583Y-74853335D01*
X178143739Y-74928500D01*
X178138320Y-75009281D01*
X178129861Y-75033783D01*
X178091814Y-75096588D01*
X178035777Y-75138301D01*
X177955443Y-75162560D01*
X177893335Y-75170220D01*
X177777333Y-75169608D01*
X177686418Y-75146107D01*
X177616574Y-75098501D01*
X177601022Y-75081611D01*
X177565392Y-75016122D01*
X177554139Y-74941413D01*
X177565962Y-74868084D01*
X177599558Y-74806734D01*
X177638718Y-74774713D01*
X177668828Y-74753224D01*
X177679135Y-74726387D01*
X177669258Y-74686618D01*
X177638814Y-74626333D01*
X177630485Y-74611604D01*
X177578898Y-74521280D01*
X177493655Y-74596314D01*
X177410657Y-74683471D01*
X177358272Y-74775914D01*
X177331543Y-74884062D01*
X177326212Y-74948143D01*
X177325466Y-75021305D01*
X177328835Y-75087544D01*
X177335001Y-75129572D01*
X177382482Y-75242729D01*
X177458814Y-75340683D01*
X177557454Y-75416217D01*
X177623048Y-75447188D01*
X177745574Y-75476880D01*
X177879997Y-75482553D01*
X178011047Y-75464248D01*
X178070695Y-75446055D01*
X178159542Y-75398397D01*
X178242180Y-75328431D01*
X178308862Y-75246105D01*
X178349841Y-75161367D01*
X178349932Y-75161064D01*
X178366006Y-75074351D01*
X178370585Y-74971368D01*
X178363939Y-74868453D01*
G36*
X179541435Y-63353658D02*
X179501990Y-63108511D01*
X179465409Y-62973857D01*
X179378438Y-62755238D01*
X179259184Y-62549893D01*
X179110277Y-62361204D01*
X178934344Y-62192555D01*
X178756493Y-62061617D01*
X178555095Y-61952579D01*
X178338374Y-61873731D01*
X178111083Y-61825039D01*
X177877979Y-61806471D01*
X177643818Y-61817992D01*
X177413356Y-61859569D01*
X177191347Y-61931170D01*
X176982549Y-62032760D01*
X176914802Y-62074524D01*
X176733932Y-62213335D01*
X176570191Y-62380114D01*
X176427775Y-62568929D01*
X176310885Y-62773845D01*
X176223718Y-62988927D01*
X176193747Y-63093718D01*
X176162922Y-63261346D01*
X176147776Y-63442723D01*
X176148621Y-63624239D01*
X176165767Y-63792283D01*
X176176488Y-63849160D01*
X176242289Y-64083013D01*
X176334478Y-64295412D01*
X176455856Y-64491319D01*
X176609222Y-64675694D01*
X176687446Y-64754335D01*
X176877822Y-64912765D01*
X177083069Y-65038132D01*
X177302621Y-65130209D01*
X177535911Y-65188770D01*
X177782370Y-65213589D01*
X177841260Y-65214500D01*
X177855547Y-65213665D01*
X177855547Y-64903246D01*
X177716646Y-64899742D01*
X177592829Y-64885780D01*
X177562145Y-64879841D01*
X177358850Y-64817855D01*
X177168145Y-64724587D01*
X176993300Y-64603603D01*
X176837582Y-64458467D01*
X176704259Y-64292745D01*
X176596600Y-64110002D01*
X176517874Y-63913802D01*
X176471347Y-63707711D01*
X176468628Y-63687001D01*
X176459821Y-63529150D01*
X176468281Y-63359722D01*
X176492749Y-63198297D01*
X176502749Y-63155429D01*
X176568101Y-62967622D01*
X176664518Y-62784878D01*
X176786821Y-62614065D01*
X176929835Y-62462051D01*
X177088383Y-62335706D01*
X177149761Y-62296948D01*
X177329841Y-62210938D01*
X177527851Y-62151684D01*
X177736155Y-62120189D01*
X177947119Y-62117457D01*
X178153110Y-62144493D01*
X178209244Y-62157634D01*
X178399077Y-62224607D01*
X178580908Y-62323166D01*
X178749098Y-62448684D01*
X178898007Y-62596540D01*
X179021996Y-62762108D01*
X179086527Y-62876981D01*
X179146256Y-63007215D01*
X179187760Y-63122040D01*
X179213936Y-63234057D01*
X179227683Y-63355868D01*
X179231900Y-63500076D01*
X179231913Y-63509072D01*
X179224692Y-63685705D01*
X179201077Y-63840252D01*
X179158320Y-63984249D01*
X179093673Y-64129231D01*
X179076342Y-64162215D01*
X178959921Y-64341683D01*
X178814794Y-64504451D01*
X178646438Y-64645995D01*
X178460328Y-64761792D01*
X178261941Y-64847320D01*
X178236938Y-64855535D01*
X178128274Y-64880689D01*
X177996949Y-64896744D01*
X177855547Y-64903246D01*
X177855547Y-65213665D01*
X178085932Y-65200198D01*
X178312131Y-65156245D01*
X178524366Y-65081070D01*
X178727145Y-64973104D01*
X178911304Y-64841803D01*
X179092165Y-64674717D01*
X179244234Y-64487442D01*
X179366619Y-64282988D01*
X179458425Y-64064371D01*
X179518759Y-63834601D01*
X179546727Y-63596693D01*
X179541435Y-63353658D01*
X179541435Y-63353658D01*
G37*
X179541435Y-63353658D02*
X179501990Y-63108511D01*
X179465409Y-62973857D01*
X179378438Y-62755238D01*
X179259184Y-62549893D01*
X179110277Y-62361204D01*
X178934344Y-62192555D01*
X178756493Y-62061617D01*
X178555095Y-61952579D01*
X178338374Y-61873731D01*
X178111083Y-61825039D01*
X177877979Y-61806471D01*
X177643818Y-61817992D01*
X177413356Y-61859569D01*
X177191347Y-61931170D01*
X176982549Y-62032760D01*
X176914802Y-62074524D01*
X176733932Y-62213335D01*
X176570191Y-62380114D01*
X176427775Y-62568929D01*
X176310885Y-62773845D01*
X176223718Y-62988927D01*
X176193747Y-63093718D01*
X176162922Y-63261346D01*
X176147776Y-63442723D01*
X176148621Y-63624239D01*
X176165767Y-63792283D01*
X176176488Y-63849160D01*
X176242289Y-64083013D01*
X176334478Y-64295412D01*
X176455856Y-64491319D01*
X176609222Y-64675694D01*
X176687446Y-64754335D01*
X176877822Y-64912765D01*
X177083069Y-65038132D01*
X177302621Y-65130209D01*
X177535911Y-65188770D01*
X177782370Y-65213589D01*
X177841260Y-65214500D01*
X177855547Y-65213665D01*
X177855547Y-64903246D01*
X177716646Y-64899742D01*
X177592829Y-64885780D01*
X177562145Y-64879841D01*
X177358850Y-64817855D01*
X177168145Y-64724587D01*
X176993300Y-64603603D01*
X176837582Y-64458467D01*
X176704259Y-64292745D01*
X176596600Y-64110002D01*
X176517874Y-63913802D01*
X176471347Y-63707711D01*
X176468628Y-63687001D01*
X176459821Y-63529150D01*
X176468281Y-63359722D01*
X176492749Y-63198297D01*
X176502749Y-63155429D01*
X176568101Y-62967622D01*
X176664518Y-62784878D01*
X176786821Y-62614065D01*
X176929835Y-62462051D01*
X177088383Y-62335706D01*
X177149761Y-62296948D01*
X177329841Y-62210938D01*
X177527851Y-62151684D01*
X177736155Y-62120189D01*
X177947119Y-62117457D01*
X178153110Y-62144493D01*
X178209244Y-62157634D01*
X178399077Y-62224607D01*
X178580908Y-62323166D01*
X178749098Y-62448684D01*
X178898007Y-62596540D01*
X179021996Y-62762108D01*
X179086527Y-62876981D01*
X179146256Y-63007215D01*
X179187760Y-63122040D01*
X179213936Y-63234057D01*
X179227683Y-63355868D01*
X179231900Y-63500076D01*
X179231913Y-63509072D01*
X179224692Y-63685705D01*
X179201077Y-63840252D01*
X179158320Y-63984249D01*
X179093673Y-64129231D01*
X179076342Y-64162215D01*
X178959921Y-64341683D01*
X178814794Y-64504451D01*
X178646438Y-64645995D01*
X178460328Y-64761792D01*
X178261941Y-64847320D01*
X178236938Y-64855535D01*
X178128274Y-64880689D01*
X177996949Y-64896744D01*
X177855547Y-64903246D01*
X177855547Y-65213665D01*
X178085932Y-65200198D01*
X178312131Y-65156245D01*
X178524366Y-65081070D01*
X178727145Y-64973104D01*
X178911304Y-64841803D01*
X179092165Y-64674717D01*
X179244234Y-64487442D01*
X179366619Y-64282988D01*
X179458425Y-64064371D01*
X179518759Y-63834601D01*
X179546727Y-63596693D01*
X179541435Y-63353658D01*
G36*
X179541452Y-67020003D02*
X179504343Y-66784536D01*
X179437457Y-66558259D01*
X179341488Y-66346662D01*
X179279745Y-66243374D01*
X179128697Y-66044401D01*
X178954269Y-65872023D01*
X178758826Y-65727935D01*
X178544733Y-65613830D01*
X178314355Y-65531403D01*
X178269483Y-65519598D01*
X178126319Y-65493672D01*
X177961846Y-65479649D01*
X177788858Y-65477534D01*
X177620150Y-65487330D01*
X177468516Y-65509045D01*
X177422604Y-65519272D01*
X177202486Y-65589477D01*
X177002350Y-65686782D01*
X176817198Y-65814116D01*
X176642032Y-65974404D01*
X176637548Y-65979056D01*
X176492351Y-66145322D01*
X176377249Y-66312635D01*
X176286851Y-66489617D01*
X176236624Y-66620224D01*
X176175974Y-66849489D01*
X176146244Y-67086559D01*
X176148121Y-67322762D01*
X176168500Y-67482357D01*
X176227119Y-67707669D01*
X176317950Y-67923693D01*
X176437726Y-68126676D01*
X176583179Y-68312869D01*
X176751042Y-68478520D01*
X176938047Y-68619878D01*
X177140926Y-68733192D01*
X177319214Y-68803317D01*
X177434390Y-68837042D01*
X177540170Y-68859740D01*
X177647695Y-68872727D01*
X177768110Y-68877317D01*
X177850847Y-68875891D01*
X177850847Y-68570614D01*
X177674472Y-68562068D01*
X177518089Y-68535172D01*
X177368857Y-68487022D01*
X177255714Y-68436121D01*
X177057395Y-68318753D01*
X176885755Y-68176869D01*
X176740101Y-68009774D01*
X176619739Y-67816774D01*
X176600846Y-67779515D01*
X176549581Y-67667896D01*
X176513056Y-67567875D01*
X176489310Y-67469407D01*
X176476385Y-67362448D01*
X176472318Y-67236952D01*
X176473799Y-67128572D01*
X176478038Y-67012717D01*
X176484627Y-66924079D01*
X176494706Y-66853611D01*
X176509413Y-66792264D01*
X176520603Y-66757035D01*
X176585457Y-66592048D01*
X176661899Y-66448886D01*
X176757238Y-66315826D01*
X176878783Y-66181148D01*
X176881395Y-66178495D01*
X176962832Y-66100163D01*
X177036832Y-66037039D01*
X177099285Y-65992068D01*
X177146079Y-65968193D01*
X177173104Y-65968358D01*
X177173881Y-65969069D01*
X177185768Y-65989790D01*
X177208956Y-66037043D01*
X177240488Y-66104218D01*
X177277403Y-66184708D01*
X177316742Y-66271905D01*
X177355545Y-66359200D01*
X177390854Y-66439984D01*
X177419708Y-66507651D01*
X177439148Y-66555591D01*
X177446214Y-66577153D01*
X177430969Y-66591037D01*
X177393774Y-66608042D01*
X177388865Y-66609800D01*
X177290262Y-66662631D01*
X177204883Y-66745092D01*
X177137325Y-66851569D01*
X177093725Y-66970292D01*
X177071806Y-67056000D01*
X176946046Y-67058124D01*
X176820286Y-67060247D01*
X176820286Y-67255572D01*
X177078840Y-67266142D01*
X177090911Y-67372834D01*
X177112060Y-67467825D01*
X177151686Y-67572590D01*
X177202817Y-67671039D01*
X177247903Y-67735134D01*
X177285039Y-67779269D01*
X177405659Y-67658649D01*
X177526278Y-67538029D01*
X177487133Y-67496360D01*
X177436680Y-67424656D01*
X177399238Y-67336067D01*
X177376421Y-67240203D01*
X177369843Y-67146674D01*
X177381118Y-67065092D01*
X177405871Y-67012417D01*
X177434439Y-66982728D01*
X177470733Y-66968794D01*
X177528763Y-66965286D01*
X177529780Y-66965286D01*
X177584370Y-66967391D01*
X177615987Y-66978360D01*
X177637895Y-67005177D01*
X177650398Y-67028786D01*
X177674854Y-67079645D01*
X177709595Y-67154955D01*
X177752846Y-67250627D01*
X177802830Y-67362574D01*
X177857772Y-67486707D01*
X177915897Y-67618940D01*
X177975429Y-67755185D01*
X178034593Y-67891355D01*
X178091613Y-68023360D01*
X178144713Y-68147115D01*
X178192118Y-68258531D01*
X178232052Y-68353520D01*
X178262740Y-68427995D01*
X178282406Y-68477869D01*
X178289275Y-68499054D01*
X178289200Y-68499421D01*
X178263171Y-68514906D01*
X178208814Y-68530654D01*
X178134058Y-68545377D01*
X178046825Y-68557788D01*
X177955044Y-68566601D01*
X177866639Y-68570526D01*
X177850847Y-68570614D01*
X177850847Y-68875891D01*
X177912556Y-68874827D01*
X177922132Y-68874484D01*
X178151586Y-68854455D01*
X178358486Y-68810513D01*
X178549521Y-68740231D01*
X178618298Y-68702771D01*
X178618298Y-68334870D01*
X178601569Y-68319334D01*
X178576885Y-68278778D01*
X178549568Y-68221956D01*
X178549361Y-68221478D01*
X178521702Y-68158009D01*
X178484509Y-68073371D01*
X178443048Y-67979524D01*
X178409580Y-67904126D01*
X178318724Y-67699966D01*
X178390713Y-67663240D01*
X178478762Y-67598021D01*
X178548516Y-67501712D01*
X178599722Y-67374704D01*
X178615145Y-67314536D01*
X178622745Y-67288421D01*
X178636800Y-67273503D01*
X178665953Y-67266650D01*
X178718843Y-67264731D01*
X178752846Y-67264643D01*
X178879500Y-67264643D01*
X178879500Y-67065072D01*
X178627144Y-67065072D01*
X178615992Y-66997036D01*
X178596838Y-66914386D01*
X178567476Y-66826056D01*
X178532966Y-66745186D01*
X178498367Y-66684916D01*
X178493203Y-66678115D01*
X178453143Y-66628117D01*
X178237037Y-66846879D01*
X178278783Y-66932804D01*
X178313318Y-67025487D01*
X178329489Y-67118025D01*
X178328012Y-67203578D01*
X178309604Y-67275305D01*
X178274981Y-67326366D01*
X178235296Y-67347940D01*
X178194436Y-67351580D01*
X178171527Y-67344050D01*
X178160721Y-67324280D01*
X178137233Y-67275425D01*
X178102890Y-67201597D01*
X178059524Y-67106904D01*
X178008962Y-66995454D01*
X177953036Y-66871358D01*
X177893573Y-66738725D01*
X177832404Y-66601663D01*
X177771358Y-66464282D01*
X177712264Y-66330691D01*
X177656953Y-66204999D01*
X177607252Y-66091316D01*
X177564992Y-65993750D01*
X177532002Y-65916411D01*
X177510112Y-65863409D01*
X177501151Y-65838851D01*
X177501031Y-65838008D01*
X177516317Y-65819758D01*
X177550536Y-65806671D01*
X177712765Y-65784489D01*
X177891407Y-65781973D01*
X178072912Y-65798326D01*
X178243730Y-65832747D01*
X178305431Y-65851197D01*
X178478298Y-65926159D01*
X178645710Y-66031928D01*
X178801872Y-66163027D01*
X178940988Y-66313978D01*
X179057262Y-66479305D01*
X179138807Y-66638752D01*
X179204528Y-66840708D01*
X179237600Y-67051957D01*
X179238478Y-67266937D01*
X179207619Y-67480085D01*
X179145478Y-67685839D01*
X179052511Y-67878634D01*
X179034812Y-67907899D01*
X178995524Y-67963543D01*
X178941880Y-68029506D01*
X178879230Y-68100306D01*
X178812924Y-68170456D01*
X178748313Y-68234472D01*
X178690746Y-68286869D01*
X178645575Y-68322162D01*
X178618298Y-68334870D01*
X178618298Y-68702771D01*
X178731377Y-68641181D01*
X178900198Y-68519457D01*
X179060908Y-68372761D01*
X179205116Y-68206217D01*
X179327561Y-68027182D01*
X179422983Y-67843011D01*
X179467181Y-67726654D01*
X179523564Y-67496551D01*
X179548090Y-67259171D01*
X179541452Y-67020003D01*
X179541452Y-67020003D01*
G37*
X179541452Y-67020003D02*
X179504343Y-66784536D01*
X179437457Y-66558259D01*
X179341488Y-66346662D01*
X179279745Y-66243374D01*
X179128697Y-66044401D01*
X178954269Y-65872023D01*
X178758826Y-65727935D01*
X178544733Y-65613830D01*
X178314355Y-65531403D01*
X178269483Y-65519598D01*
X178126319Y-65493672D01*
X177961846Y-65479649D01*
X177788858Y-65477534D01*
X177620150Y-65487330D01*
X177468516Y-65509045D01*
X177422604Y-65519272D01*
X177202486Y-65589477D01*
X177002350Y-65686782D01*
X176817198Y-65814116D01*
X176642032Y-65974404D01*
X176637548Y-65979056D01*
X176492351Y-66145322D01*
X176377249Y-66312635D01*
X176286851Y-66489617D01*
X176236624Y-66620224D01*
X176175974Y-66849489D01*
X176146244Y-67086559D01*
X176148121Y-67322762D01*
X176168500Y-67482357D01*
X176227119Y-67707669D01*
X176317950Y-67923693D01*
X176437726Y-68126676D01*
X176583179Y-68312869D01*
X176751042Y-68478520D01*
X176938047Y-68619878D01*
X177140926Y-68733192D01*
X177319214Y-68803317D01*
X177434390Y-68837042D01*
X177540170Y-68859740D01*
X177647695Y-68872727D01*
X177768110Y-68877317D01*
X177850847Y-68875891D01*
X177850847Y-68570614D01*
X177674472Y-68562068D01*
X177518089Y-68535172D01*
X177368857Y-68487022D01*
X177255714Y-68436121D01*
X177057395Y-68318753D01*
X176885755Y-68176869D01*
X176740101Y-68009774D01*
X176619739Y-67816774D01*
X176600846Y-67779515D01*
X176549581Y-67667896D01*
X176513056Y-67567875D01*
X176489310Y-67469407D01*
X176476385Y-67362448D01*
X176472318Y-67236952D01*
X176473799Y-67128572D01*
X176478038Y-67012717D01*
X176484627Y-66924079D01*
X176494706Y-66853611D01*
X176509413Y-66792264D01*
X176520603Y-66757035D01*
X176585457Y-66592048D01*
X176661899Y-66448886D01*
X176757238Y-66315826D01*
X176878783Y-66181148D01*
X176881395Y-66178495D01*
X176962832Y-66100163D01*
X177036832Y-66037039D01*
X177099285Y-65992068D01*
X177146079Y-65968193D01*
X177173104Y-65968358D01*
X177173881Y-65969069D01*
X177185768Y-65989790D01*
X177208956Y-66037043D01*
X177240488Y-66104218D01*
X177277403Y-66184708D01*
X177316742Y-66271905D01*
X177355545Y-66359200D01*
X177390854Y-66439984D01*
X177419708Y-66507651D01*
X177439148Y-66555591D01*
X177446214Y-66577153D01*
X177430969Y-66591037D01*
X177393774Y-66608042D01*
X177388865Y-66609800D01*
X177290262Y-66662631D01*
X177204883Y-66745092D01*
X177137325Y-66851569D01*
X177093725Y-66970292D01*
X177071806Y-67056000D01*
X176946046Y-67058124D01*
X176820286Y-67060247D01*
X176820286Y-67255572D01*
X177078840Y-67266142D01*
X177090911Y-67372834D01*
X177112060Y-67467825D01*
X177151686Y-67572590D01*
X177202817Y-67671039D01*
X177247903Y-67735134D01*
X177285039Y-67779269D01*
X177405659Y-67658649D01*
X177526278Y-67538029D01*
X177487133Y-67496360D01*
X177436680Y-67424656D01*
X177399238Y-67336067D01*
X177376421Y-67240203D01*
X177369843Y-67146674D01*
X177381118Y-67065092D01*
X177405871Y-67012417D01*
X177434439Y-66982728D01*
X177470733Y-66968794D01*
X177528763Y-66965286D01*
X177529780Y-66965286D01*
X177584370Y-66967391D01*
X177615987Y-66978360D01*
X177637895Y-67005177D01*
X177650398Y-67028786D01*
X177674854Y-67079645D01*
X177709595Y-67154955D01*
X177752846Y-67250627D01*
X177802830Y-67362574D01*
X177857772Y-67486707D01*
X177915897Y-67618940D01*
X177975429Y-67755185D01*
X178034593Y-67891355D01*
X178091613Y-68023360D01*
X178144713Y-68147115D01*
X178192118Y-68258531D01*
X178232052Y-68353520D01*
X178262740Y-68427995D01*
X178282406Y-68477869D01*
X178289275Y-68499054D01*
X178289200Y-68499421D01*
X178263171Y-68514906D01*
X178208814Y-68530654D01*
X178134058Y-68545377D01*
X178046825Y-68557788D01*
X177955044Y-68566601D01*
X177866639Y-68570526D01*
X177850847Y-68570614D01*
X177850847Y-68875891D01*
X177912556Y-68874827D01*
X177922132Y-68874484D01*
X178151586Y-68854455D01*
X178358486Y-68810513D01*
X178549521Y-68740231D01*
X178618298Y-68702771D01*
X178618298Y-68334870D01*
X178601569Y-68319334D01*
X178576885Y-68278778D01*
X178549568Y-68221956D01*
X178549361Y-68221478D01*
X178521702Y-68158009D01*
X178484509Y-68073371D01*
X178443048Y-67979524D01*
X178409580Y-67904126D01*
X178318724Y-67699966D01*
X178390713Y-67663240D01*
X178478762Y-67598021D01*
X178548516Y-67501712D01*
X178599722Y-67374704D01*
X178615145Y-67314536D01*
X178622745Y-67288421D01*
X178636800Y-67273503D01*
X178665953Y-67266650D01*
X178718843Y-67264731D01*
X178752846Y-67264643D01*
X178879500Y-67264643D01*
X178879500Y-67065072D01*
X178627144Y-67065072D01*
X178615992Y-66997036D01*
X178596838Y-66914386D01*
X178567476Y-66826056D01*
X178532966Y-66745186D01*
X178498367Y-66684916D01*
X178493203Y-66678115D01*
X178453143Y-66628117D01*
X178237037Y-66846879D01*
X178278783Y-66932804D01*
X178313318Y-67025487D01*
X178329489Y-67118025D01*
X178328012Y-67203578D01*
X178309604Y-67275305D01*
X178274981Y-67326366D01*
X178235296Y-67347940D01*
X178194436Y-67351580D01*
X178171527Y-67344050D01*
X178160721Y-67324280D01*
X178137233Y-67275425D01*
X178102890Y-67201597D01*
X178059524Y-67106904D01*
X178008962Y-66995454D01*
X177953036Y-66871358D01*
X177893573Y-66738725D01*
X177832404Y-66601663D01*
X177771358Y-66464282D01*
X177712264Y-66330691D01*
X177656953Y-66204999D01*
X177607252Y-66091316D01*
X177564992Y-65993750D01*
X177532002Y-65916411D01*
X177510112Y-65863409D01*
X177501151Y-65838851D01*
X177501031Y-65838008D01*
X177516317Y-65819758D01*
X177550536Y-65806671D01*
X177712765Y-65784489D01*
X177891407Y-65781973D01*
X178072912Y-65798326D01*
X178243730Y-65832747D01*
X178305431Y-65851197D01*
X178478298Y-65926159D01*
X178645710Y-66031928D01*
X178801872Y-66163027D01*
X178940988Y-66313978D01*
X179057262Y-66479305D01*
X179138807Y-66638752D01*
X179204528Y-66840708D01*
X179237600Y-67051957D01*
X179238478Y-67266937D01*
X179207619Y-67480085D01*
X179145478Y-67685839D01*
X179052511Y-67878634D01*
X179034812Y-67907899D01*
X178995524Y-67963543D01*
X178941880Y-68029506D01*
X178879230Y-68100306D01*
X178812924Y-68170456D01*
X178748313Y-68234472D01*
X178690746Y-68286869D01*
X178645575Y-68322162D01*
X178618298Y-68334870D01*
X178618298Y-68702771D01*
X178731377Y-68641181D01*
X178900198Y-68519457D01*
X179060908Y-68372761D01*
X179205116Y-68206217D01*
X179327561Y-68027182D01*
X179422983Y-67843011D01*
X179467181Y-67726654D01*
X179523564Y-67496551D01*
X179548090Y-67259171D01*
X179541452Y-67020003D01*
G36*
X179539760Y-70660643D02*
X179501246Y-70427579D01*
X179432314Y-70204269D01*
X179341724Y-70011333D01*
X179205941Y-69804238D01*
X179044593Y-69620870D01*
X178860587Y-69463470D01*
X178656829Y-69334274D01*
X178436227Y-69235524D01*
X178268110Y-69184412D01*
X178127819Y-69159181D01*
X177965980Y-69145353D01*
X177795290Y-69142935D01*
X177628443Y-69151932D01*
X177478138Y-69172349D01*
X177424275Y-69184015D01*
X177200980Y-69255371D01*
X176997200Y-69355240D01*
X176808795Y-69486023D01*
X176645900Y-69635280D01*
X176479194Y-69830704D01*
X176345574Y-70040284D01*
X176243958Y-70265957D01*
X176184283Y-70462222D01*
X176166298Y-70563077D01*
X176154265Y-70687280D01*
X176148503Y-70822334D01*
X176149330Y-70955741D01*
X176157064Y-71075005D01*
X176166912Y-71144185D01*
X176226172Y-71375631D01*
X176312434Y-71587254D01*
X176428251Y-71783709D01*
X176576179Y-71969647D01*
X176677736Y-72074544D01*
X176861994Y-72232786D01*
X177054578Y-72357370D01*
X177259759Y-72450697D01*
X177447211Y-72507231D01*
X177556773Y-72526417D01*
X177689619Y-72538817D01*
X177833825Y-72544254D01*
X177840893Y-72544171D01*
X177840893Y-72235667D01*
X177684845Y-72228715D01*
X177544071Y-72207628D01*
X177519087Y-72201741D01*
X177314607Y-72131704D01*
X177121770Y-72029323D01*
X176945733Y-71897954D01*
X176791654Y-71740956D01*
X176769434Y-71713746D01*
X176685702Y-71602206D01*
X176622336Y-71501087D01*
X176572058Y-71397313D01*
X176528801Y-71281432D01*
X176478527Y-71077490D01*
X176459380Y-70863185D01*
X176471645Y-70647269D01*
X176502749Y-70485143D01*
X176568704Y-70295961D01*
X176665844Y-70113539D01*
X176789329Y-69943759D01*
X176934316Y-69792503D01*
X177095964Y-69665653D01*
X177249097Y-69578437D01*
X177373546Y-69524862D01*
X177488941Y-69488082D01*
X177607430Y-69465535D01*
X177741158Y-69454659D01*
X177845357Y-69452625D01*
X177990399Y-69455993D01*
X178112406Y-69468746D01*
X178224047Y-69493801D01*
X178337991Y-69534072D01*
X178466908Y-69592475D01*
X178479147Y-69598460D01*
X178557333Y-69638833D01*
X178621567Y-69677941D01*
X178681393Y-69722948D01*
X178746357Y-69781017D01*
X178823861Y-69857154D01*
X178913532Y-69951142D01*
X178981549Y-70032190D01*
X179035051Y-70109443D01*
X179073294Y-70176750D01*
X179162360Y-70384718D01*
X179217514Y-70601131D01*
X179238456Y-70821934D01*
X179224889Y-71043077D01*
X179176513Y-71260507D01*
X179157518Y-71317845D01*
X179074050Y-71501059D01*
X178959550Y-71674253D01*
X178818886Y-71832683D01*
X178656926Y-71971602D01*
X178478539Y-72086264D01*
X178288593Y-72171924D01*
X178277289Y-72175915D01*
X178149453Y-72208847D01*
X177999875Y-72228904D01*
X177840893Y-72235667D01*
X177840893Y-72544171D01*
X177977467Y-72542552D01*
X178108620Y-72533536D01*
X178208658Y-72518489D01*
X178434779Y-72452376D01*
X178650111Y-72353681D01*
X178850854Y-72225428D01*
X179033205Y-72070642D01*
X179193363Y-71892347D01*
X179327524Y-71693569D01*
X179386535Y-71581478D01*
X179471245Y-71363879D01*
X179524915Y-71134242D01*
X179547702Y-70898014D01*
X179539760Y-70660643D01*
X179539760Y-70660643D01*
G37*
X179539760Y-70660643D02*
X179501246Y-70427579D01*
X179432314Y-70204269D01*
X179341724Y-70011333D01*
X179205941Y-69804238D01*
X179044593Y-69620870D01*
X178860587Y-69463470D01*
X178656829Y-69334274D01*
X178436227Y-69235524D01*
X178268110Y-69184412D01*
X178127819Y-69159181D01*
X177965980Y-69145353D01*
X177795290Y-69142935D01*
X177628443Y-69151932D01*
X177478138Y-69172349D01*
X177424275Y-69184015D01*
X177200980Y-69255371D01*
X176997200Y-69355240D01*
X176808795Y-69486023D01*
X176645900Y-69635280D01*
X176479194Y-69830704D01*
X176345574Y-70040284D01*
X176243958Y-70265957D01*
X176184283Y-70462222D01*
X176166298Y-70563077D01*
X176154265Y-70687280D01*
X176148503Y-70822334D01*
X176149330Y-70955741D01*
X176157064Y-71075005D01*
X176166912Y-71144185D01*
X176226172Y-71375631D01*
X176312434Y-71587254D01*
X176428251Y-71783709D01*
X176576179Y-71969647D01*
X176677736Y-72074544D01*
X176861994Y-72232786D01*
X177054578Y-72357370D01*
X177259759Y-72450697D01*
X177447211Y-72507231D01*
X177556773Y-72526417D01*
X177689619Y-72538817D01*
X177833825Y-72544254D01*
X177840893Y-72544171D01*
X177840893Y-72235667D01*
X177684845Y-72228715D01*
X177544071Y-72207628D01*
X177519087Y-72201741D01*
X177314607Y-72131704D01*
X177121770Y-72029323D01*
X176945733Y-71897954D01*
X176791654Y-71740956D01*
X176769434Y-71713746D01*
X176685702Y-71602206D01*
X176622336Y-71501087D01*
X176572058Y-71397313D01*
X176528801Y-71281432D01*
X176478527Y-71077490D01*
X176459380Y-70863185D01*
X176471645Y-70647269D01*
X176502749Y-70485143D01*
X176568704Y-70295961D01*
X176665844Y-70113539D01*
X176789329Y-69943759D01*
X176934316Y-69792503D01*
X177095964Y-69665653D01*
X177249097Y-69578437D01*
X177373546Y-69524862D01*
X177488941Y-69488082D01*
X177607430Y-69465535D01*
X177741158Y-69454659D01*
X177845357Y-69452625D01*
X177990399Y-69455993D01*
X178112406Y-69468746D01*
X178224047Y-69493801D01*
X178337991Y-69534072D01*
X178466908Y-69592475D01*
X178479147Y-69598460D01*
X178557333Y-69638833D01*
X178621567Y-69677941D01*
X178681393Y-69722948D01*
X178746357Y-69781017D01*
X178823861Y-69857154D01*
X178913532Y-69951142D01*
X178981549Y-70032190D01*
X179035051Y-70109443D01*
X179073294Y-70176750D01*
X179162360Y-70384718D01*
X179217514Y-70601131D01*
X179238456Y-70821934D01*
X179224889Y-71043077D01*
X179176513Y-71260507D01*
X179157518Y-71317845D01*
X179074050Y-71501059D01*
X178959550Y-71674253D01*
X178818886Y-71832683D01*
X178656926Y-71971602D01*
X178478539Y-72086264D01*
X178288593Y-72171924D01*
X178277289Y-72175915D01*
X178149453Y-72208847D01*
X177999875Y-72228904D01*
X177840893Y-72235667D01*
X177840893Y-72544171D01*
X177977467Y-72542552D01*
X178108620Y-72533536D01*
X178208658Y-72518489D01*
X178434779Y-72452376D01*
X178650111Y-72353681D01*
X178850854Y-72225428D01*
X179033205Y-72070642D01*
X179193363Y-71892347D01*
X179327524Y-71693569D01*
X179386535Y-71581478D01*
X179471245Y-71363879D01*
X179524915Y-71134242D01*
X179547702Y-70898014D01*
X179539760Y-70660643D01*
G36*
X179529188Y-74234048D02*
X179488038Y-74035775D01*
X179476277Y-73996553D01*
X179387012Y-73772900D01*
X179267756Y-73564151D01*
X179121824Y-73374034D01*
X178952531Y-73206276D01*
X178763192Y-73064604D01*
X178557124Y-72952745D01*
X178541706Y-72945931D01*
X178321742Y-72868610D01*
X178091825Y-72822039D01*
X177857144Y-72805801D01*
X177622889Y-72819482D01*
X177394249Y-72862668D01*
X177176414Y-72934942D01*
X176974573Y-73035890D01*
X176911000Y-73076342D01*
X176723001Y-73224018D01*
X176558452Y-73395538D01*
X176418984Y-73586985D01*
X176306227Y-73794441D01*
X176221813Y-74013992D01*
X176167372Y-74241719D01*
X176144537Y-74473707D01*
X176154937Y-74706039D01*
X176176816Y-74839286D01*
X176246186Y-75085683D01*
X176346529Y-75313250D01*
X176477429Y-75521353D01*
X176638470Y-75709353D01*
X176829236Y-75876613D01*
X176877553Y-75912283D01*
X177078993Y-76034438D01*
X177296052Y-76125944D01*
X177524117Y-76186276D01*
X177758577Y-76214909D01*
X177874907Y-76213141D01*
X177874907Y-75907072D01*
X177666962Y-75895238D01*
X177461701Y-75850592D01*
X177262371Y-75772916D01*
X177072220Y-75661996D01*
X176994590Y-75604425D01*
X176837891Y-75457803D01*
X176703058Y-75286135D01*
X176594472Y-75096170D01*
X176516519Y-74894660D01*
X176503633Y-74848357D01*
X176477528Y-74703730D01*
X176466799Y-74541496D01*
X176471436Y-74376447D01*
X176491427Y-74223376D01*
X176504171Y-74167081D01*
X176556042Y-74013949D01*
X176630664Y-73854559D01*
X176720735Y-73702985D01*
X176801903Y-73593307D01*
X176952236Y-73439684D01*
X177122802Y-73314324D01*
X177309889Y-73218225D01*
X177509784Y-73152390D01*
X177718774Y-73117817D01*
X177933147Y-73115508D01*
X178149189Y-73146461D01*
X178301752Y-73189246D01*
X178475676Y-73262473D01*
X178636071Y-73360739D01*
X178790213Y-73488767D01*
X178843214Y-73540651D01*
X178986503Y-73708896D01*
X179096695Y-73889855D01*
X179174904Y-74086037D01*
X179222243Y-74299949D01*
X179235446Y-74424947D01*
X179233382Y-74648440D01*
X179196556Y-74863653D01*
X179125950Y-75067954D01*
X179022549Y-75258708D01*
X178887334Y-75433282D01*
X178841212Y-75481606D01*
X178668566Y-75630597D01*
X178482365Y-75747855D01*
X178285856Y-75833164D01*
X178082288Y-75886309D01*
X177874907Y-75907072D01*
X177874907Y-76213141D01*
X177994823Y-76211317D01*
X178228241Y-76174976D01*
X178454221Y-76105359D01*
X178480357Y-76094852D01*
X178700912Y-75985216D01*
X178902541Y-75847352D01*
X179082227Y-75684413D01*
X179236951Y-75499554D01*
X179363696Y-75295927D01*
X179459445Y-75076687D01*
X179462186Y-75068805D01*
X179513398Y-74875116D01*
X179541729Y-74664343D01*
X179547039Y-74447113D01*
X179529188Y-74234048D01*
X179529188Y-74234048D01*
G37*
X179529188Y-74234048D02*
X179488038Y-74035775D01*
X179476277Y-73996553D01*
X179387012Y-73772900D01*
X179267756Y-73564151D01*
X179121824Y-73374034D01*
X178952531Y-73206276D01*
X178763192Y-73064604D01*
X178557124Y-72952745D01*
X178541706Y-72945931D01*
X178321742Y-72868610D01*
X178091825Y-72822039D01*
X177857144Y-72805801D01*
X177622889Y-72819482D01*
X177394249Y-72862668D01*
X177176414Y-72934942D01*
X176974573Y-73035890D01*
X176911000Y-73076342D01*
X176723001Y-73224018D01*
X176558452Y-73395538D01*
X176418984Y-73586985D01*
X176306227Y-73794441D01*
X176221813Y-74013992D01*
X176167372Y-74241719D01*
X176144537Y-74473707D01*
X176154937Y-74706039D01*
X176176816Y-74839286D01*
X176246186Y-75085683D01*
X176346529Y-75313250D01*
X176477429Y-75521353D01*
X176638470Y-75709353D01*
X176829236Y-75876613D01*
X176877553Y-75912283D01*
X177078993Y-76034438D01*
X177296052Y-76125944D01*
X177524117Y-76186276D01*
X177758577Y-76214909D01*
X177874907Y-76213141D01*
X177874907Y-75907072D01*
X177666962Y-75895238D01*
X177461701Y-75850592D01*
X177262371Y-75772916D01*
X177072220Y-75661996D01*
X176994590Y-75604425D01*
X176837891Y-75457803D01*
X176703058Y-75286135D01*
X176594472Y-75096170D01*
X176516519Y-74894660D01*
X176503633Y-74848357D01*
X176477528Y-74703730D01*
X176466799Y-74541496D01*
X176471436Y-74376447D01*
X176491427Y-74223376D01*
X176504171Y-74167081D01*
X176556042Y-74013949D01*
X176630664Y-73854559D01*
X176720735Y-73702985D01*
X176801903Y-73593307D01*
X176952236Y-73439684D01*
X177122802Y-73314324D01*
X177309889Y-73218225D01*
X177509784Y-73152390D01*
X177718774Y-73117817D01*
X177933147Y-73115508D01*
X178149189Y-73146461D01*
X178301752Y-73189246D01*
X178475676Y-73262473D01*
X178636071Y-73360739D01*
X178790213Y-73488767D01*
X178843214Y-73540651D01*
X178986503Y-73708896D01*
X179096695Y-73889855D01*
X179174904Y-74086037D01*
X179222243Y-74299949D01*
X179235446Y-74424947D01*
X179233382Y-74648440D01*
X179196556Y-74863653D01*
X179125950Y-75067954D01*
X179022549Y-75258708D01*
X178887334Y-75433282D01*
X178841212Y-75481606D01*
X178668566Y-75630597D01*
X178482365Y-75747855D01*
X178285856Y-75833164D01*
X178082288Y-75886309D01*
X177874907Y-75907072D01*
X177874907Y-76213141D01*
X177994823Y-76211317D01*
X178228241Y-76174976D01*
X178454221Y-76105359D01*
X178480357Y-76094852D01*
X178700912Y-75985216D01*
X178902541Y-75847352D01*
X179082227Y-75684413D01*
X179236951Y-75499554D01*
X179363696Y-75295927D01*
X179459445Y-75076687D01*
X179462186Y-75068805D01*
X179513398Y-74875116D01*
X179541729Y-74664343D01*
X179547039Y-74447113D01*
X179529188Y-74234048D01*
G04 #@! TO.C,U1*
D11*
X167975000Y-54152857D02*
X167946428Y-54095714D01*
X167946428Y-54010000D01*
X167975000Y-53924285D01*
X168032142Y-53867142D01*
X168089285Y-53838571D01*
X168203571Y-53810000D01*
X168289285Y-53810000D01*
X168403571Y-53838571D01*
X168460714Y-53867142D01*
X168517857Y-53924285D01*
X168546428Y-54010000D01*
X168546428Y-54067142D01*
X168517857Y-54152857D01*
X168489285Y-54181428D01*
X168289285Y-54181428D01*
X168289285Y-54067142D01*
X168546428Y-54438571D02*
X167946428Y-54438571D01*
X168546428Y-54781428D01*
X167946428Y-54781428D01*
X168546428Y-55067142D02*
X167946428Y-55067142D01*
X167946428Y-55210000D01*
X167975000Y-55295714D01*
X168032142Y-55352857D01*
X168089285Y-55381428D01*
X168203571Y-55410000D01*
X168289285Y-55410000D01*
X168403571Y-55381428D01*
X168460714Y-55352857D01*
X168517857Y-55295714D01*
X168546428Y-55210000D01*
X168546428Y-55067142D01*
X166070000Y-54152857D02*
X166041428Y-54095714D01*
X166041428Y-54010000D01*
X166070000Y-53924285D01*
X166127142Y-53867142D01*
X166184285Y-53838571D01*
X166298571Y-53810000D01*
X166384285Y-53810000D01*
X166498571Y-53838571D01*
X166555714Y-53867142D01*
X166612857Y-53924285D01*
X166641428Y-54010000D01*
X166641428Y-54067142D01*
X166612857Y-54152857D01*
X166584285Y-54181428D01*
X166384285Y-54181428D01*
X166384285Y-54067142D01*
X166641428Y-54438571D02*
X166041428Y-54438571D01*
X166641428Y-54781428D01*
X166041428Y-54781428D01*
X166641428Y-55067142D02*
X166041428Y-55067142D01*
X166041428Y-55210000D01*
X166070000Y-55295714D01*
X166127142Y-55352857D01*
X166184285Y-55381428D01*
X166298571Y-55410000D01*
X166384285Y-55410000D01*
X166498571Y-55381428D01*
X166555714Y-55352857D01*
X166612857Y-55295714D01*
X166641428Y-55210000D01*
X166641428Y-55067142D01*
X163501428Y-53810000D02*
X164101428Y-54010000D01*
X163501428Y-54210000D01*
X164044285Y-54752857D02*
X164072857Y-54724285D01*
X164101428Y-54638571D01*
X164101428Y-54581428D01*
X164072857Y-54495714D01*
X164015714Y-54438571D01*
X163958571Y-54410000D01*
X163844285Y-54381428D01*
X163758571Y-54381428D01*
X163644285Y-54410000D01*
X163587142Y-54438571D01*
X163530000Y-54495714D01*
X163501428Y-54581428D01*
X163501428Y-54638571D01*
X163530000Y-54724285D01*
X163558571Y-54752857D01*
X164044285Y-55352857D02*
X164072857Y-55324285D01*
X164101428Y-55238571D01*
X164101428Y-55181428D01*
X164072857Y-55095714D01*
X164015714Y-55038571D01*
X163958571Y-55010000D01*
X163844285Y-54981428D01*
X163758571Y-54981428D01*
X163644285Y-55010000D01*
X163587142Y-55038571D01*
X163530000Y-55095714D01*
X163501428Y-55181428D01*
X163501428Y-55238571D01*
X163530000Y-55324285D01*
X163558571Y-55352857D01*
X161561428Y-54367142D02*
X161275714Y-54167142D01*
X161561428Y-54024285D02*
X160961428Y-54024285D01*
X160961428Y-54252857D01*
X160990000Y-54310000D01*
X161018571Y-54338571D01*
X161075714Y-54367142D01*
X161161428Y-54367142D01*
X161218571Y-54338571D01*
X161247142Y-54310000D01*
X161275714Y-54252857D01*
X161275714Y-54024285D01*
X160961428Y-54567142D02*
X161561428Y-54967142D01*
X160961428Y-54967142D02*
X161561428Y-54567142D01*
X161561428Y-55195714D02*
X160961428Y-55195714D01*
X158421428Y-53852857D02*
X158421428Y-54195714D01*
X159021428Y-54024285D02*
X158421428Y-54024285D01*
X158421428Y-54338571D02*
X159021428Y-54738571D01*
X158421428Y-54738571D02*
X159021428Y-54338571D01*
X159021428Y-54967142D02*
X158421428Y-54967142D01*
X158421428Y-55110000D01*
X158450000Y-55195714D01*
X158507142Y-55252857D01*
X158564285Y-55281428D01*
X158678571Y-55310000D01*
X158764285Y-55310000D01*
X158878571Y-55281428D01*
X158935714Y-55252857D01*
X158992857Y-55195714D01*
X159021428Y-55110000D01*
X159021428Y-54967142D01*
X157116428Y-53924285D02*
X156516428Y-53924285D01*
X156516428Y-54067142D01*
X156545000Y-54152857D01*
X156602142Y-54210000D01*
X156659285Y-54238571D01*
X156773571Y-54267142D01*
X156859285Y-54267142D01*
X156973571Y-54238571D01*
X157030714Y-54210000D01*
X157087857Y-54152857D01*
X157116428Y-54067142D01*
X157116428Y-53924285D01*
X156516428Y-54438571D02*
X156516428Y-54781428D01*
X157116428Y-54610000D02*
X156516428Y-54610000D01*
X157116428Y-55324285D02*
X156830714Y-55124285D01*
X157116428Y-54981428D02*
X156516428Y-54981428D01*
X156516428Y-55210000D01*
X156545000Y-55267142D01*
X156573571Y-55295714D01*
X156630714Y-55324285D01*
X156716428Y-55324285D01*
X156773571Y-55295714D01*
X156802142Y-55267142D01*
X156830714Y-55210000D01*
X156830714Y-54981428D01*
G04 #@! TO.C,Copy*
D13*
X178361242Y-78856000D02*
X179261242Y-79106000D01*
X178361242Y-79356000D01*
X179218385Y-79891714D02*
X179261242Y-79820285D01*
X179261242Y-79677428D01*
X179218385Y-79606000D01*
X179132671Y-79570285D01*
X178789814Y-79570285D01*
X178704100Y-79606000D01*
X178661242Y-79677428D01*
X178661242Y-79820285D01*
X178704100Y-79891714D01*
X178789814Y-79927428D01*
X178875528Y-79927428D01*
X178961242Y-79570285D01*
X179261242Y-80248857D02*
X178661242Y-80248857D01*
X178832671Y-80248857D02*
X178746957Y-80284571D01*
X178704100Y-80320285D01*
X178661242Y-80391714D01*
X178661242Y-80463142D01*
X179218385Y-80677428D02*
X179261242Y-80748857D01*
X179261242Y-80891714D01*
X179218385Y-80963142D01*
X179132671Y-80998857D01*
X179089814Y-80998857D01*
X179004100Y-80963142D01*
X178961242Y-80891714D01*
X178961242Y-80784571D01*
X178918385Y-80713142D01*
X178832671Y-80677428D01*
X178789814Y-80677428D01*
X178704100Y-80713142D01*
X178661242Y-80784571D01*
X178661242Y-80891714D01*
X178704100Y-80963142D01*
X179261242Y-81320285D02*
X178661242Y-81320285D01*
X178361242Y-81320285D02*
X178404100Y-81284571D01*
X178446957Y-81320285D01*
X178404100Y-81356000D01*
X178361242Y-81320285D01*
X178446957Y-81320285D01*
X179261242Y-81784571D02*
X179218385Y-81713142D01*
X179175528Y-81677428D01*
X179089814Y-81641714D01*
X178832671Y-81641714D01*
X178746957Y-81677428D01*
X178704100Y-81713142D01*
X178661242Y-81784571D01*
X178661242Y-81891714D01*
X178704100Y-81963142D01*
X178746957Y-81998857D01*
X178832671Y-82034571D01*
X179089814Y-82034571D01*
X179175528Y-81998857D01*
X179218385Y-81963142D01*
X179261242Y-81891714D01*
X179261242Y-81784571D01*
X178661242Y-82356000D02*
X179261242Y-82356000D01*
X178746957Y-82356000D02*
X178704100Y-82391714D01*
X178661242Y-82463142D01*
X178661242Y-82570285D01*
X178704100Y-82641714D01*
X178789814Y-82677428D01*
X179261242Y-82677428D01*
X179261242Y-83998857D02*
X179261242Y-83570285D01*
X179261242Y-83784571D02*
X178361242Y-83784571D01*
X178489814Y-83713142D01*
X178575528Y-83641714D01*
X178618385Y-83570285D01*
X179175528Y-84320285D02*
X179218385Y-84356000D01*
X179261242Y-84320285D01*
X179218385Y-84284571D01*
X179175528Y-84320285D01*
X179261242Y-84320285D01*
X178361242Y-84820285D02*
X178361242Y-84891714D01*
X178404100Y-84963142D01*
X178446957Y-84998857D01*
X178532671Y-85034571D01*
X178704100Y-85070285D01*
X178918385Y-85070285D01*
X179089814Y-85034571D01*
X179175528Y-84998857D01*
X179218385Y-84963142D01*
X179261242Y-84891714D01*
X179261242Y-84820285D01*
X179218385Y-84748857D01*
X179175528Y-84713142D01*
X179089814Y-84677428D01*
X178918385Y-84641714D01*
X178704100Y-84641714D01*
X178532671Y-84677428D01*
X178446957Y-84713142D01*
X178404100Y-84748857D01*
X178361242Y-84820285D01*
X179175528Y-85391714D02*
X179218385Y-85427428D01*
X179261242Y-85391714D01*
X179218385Y-85356000D01*
X179175528Y-85391714D01*
X179261242Y-85391714D01*
X178446957Y-85713142D02*
X178404100Y-85748857D01*
X178361242Y-85820285D01*
X178361242Y-85998857D01*
X178404100Y-86070285D01*
X178446957Y-86106000D01*
X178532671Y-86141714D01*
X178618385Y-86141714D01*
X178746957Y-86106000D01*
X179261242Y-85677428D01*
X179261242Y-86141714D01*
X178918385Y-87034571D02*
X178918385Y-87606000D01*
X178361242Y-88677428D02*
X178361242Y-88748857D01*
X178404100Y-88820285D01*
X178446957Y-88856000D01*
X178532671Y-88891714D01*
X178704100Y-88927428D01*
X178918385Y-88927428D01*
X179089814Y-88891714D01*
X179175528Y-88856000D01*
X179218385Y-88820285D01*
X179261242Y-88748857D01*
X179261242Y-88677428D01*
X179218385Y-88606000D01*
X179175528Y-88570285D01*
X179089814Y-88534571D01*
X178918385Y-88498857D01*
X178704100Y-88498857D01*
X178532671Y-88534571D01*
X178446957Y-88570285D01*
X178404100Y-88606000D01*
X178361242Y-88677428D01*
X178361242Y-89177428D02*
X178361242Y-89641714D01*
X178704100Y-89391714D01*
X178704100Y-89498857D01*
X178746957Y-89570285D01*
X178789814Y-89606000D01*
X178875528Y-89641714D01*
X179089814Y-89641714D01*
X179175528Y-89606000D01*
X179218385Y-89570285D01*
X179261242Y-89498857D01*
X179261242Y-89284571D01*
X179218385Y-89213142D01*
X179175528Y-89177428D01*
X178318385Y-90498857D02*
X179475528Y-89856000D01*
X178446957Y-90713142D02*
X178404100Y-90748857D01*
X178361242Y-90820285D01*
X178361242Y-90998857D01*
X178404100Y-91070285D01*
X178446957Y-91106000D01*
X178532671Y-91141714D01*
X178618385Y-91141714D01*
X178746957Y-91106000D01*
X179261242Y-90677428D01*
X179261242Y-91141714D01*
X178361242Y-91606000D02*
X178361242Y-91677428D01*
X178404100Y-91748857D01*
X178446957Y-91784571D01*
X178532671Y-91820285D01*
X178704100Y-91856000D01*
X178918385Y-91856000D01*
X179089814Y-91820285D01*
X179175528Y-91784571D01*
X179218385Y-91748857D01*
X179261242Y-91677428D01*
X179261242Y-91606000D01*
X179218385Y-91534571D01*
X179175528Y-91498857D01*
X179089814Y-91463142D01*
X178918385Y-91427428D01*
X178704100Y-91427428D01*
X178532671Y-91463142D01*
X178446957Y-91498857D01*
X178404100Y-91534571D01*
X178361242Y-91606000D01*
X179261242Y-92570285D02*
X179261242Y-92141714D01*
X179261242Y-92356000D02*
X178361242Y-92356000D01*
X178489814Y-92284571D01*
X178575528Y-92213142D01*
X178618385Y-92141714D01*
X179261242Y-92927428D02*
X179261242Y-93070285D01*
X179218385Y-93141714D01*
X179175528Y-93177428D01*
X179046957Y-93248857D01*
X178875528Y-93284571D01*
X178532671Y-93284571D01*
X178446957Y-93248857D01*
X178404100Y-93213142D01*
X178361242Y-93141714D01*
X178361242Y-92998857D01*
X178404100Y-92927428D01*
X178446957Y-92891714D01*
X178532671Y-92856000D01*
X178746957Y-92856000D01*
X178832671Y-92891714D01*
X178875528Y-92927428D01*
X178918385Y-92998857D01*
X178918385Y-93141714D01*
X178875528Y-93213142D01*
X178832671Y-93248857D01*
X178746957Y-93284571D01*
D11*
X176886428Y-79705000D02*
X176843571Y-79633571D01*
X176843571Y-79490714D01*
X176886428Y-79419285D01*
X176972142Y-79347857D01*
X177057857Y-79312142D01*
X177229285Y-79312142D01*
X177315000Y-79347857D01*
X177400714Y-79419285D01*
X177443571Y-79490714D01*
X177443571Y-79633571D01*
X177400714Y-79705000D01*
X176543571Y-79562142D02*
X176586428Y-79383571D01*
X176715000Y-79205000D01*
X176929285Y-79097857D01*
X177143571Y-79062142D01*
X177357857Y-79097857D01*
X177572142Y-79205000D01*
X177700714Y-79383571D01*
X177743571Y-79562142D01*
X177700714Y-79740714D01*
X177572142Y-79919285D01*
X177357857Y-80026428D01*
X177143571Y-80062142D01*
X176929285Y-80026428D01*
X176715000Y-79919285D01*
X176586428Y-79740714D01*
X176543571Y-79562142D01*
X177529285Y-80919285D02*
X177572142Y-81026428D01*
X177572142Y-81205000D01*
X177529285Y-81276428D01*
X177486428Y-81312142D01*
X177400714Y-81347857D01*
X177315000Y-81347857D01*
X177229285Y-81312142D01*
X177186428Y-81276428D01*
X177143571Y-81205000D01*
X177100714Y-81062142D01*
X177057857Y-80990714D01*
X177015000Y-80955000D01*
X176929285Y-80919285D01*
X176843571Y-80919285D01*
X176757857Y-80955000D01*
X176715000Y-80990714D01*
X176672142Y-81062142D01*
X176672142Y-81240714D01*
X176715000Y-81347857D01*
X177572142Y-81669285D02*
X176972142Y-81669285D01*
X176672142Y-81669285D02*
X176715000Y-81633571D01*
X176757857Y-81669285D01*
X176715000Y-81705000D01*
X176672142Y-81669285D01*
X176757857Y-81669285D01*
X177572142Y-82133571D02*
X177529285Y-82062142D01*
X177443571Y-82026428D01*
X176672142Y-82026428D01*
X176972142Y-82347857D02*
X177572142Y-82526428D01*
X176972142Y-82705000D01*
X177572142Y-82990714D02*
X176972142Y-82990714D01*
X176672142Y-82990714D02*
X176715000Y-82955000D01*
X176757857Y-82990714D01*
X176715000Y-83026428D01*
X176672142Y-82990714D01*
X176757857Y-82990714D01*
X177572142Y-83455000D02*
X177529285Y-83383571D01*
X177486428Y-83347857D01*
X177400714Y-83312142D01*
X177143571Y-83312142D01*
X177057857Y-83347857D01*
X177015000Y-83383571D01*
X176972142Y-83455000D01*
X176972142Y-83562142D01*
X177015000Y-83633571D01*
X177057857Y-83669285D01*
X177143571Y-83705000D01*
X177400714Y-83705000D01*
X177486428Y-83669285D01*
X177529285Y-83633571D01*
X177572142Y-83562142D01*
X177572142Y-83455000D01*
X177529285Y-84562142D02*
X177572142Y-84669285D01*
X177572142Y-84847857D01*
X177529285Y-84919285D01*
X177486428Y-84955000D01*
X177400714Y-84990714D01*
X177315000Y-84990714D01*
X177229285Y-84955000D01*
X177186428Y-84919285D01*
X177143571Y-84847857D01*
X177100714Y-84705000D01*
X177057857Y-84633571D01*
X177015000Y-84597857D01*
X176929285Y-84562142D01*
X176843571Y-84562142D01*
X176757857Y-84597857D01*
X176715000Y-84633571D01*
X176672142Y-84705000D01*
X176672142Y-84883571D01*
X176715000Y-84990714D01*
X176972142Y-85205000D02*
X176972142Y-85490714D01*
X176672142Y-85312142D02*
X177443571Y-85312142D01*
X177529285Y-85347857D01*
X177572142Y-85419285D01*
X177572142Y-85490714D01*
X177529285Y-86026428D02*
X177572142Y-85955000D01*
X177572142Y-85812142D01*
X177529285Y-85740714D01*
X177443571Y-85705000D01*
X177100714Y-85705000D01*
X177015000Y-85740714D01*
X176972142Y-85812142D01*
X176972142Y-85955000D01*
X177015000Y-86026428D01*
X177100714Y-86062142D01*
X177186428Y-86062142D01*
X177272142Y-85705000D01*
X177572142Y-86383571D02*
X176972142Y-86383571D01*
X177143571Y-86383571D02*
X177057857Y-86419285D01*
X177015000Y-86455000D01*
X176972142Y-86526428D01*
X176972142Y-86597857D01*
X176972142Y-86847857D02*
X177572142Y-86847857D01*
X177057857Y-86847857D02*
X177015000Y-86883571D01*
X176972142Y-86955000D01*
X176972142Y-87062142D01*
X177015000Y-87133571D01*
X177100714Y-87169285D01*
X177572142Y-87169285D01*
X177572142Y-87526428D02*
X176972142Y-87526428D01*
X176672142Y-87526428D02*
X176715000Y-87490714D01*
X176757857Y-87526428D01*
X176715000Y-87562142D01*
X176672142Y-87526428D01*
X176757857Y-87526428D01*
X176972142Y-87776428D02*
X176972142Y-88062142D01*
X176672142Y-87883571D02*
X177443571Y-87883571D01*
X177529285Y-87919285D01*
X177572142Y-87990714D01*
X177572142Y-88062142D01*
X176972142Y-88240714D02*
X176972142Y-88633571D01*
X177572142Y-88240714D01*
X177572142Y-88633571D01*
X177572142Y-88919285D02*
X176672142Y-88919285D01*
X177229285Y-88990714D02*
X177572142Y-89205000D01*
X176972142Y-89205000D02*
X177315000Y-88919285D01*
X177529285Y-89812142D02*
X177572142Y-89740714D01*
X177572142Y-89597857D01*
X177529285Y-89526428D01*
X177443571Y-89490714D01*
X177100714Y-89490714D01*
X177015000Y-89526428D01*
X176972142Y-89597857D01*
X176972142Y-89740714D01*
X177015000Y-89812142D01*
X177100714Y-89847857D01*
X177186428Y-89847857D01*
X177272142Y-89490714D01*
G04 #@! TD*
M02*
