G04 #@! TF.GenerationSoftware,KiCad,Pcbnew,(5.0.2)-1*
G04 #@! TF.CreationDate,2019-03-20T19:27:35+01:00*
G04 #@! TF.ProjectId,HB-UNI-Sen-Lev-Vo,48422d55-4e49-42d5-9365-6e2d4c65762d,V1.0.2*
G04 #@! TF.SameCoordinates,Original*
G04 #@! TF.FileFunction,Soldermask,Bot*
G04 #@! TF.FilePolarity,Negative*
%FSLAX46Y46*%
G04 Gerber Fmt 4.6, Leading zero omitted, Abs format (unit mm)*
G04 Created by KiCad (PCBNEW (5.0.2)-1) date 20.03.2019 19:27:35*
%MOMM*%
%LPD*%
G01*
G04 APERTURE LIST*
%ADD10C,0.100000*%
G04 APERTURE END LIST*
D10*
G36*
X152571767Y-101161899D02*
X152703891Y-101216627D01*
X152822799Y-101296079D01*
X152923921Y-101397201D01*
X153003373Y-101516109D01*
X153058101Y-101648233D01*
X153086000Y-101788494D01*
X153086000Y-101931506D01*
X153058101Y-102071767D01*
X153003373Y-102203891D01*
X152923921Y-102322799D01*
X152822799Y-102423921D01*
X152703891Y-102503373D01*
X152571767Y-102558101D01*
X152431506Y-102586000D01*
X152288494Y-102586000D01*
X152148233Y-102558101D01*
X152016109Y-102503373D01*
X151897201Y-102423921D01*
X151796079Y-102322799D01*
X151716627Y-102203891D01*
X151661899Y-102071767D01*
X151634000Y-101931506D01*
X151634000Y-101788494D01*
X151661899Y-101648233D01*
X151716627Y-101516109D01*
X151796079Y-101397201D01*
X151897201Y-101296079D01*
X152016109Y-101216627D01*
X152148233Y-101161899D01*
X152288494Y-101134000D01*
X152431506Y-101134000D01*
X152571767Y-101161899D01*
X152571767Y-101161899D01*
G37*
G36*
X177164239Y-95871467D02*
X177478282Y-95933934D01*
X178069926Y-96179001D01*
X178359523Y-96372504D01*
X178602395Y-96534786D01*
X179055214Y-96987605D01*
X179055216Y-96987608D01*
X179410999Y-97520074D01*
X179656066Y-98111718D01*
X179660989Y-98136467D01*
X179781000Y-98739803D01*
X179781000Y-99380197D01*
X179753965Y-99516109D01*
X179656066Y-100008282D01*
X179410999Y-100599926D01*
X179163599Y-100970185D01*
X179055214Y-101132395D01*
X178602395Y-101585214D01*
X178602392Y-101585216D01*
X178069926Y-101940999D01*
X177478282Y-102186066D01*
X177164239Y-102248533D01*
X176850197Y-102311000D01*
X176209803Y-102311000D01*
X175895761Y-102248533D01*
X175581718Y-102186066D01*
X174990074Y-101940999D01*
X174457608Y-101585216D01*
X174457605Y-101585214D01*
X174004786Y-101132395D01*
X173896401Y-100970185D01*
X173649001Y-100599926D01*
X173403934Y-100008282D01*
X173306035Y-99516109D01*
X173279000Y-99380197D01*
X173279000Y-98739803D01*
X173399011Y-98136467D01*
X173403934Y-98111718D01*
X173649001Y-97520074D01*
X174004784Y-96987608D01*
X174004786Y-96987605D01*
X174457605Y-96534786D01*
X174700477Y-96372504D01*
X174990074Y-96179001D01*
X175581718Y-95933934D01*
X175895761Y-95871467D01*
X176209803Y-95809000D01*
X176850197Y-95809000D01*
X177164239Y-95871467D01*
X177164239Y-95871467D01*
G37*
G36*
X128904239Y-95871467D02*
X129218282Y-95933934D01*
X129809926Y-96179001D01*
X130099523Y-96372504D01*
X130342395Y-96534786D01*
X130795214Y-96987605D01*
X130795216Y-96987608D01*
X131150999Y-97520074D01*
X131396066Y-98111718D01*
X131400989Y-98136467D01*
X131521000Y-98739803D01*
X131521000Y-99380197D01*
X131493965Y-99516109D01*
X131396066Y-100008282D01*
X131150999Y-100599926D01*
X130903599Y-100970185D01*
X130795214Y-101132395D01*
X130342395Y-101585214D01*
X130342392Y-101585216D01*
X129809926Y-101940999D01*
X129218282Y-102186066D01*
X128904239Y-102248533D01*
X128590197Y-102311000D01*
X127949803Y-102311000D01*
X127635761Y-102248533D01*
X127321718Y-102186066D01*
X126730074Y-101940999D01*
X126197608Y-101585216D01*
X126197605Y-101585214D01*
X125744786Y-101132395D01*
X125636401Y-100970185D01*
X125389001Y-100599926D01*
X125143934Y-100008282D01*
X125046035Y-99516109D01*
X125019000Y-99380197D01*
X125019000Y-98739803D01*
X125139011Y-98136467D01*
X125143934Y-98111718D01*
X125389001Y-97520074D01*
X125744784Y-96987608D01*
X125744786Y-96987605D01*
X126197605Y-96534786D01*
X126440477Y-96372504D01*
X126730074Y-96179001D01*
X127321718Y-95933934D01*
X127635761Y-95871467D01*
X127949803Y-95809000D01*
X128590197Y-95809000D01*
X128904239Y-95871467D01*
X128904239Y-95871467D01*
G37*
G36*
X147430443Y-99435519D02*
X147496627Y-99442037D01*
X147609853Y-99476384D01*
X147666467Y-99493557D01*
X147805087Y-99567652D01*
X147822991Y-99577222D01*
X147858729Y-99606552D01*
X147960186Y-99689814D01*
X148041169Y-99788494D01*
X148072778Y-99827009D01*
X148072779Y-99827011D01*
X148156443Y-99983533D01*
X148156443Y-99983534D01*
X148207963Y-100153373D01*
X148225359Y-100330000D01*
X148207963Y-100506627D01*
X148179661Y-100599925D01*
X148156443Y-100676467D01*
X148137110Y-100712636D01*
X148072778Y-100832991D01*
X148043448Y-100868729D01*
X147960186Y-100970186D01*
X147869569Y-101044552D01*
X147822991Y-101082778D01*
X147822989Y-101082779D01*
X147666467Y-101166443D01*
X147646486Y-101172504D01*
X147496627Y-101217963D01*
X147430443Y-101224481D01*
X147364260Y-101231000D01*
X147275740Y-101231000D01*
X147209558Y-101224482D01*
X147143373Y-101217963D01*
X146993514Y-101172504D01*
X146973533Y-101166443D01*
X146817011Y-101082779D01*
X146817009Y-101082778D01*
X146770431Y-101044552D01*
X146679814Y-100970186D01*
X146596552Y-100868729D01*
X146567222Y-100832991D01*
X146502890Y-100712636D01*
X146483557Y-100676467D01*
X146460339Y-100599925D01*
X146432037Y-100506627D01*
X146414641Y-100330000D01*
X146432037Y-100153373D01*
X146483557Y-99983534D01*
X146483557Y-99983533D01*
X146567221Y-99827011D01*
X146567222Y-99827009D01*
X146598831Y-99788494D01*
X146679814Y-99689814D01*
X146781271Y-99606552D01*
X146817009Y-99577222D01*
X146834913Y-99567652D01*
X146973533Y-99493557D01*
X147030147Y-99476384D01*
X147143373Y-99442037D01*
X147209558Y-99435518D01*
X147275740Y-99429000D01*
X147364260Y-99429000D01*
X147430443Y-99435519D01*
X147430443Y-99435519D01*
G37*
G36*
X152571767Y-99161899D02*
X152703891Y-99216627D01*
X152822799Y-99296079D01*
X152923921Y-99397201D01*
X153003373Y-99516109D01*
X153058101Y-99648233D01*
X153086000Y-99788494D01*
X153086000Y-99931506D01*
X153058101Y-100071767D01*
X153003373Y-100203891D01*
X152923921Y-100322799D01*
X152822799Y-100423921D01*
X152703891Y-100503373D01*
X152571767Y-100558101D01*
X152431506Y-100586000D01*
X152288494Y-100586000D01*
X152148233Y-100558101D01*
X152016109Y-100503373D01*
X151897201Y-100423921D01*
X151796079Y-100322799D01*
X151716627Y-100203891D01*
X151661899Y-100071767D01*
X151634000Y-99931506D01*
X151634000Y-99788494D01*
X151661899Y-99648233D01*
X151716627Y-99516109D01*
X151796079Y-99397201D01*
X151897201Y-99296079D01*
X152016109Y-99216627D01*
X152148233Y-99161899D01*
X152288494Y-99134000D01*
X152431506Y-99134000D01*
X152571767Y-99161899D01*
X152571767Y-99161899D01*
G37*
G36*
X147430442Y-96895518D02*
X147496627Y-96902037D01*
X147586422Y-96929276D01*
X147666467Y-96953557D01*
X147772650Y-97010314D01*
X147822991Y-97037222D01*
X147850345Y-97059671D01*
X147960186Y-97149814D01*
X148015017Y-97216627D01*
X148072778Y-97287009D01*
X148072779Y-97287011D01*
X148156443Y-97443533D01*
X148156443Y-97443534D01*
X148207963Y-97613373D01*
X148225359Y-97790000D01*
X148207963Y-97966627D01*
X148176069Y-98071766D01*
X148156443Y-98136467D01*
X148082348Y-98275087D01*
X148072778Y-98292991D01*
X148048316Y-98322798D01*
X147960186Y-98430186D01*
X147871006Y-98503373D01*
X147822991Y-98542778D01*
X147822989Y-98542779D01*
X147666467Y-98626443D01*
X147609853Y-98643616D01*
X147496627Y-98677963D01*
X147430442Y-98684482D01*
X147364260Y-98691000D01*
X147275740Y-98691000D01*
X147209558Y-98684482D01*
X147143373Y-98677963D01*
X147030147Y-98643616D01*
X146973533Y-98626443D01*
X146817011Y-98542779D01*
X146817009Y-98542778D01*
X146768994Y-98503373D01*
X146679814Y-98430186D01*
X146591684Y-98322798D01*
X146567222Y-98292991D01*
X146557652Y-98275087D01*
X146483557Y-98136467D01*
X146463931Y-98071766D01*
X146432037Y-97966627D01*
X146414641Y-97790000D01*
X146432037Y-97613373D01*
X146483557Y-97443534D01*
X146483557Y-97443533D01*
X146567221Y-97287011D01*
X146567222Y-97287009D01*
X146624983Y-97216627D01*
X146679814Y-97149814D01*
X146789655Y-97059671D01*
X146817009Y-97037222D01*
X146867350Y-97010314D01*
X146973533Y-96953557D01*
X147053578Y-96929276D01*
X147143373Y-96902037D01*
X147209558Y-96895518D01*
X147275740Y-96889000D01*
X147364260Y-96889000D01*
X147430442Y-96895518D01*
X147430442Y-96895518D01*
G37*
G36*
X152571767Y-97161899D02*
X152703891Y-97216627D01*
X152822799Y-97296079D01*
X152923921Y-97397201D01*
X153003373Y-97516109D01*
X153058101Y-97648233D01*
X153086000Y-97788494D01*
X153086000Y-97931506D01*
X153058101Y-98071767D01*
X153003373Y-98203891D01*
X152923921Y-98322799D01*
X152822799Y-98423921D01*
X152703891Y-98503373D01*
X152571767Y-98558101D01*
X152431506Y-98586000D01*
X152288494Y-98586000D01*
X152148233Y-98558101D01*
X152016109Y-98503373D01*
X151897201Y-98423921D01*
X151796079Y-98322799D01*
X151716627Y-98203891D01*
X151661899Y-98071767D01*
X151634000Y-97931506D01*
X151634000Y-97788494D01*
X151661899Y-97648233D01*
X151716627Y-97516109D01*
X151796079Y-97397201D01*
X151897201Y-97296079D01*
X152016109Y-97216627D01*
X152148233Y-97161899D01*
X152288494Y-97134000D01*
X152431506Y-97134000D01*
X152571767Y-97161899D01*
X152571767Y-97161899D01*
G37*
G36*
X171934000Y-97372500D02*
X168832000Y-97372500D01*
X168832000Y-94270500D01*
X171934000Y-94270500D01*
X171934000Y-97372500D01*
X171934000Y-97372500D01*
G37*
G36*
X152571767Y-95161899D02*
X152703891Y-95216627D01*
X152822799Y-95296079D01*
X152923921Y-95397201D01*
X153003373Y-95516109D01*
X153058101Y-95648233D01*
X153086000Y-95788494D01*
X153086000Y-95931506D01*
X153058101Y-96071767D01*
X153003373Y-96203891D01*
X152923921Y-96322799D01*
X152822799Y-96423921D01*
X152703891Y-96503373D01*
X152571767Y-96558101D01*
X152431506Y-96586000D01*
X152288494Y-96586000D01*
X152148233Y-96558101D01*
X152016109Y-96503373D01*
X151897201Y-96423921D01*
X151796079Y-96322799D01*
X151716627Y-96203891D01*
X151661899Y-96071767D01*
X151634000Y-95931506D01*
X151634000Y-95788494D01*
X151661899Y-95648233D01*
X151716627Y-95516109D01*
X151796079Y-95397201D01*
X151897201Y-95296079D01*
X152016109Y-95216627D01*
X152148233Y-95161899D01*
X152288494Y-95134000D01*
X152431506Y-95134000D01*
X152571767Y-95161899D01*
X152571767Y-95161899D01*
G37*
G36*
X147430442Y-94355518D02*
X147496627Y-94362037D01*
X147609853Y-94396384D01*
X147666467Y-94413557D01*
X147685856Y-94423921D01*
X147822991Y-94497222D01*
X147858729Y-94526552D01*
X147960186Y-94609814D01*
X148043448Y-94711271D01*
X148072778Y-94747009D01*
X148072779Y-94747011D01*
X148156443Y-94903533D01*
X148156443Y-94903534D01*
X148207963Y-95073373D01*
X148225359Y-95250000D01*
X148207963Y-95426627D01*
X148180819Y-95516109D01*
X148156443Y-95596467D01*
X148082348Y-95735087D01*
X148072778Y-95752991D01*
X148043641Y-95788494D01*
X147960186Y-95890186D01*
X147858729Y-95973448D01*
X147822991Y-96002778D01*
X147822989Y-96002779D01*
X147666467Y-96086443D01*
X147609853Y-96103616D01*
X147496627Y-96137963D01*
X147430443Y-96144481D01*
X147364260Y-96151000D01*
X147275740Y-96151000D01*
X147209558Y-96144482D01*
X147143373Y-96137963D01*
X147030147Y-96103616D01*
X146973533Y-96086443D01*
X146817011Y-96002779D01*
X146817009Y-96002778D01*
X146781271Y-95973448D01*
X146679814Y-95890186D01*
X146596359Y-95788494D01*
X146567222Y-95752991D01*
X146557652Y-95735087D01*
X146483557Y-95596467D01*
X146459181Y-95516109D01*
X146432037Y-95426627D01*
X146414641Y-95250000D01*
X146432037Y-95073373D01*
X146483557Y-94903534D01*
X146483557Y-94903533D01*
X146567221Y-94747011D01*
X146567222Y-94747009D01*
X146596552Y-94711271D01*
X146679814Y-94609814D01*
X146781271Y-94526552D01*
X146817009Y-94497222D01*
X146954144Y-94423921D01*
X146973533Y-94413557D01*
X147030147Y-94396384D01*
X147143373Y-94362037D01*
X147209557Y-94355519D01*
X147275740Y-94349000D01*
X147364260Y-94349000D01*
X147430442Y-94355518D01*
X147430442Y-94355518D01*
G37*
G36*
X152571767Y-93161899D02*
X152703891Y-93216627D01*
X152822799Y-93296079D01*
X152923921Y-93397201D01*
X153003373Y-93516109D01*
X153058101Y-93648233D01*
X153086000Y-93788494D01*
X153086000Y-93931506D01*
X153058101Y-94071767D01*
X153003373Y-94203891D01*
X152923921Y-94322799D01*
X152822799Y-94423921D01*
X152703891Y-94503373D01*
X152571767Y-94558101D01*
X152431506Y-94586000D01*
X152288494Y-94586000D01*
X152148233Y-94558101D01*
X152016109Y-94503373D01*
X151897201Y-94423921D01*
X151796079Y-94322799D01*
X151716627Y-94203891D01*
X151661899Y-94071767D01*
X151634000Y-93931506D01*
X151634000Y-93788494D01*
X151661899Y-93648233D01*
X151716627Y-93516109D01*
X151796079Y-93397201D01*
X151897201Y-93296079D01*
X152016109Y-93216627D01*
X152148233Y-93161899D01*
X152288494Y-93134000D01*
X152431506Y-93134000D01*
X152571767Y-93161899D01*
X152571767Y-93161899D01*
G37*
G36*
X143585000Y-93992000D02*
X141783000Y-93992000D01*
X141783000Y-92190000D01*
X143585000Y-92190000D01*
X143585000Y-93992000D01*
X143585000Y-93992000D01*
G37*
G36*
X147430442Y-91815518D02*
X147496627Y-91822037D01*
X147609853Y-91856384D01*
X147666467Y-91873557D01*
X147774878Y-91931505D01*
X147822991Y-91957222D01*
X147858729Y-91986552D01*
X147960186Y-92069814D01*
X148043448Y-92171271D01*
X148072778Y-92207009D01*
X148072779Y-92207011D01*
X148156443Y-92363533D01*
X148156443Y-92363534D01*
X148207963Y-92533373D01*
X148225359Y-92710000D01*
X148207963Y-92886627D01*
X148173616Y-92999853D01*
X148156443Y-93056467D01*
X148100087Y-93161900D01*
X148072778Y-93212991D01*
X148043448Y-93248729D01*
X147960186Y-93350186D01*
X147858729Y-93433448D01*
X147822991Y-93462778D01*
X147822989Y-93462779D01*
X147666467Y-93546443D01*
X147609853Y-93563616D01*
X147496627Y-93597963D01*
X147430442Y-93604482D01*
X147364260Y-93611000D01*
X147275740Y-93611000D01*
X147209557Y-93604481D01*
X147143373Y-93597963D01*
X147030147Y-93563616D01*
X146973533Y-93546443D01*
X146817011Y-93462779D01*
X146817009Y-93462778D01*
X146781271Y-93433448D01*
X146679814Y-93350186D01*
X146596552Y-93248729D01*
X146567222Y-93212991D01*
X146539913Y-93161900D01*
X146483557Y-93056467D01*
X146466384Y-92999853D01*
X146432037Y-92886627D01*
X146414641Y-92710000D01*
X146432037Y-92533373D01*
X146483557Y-92363534D01*
X146483557Y-92363533D01*
X146567221Y-92207011D01*
X146567222Y-92207009D01*
X146596552Y-92171271D01*
X146679814Y-92069814D01*
X146781271Y-91986552D01*
X146817009Y-91957222D01*
X146865122Y-91931505D01*
X146973533Y-91873557D01*
X147030147Y-91856384D01*
X147143373Y-91822037D01*
X147209558Y-91815518D01*
X147275740Y-91809000D01*
X147364260Y-91809000D01*
X147430442Y-91815518D01*
X147430442Y-91815518D01*
G37*
G36*
X152571767Y-91161899D02*
X152703891Y-91216627D01*
X152822799Y-91296079D01*
X152923921Y-91397201D01*
X153003373Y-91516109D01*
X153058101Y-91648233D01*
X153086000Y-91788494D01*
X153086000Y-91931506D01*
X153058101Y-92071767D01*
X153003373Y-92203891D01*
X152923921Y-92322799D01*
X152822799Y-92423921D01*
X152703891Y-92503373D01*
X152571767Y-92558101D01*
X152431506Y-92586000D01*
X152288494Y-92586000D01*
X152148233Y-92558101D01*
X152016109Y-92503373D01*
X151897201Y-92423921D01*
X151796079Y-92322799D01*
X151716627Y-92203891D01*
X151661899Y-92071767D01*
X151634000Y-91931506D01*
X151634000Y-91788494D01*
X151661899Y-91648233D01*
X151716627Y-91516109D01*
X151796079Y-91397201D01*
X151897201Y-91296079D01*
X152016109Y-91216627D01*
X152148233Y-91161899D01*
X152288494Y-91134000D01*
X152431506Y-91134000D01*
X152571767Y-91161899D01*
X152571767Y-91161899D01*
G37*
G36*
X142794443Y-89656519D02*
X142860627Y-89663037D01*
X142973853Y-89697384D01*
X143030467Y-89714557D01*
X143168791Y-89788494D01*
X143186991Y-89798222D01*
X143222729Y-89827552D01*
X143324186Y-89910814D01*
X143391939Y-89993373D01*
X143436778Y-90048009D01*
X143436779Y-90048011D01*
X143520443Y-90204533D01*
X143520443Y-90204534D01*
X143571963Y-90374373D01*
X143589359Y-90551000D01*
X143571963Y-90727627D01*
X143546919Y-90810185D01*
X143520443Y-90897467D01*
X143506913Y-90922779D01*
X143436778Y-91053991D01*
X143433518Y-91057963D01*
X143324186Y-91191186D01*
X143222729Y-91274448D01*
X143186991Y-91303778D01*
X143186989Y-91303779D01*
X143030467Y-91387443D01*
X142998295Y-91397202D01*
X142860627Y-91438963D01*
X142794443Y-91445481D01*
X142728260Y-91452000D01*
X142639740Y-91452000D01*
X142573557Y-91445481D01*
X142507373Y-91438963D01*
X142369705Y-91397202D01*
X142337533Y-91387443D01*
X142181011Y-91303779D01*
X142181009Y-91303778D01*
X142145271Y-91274448D01*
X142043814Y-91191186D01*
X141934482Y-91057963D01*
X141931222Y-91053991D01*
X141861087Y-90922779D01*
X141847557Y-90897467D01*
X141821081Y-90810185D01*
X141796037Y-90727627D01*
X141778641Y-90551000D01*
X141796037Y-90374373D01*
X141847557Y-90204534D01*
X141847557Y-90204533D01*
X141931221Y-90048011D01*
X141931222Y-90048009D01*
X141976061Y-89993373D01*
X142043814Y-89910814D01*
X142145271Y-89827552D01*
X142181009Y-89798222D01*
X142199209Y-89788494D01*
X142337533Y-89714557D01*
X142394147Y-89697384D01*
X142507373Y-89663037D01*
X142573557Y-89656519D01*
X142639740Y-89650000D01*
X142728260Y-89650000D01*
X142794443Y-89656519D01*
X142794443Y-89656519D01*
G37*
G36*
X147430443Y-89275519D02*
X147496627Y-89282037D01*
X147609853Y-89316384D01*
X147666467Y-89333557D01*
X147785535Y-89397201D01*
X147822991Y-89417222D01*
X147858729Y-89446552D01*
X147960186Y-89529814D01*
X148043448Y-89631271D01*
X148072778Y-89667009D01*
X148072779Y-89667011D01*
X148156443Y-89823533D01*
X148156443Y-89823534D01*
X148207963Y-89993373D01*
X148225359Y-90170000D01*
X148207963Y-90346627D01*
X148184516Y-90423921D01*
X148156443Y-90516467D01*
X148119276Y-90586000D01*
X148072778Y-90672991D01*
X148043448Y-90708729D01*
X147960186Y-90810186D01*
X147858729Y-90893448D01*
X147822991Y-90922778D01*
X147822989Y-90922779D01*
X147666467Y-91006443D01*
X147609853Y-91023616D01*
X147496627Y-91057963D01*
X147430442Y-91064482D01*
X147364260Y-91071000D01*
X147275740Y-91071000D01*
X147209558Y-91064482D01*
X147143373Y-91057963D01*
X147030147Y-91023616D01*
X146973533Y-91006443D01*
X146817011Y-90922779D01*
X146817009Y-90922778D01*
X146781271Y-90893448D01*
X146679814Y-90810186D01*
X146596552Y-90708729D01*
X146567222Y-90672991D01*
X146520724Y-90586000D01*
X146483557Y-90516467D01*
X146455484Y-90423921D01*
X146432037Y-90346627D01*
X146414641Y-90170000D01*
X146432037Y-89993373D01*
X146483557Y-89823534D01*
X146483557Y-89823533D01*
X146567221Y-89667011D01*
X146567222Y-89667009D01*
X146596552Y-89631271D01*
X146679814Y-89529814D01*
X146781271Y-89446552D01*
X146817009Y-89417222D01*
X146854465Y-89397201D01*
X146973533Y-89333557D01*
X147030147Y-89316384D01*
X147143373Y-89282037D01*
X147209557Y-89275519D01*
X147275740Y-89269000D01*
X147364260Y-89269000D01*
X147430443Y-89275519D01*
X147430443Y-89275519D01*
G37*
G36*
X152571767Y-89161899D02*
X152703891Y-89216627D01*
X152822799Y-89296079D01*
X152923921Y-89397201D01*
X153003373Y-89516109D01*
X153058101Y-89648233D01*
X153086000Y-89788494D01*
X153086000Y-89931506D01*
X153058101Y-90071767D01*
X153003373Y-90203891D01*
X152923921Y-90322799D01*
X152822799Y-90423921D01*
X152703891Y-90503373D01*
X152571767Y-90558101D01*
X152431506Y-90586000D01*
X152288494Y-90586000D01*
X152148233Y-90558101D01*
X152016109Y-90503373D01*
X151897201Y-90423921D01*
X151796079Y-90322799D01*
X151716627Y-90203891D01*
X151661899Y-90071767D01*
X151634000Y-89931506D01*
X151634000Y-89788494D01*
X151661899Y-89648233D01*
X151716627Y-89516109D01*
X151796079Y-89397201D01*
X151897201Y-89296079D01*
X152016109Y-89216627D01*
X152148233Y-89161899D01*
X152288494Y-89134000D01*
X152431506Y-89134000D01*
X152571767Y-89161899D01*
X152571767Y-89161899D01*
G37*
G36*
X142794443Y-87116519D02*
X142860627Y-87123037D01*
X142973853Y-87157384D01*
X143030467Y-87174557D01*
X143109173Y-87216627D01*
X143186991Y-87258222D01*
X143222729Y-87287552D01*
X143324186Y-87370814D01*
X143407448Y-87472271D01*
X143436778Y-87508009D01*
X143436779Y-87508011D01*
X143520443Y-87664533D01*
X143520443Y-87664534D01*
X143571963Y-87834373D01*
X143589359Y-88011000D01*
X143571963Y-88187627D01*
X143567029Y-88203891D01*
X143520443Y-88357467D01*
X143484922Y-88423921D01*
X143436778Y-88513991D01*
X143422819Y-88531000D01*
X143324186Y-88651186D01*
X143222729Y-88734448D01*
X143186991Y-88763778D01*
X143186989Y-88763779D01*
X143030467Y-88847443D01*
X142973853Y-88864616D01*
X142860627Y-88898963D01*
X142794442Y-88905482D01*
X142728260Y-88912000D01*
X142639740Y-88912000D01*
X142573558Y-88905482D01*
X142507373Y-88898963D01*
X142394147Y-88864616D01*
X142337533Y-88847443D01*
X142181011Y-88763779D01*
X142181009Y-88763778D01*
X142145271Y-88734448D01*
X142043814Y-88651186D01*
X141945181Y-88531000D01*
X141931222Y-88513991D01*
X141883078Y-88423921D01*
X141847557Y-88357467D01*
X141800971Y-88203891D01*
X141796037Y-88187627D01*
X141778641Y-88011000D01*
X141796037Y-87834373D01*
X141847557Y-87664534D01*
X141847557Y-87664533D01*
X141931221Y-87508011D01*
X141931222Y-87508009D01*
X141960552Y-87472271D01*
X142043814Y-87370814D01*
X142145271Y-87287552D01*
X142181009Y-87258222D01*
X142258827Y-87216627D01*
X142337533Y-87174557D01*
X142394147Y-87157384D01*
X142507373Y-87123037D01*
X142573557Y-87116519D01*
X142639740Y-87110000D01*
X142728260Y-87110000D01*
X142794443Y-87116519D01*
X142794443Y-87116519D01*
G37*
G36*
X152571767Y-87161899D02*
X152703891Y-87216627D01*
X152822799Y-87296079D01*
X152923921Y-87397201D01*
X153003373Y-87516109D01*
X153058101Y-87648233D01*
X153086000Y-87788494D01*
X153086000Y-87931506D01*
X153058101Y-88071767D01*
X153003373Y-88203891D01*
X152923921Y-88322799D01*
X152822799Y-88423921D01*
X152703891Y-88503373D01*
X152571767Y-88558101D01*
X152431506Y-88586000D01*
X152288494Y-88586000D01*
X152148233Y-88558101D01*
X152016109Y-88503373D01*
X151897201Y-88423921D01*
X151796079Y-88322799D01*
X151716627Y-88203891D01*
X151661899Y-88071767D01*
X151634000Y-87931506D01*
X151634000Y-87788494D01*
X151661899Y-87648233D01*
X151716627Y-87516109D01*
X151796079Y-87397201D01*
X151897201Y-87296079D01*
X152016109Y-87216627D01*
X152148233Y-87161899D01*
X152288494Y-87134000D01*
X152431506Y-87134000D01*
X152571767Y-87161899D01*
X152571767Y-87161899D01*
G37*
G36*
X148221000Y-88531000D02*
X146419000Y-88531000D01*
X146419000Y-86729000D01*
X148221000Y-86729000D01*
X148221000Y-88531000D01*
X148221000Y-88531000D01*
G37*
G36*
X142794443Y-84576519D02*
X142860627Y-84583037D01*
X142973853Y-84617384D01*
X143030467Y-84634557D01*
X143169087Y-84708652D01*
X143186991Y-84718222D01*
X143222729Y-84747552D01*
X143324186Y-84830814D01*
X143407448Y-84932271D01*
X143436778Y-84968009D01*
X143436779Y-84968011D01*
X143520443Y-85124533D01*
X143520443Y-85124534D01*
X143571963Y-85294373D01*
X143589359Y-85471000D01*
X143571963Y-85647627D01*
X143537616Y-85760853D01*
X143520443Y-85817467D01*
X143446348Y-85956087D01*
X143436778Y-85973991D01*
X143407448Y-86009729D01*
X143324186Y-86111186D01*
X143222729Y-86194448D01*
X143186991Y-86223778D01*
X143186989Y-86223779D01*
X143030467Y-86307443D01*
X142973853Y-86324616D01*
X142860627Y-86358963D01*
X142794443Y-86365481D01*
X142728260Y-86372000D01*
X142639740Y-86372000D01*
X142573557Y-86365481D01*
X142507373Y-86358963D01*
X142394147Y-86324616D01*
X142337533Y-86307443D01*
X142181011Y-86223779D01*
X142181009Y-86223778D01*
X142145271Y-86194448D01*
X142043814Y-86111186D01*
X141960552Y-86009729D01*
X141931222Y-85973991D01*
X141921652Y-85956087D01*
X141847557Y-85817467D01*
X141830384Y-85760853D01*
X141796037Y-85647627D01*
X141778641Y-85471000D01*
X141796037Y-85294373D01*
X141847557Y-85124534D01*
X141847557Y-85124533D01*
X141931221Y-84968011D01*
X141931222Y-84968009D01*
X141960552Y-84932271D01*
X142043814Y-84830814D01*
X142145271Y-84747552D01*
X142181009Y-84718222D01*
X142198913Y-84708652D01*
X142337533Y-84634557D01*
X142394147Y-84617384D01*
X142507373Y-84583037D01*
X142573557Y-84576519D01*
X142639740Y-84570000D01*
X142728260Y-84570000D01*
X142794443Y-84576519D01*
X142794443Y-84576519D01*
G37*
G36*
X150239890Y-81757517D02*
X150358361Y-81806589D01*
X150464992Y-81877838D01*
X150555662Y-81968508D01*
X150626911Y-82075139D01*
X150675983Y-82193610D01*
X150701000Y-82319381D01*
X150701000Y-82447619D01*
X150675983Y-82573390D01*
X150626911Y-82691861D01*
X150555662Y-82798492D01*
X150464992Y-82889162D01*
X150358361Y-82960411D01*
X150282061Y-82992015D01*
X150260450Y-83003566D01*
X150241508Y-83019111D01*
X150225963Y-83038053D01*
X150214411Y-83059664D01*
X150207298Y-83083113D01*
X150204896Y-83107499D01*
X150207298Y-83131886D01*
X150214411Y-83155335D01*
X150225962Y-83176946D01*
X150241507Y-83195888D01*
X150260449Y-83211433D01*
X150282060Y-83222985D01*
X150305509Y-83230098D01*
X150329896Y-83232500D01*
X150701000Y-83232500D01*
X150701000Y-84534500D01*
X149399000Y-84534500D01*
X149399000Y-83232500D01*
X149770104Y-83232500D01*
X149794490Y-83230098D01*
X149817939Y-83222985D01*
X149839550Y-83211434D01*
X149858492Y-83195888D01*
X149874038Y-83176946D01*
X149885589Y-83155335D01*
X149892702Y-83131886D01*
X149895104Y-83107500D01*
X149892702Y-83083114D01*
X149885589Y-83059665D01*
X149874038Y-83038054D01*
X149858492Y-83019112D01*
X149839550Y-83003566D01*
X149817939Y-82992015D01*
X149741639Y-82960411D01*
X149635008Y-82889162D01*
X149544338Y-82798492D01*
X149473089Y-82691861D01*
X149424017Y-82573390D01*
X149399000Y-82447619D01*
X149399000Y-82319381D01*
X149424017Y-82193610D01*
X149473089Y-82075139D01*
X149544338Y-81968508D01*
X149635008Y-81877838D01*
X149741639Y-81806589D01*
X149860110Y-81757517D01*
X149985881Y-81732500D01*
X150114119Y-81732500D01*
X150239890Y-81757517D01*
X150239890Y-81757517D01*
G37*
G36*
X165377396Y-81635546D02*
X165550466Y-81707234D01*
X165706230Y-81811312D01*
X165838688Y-81943770D01*
X165942766Y-82099534D01*
X166014454Y-82272604D01*
X166051000Y-82456333D01*
X166051000Y-82643667D01*
X166014454Y-82827396D01*
X165942766Y-83000466D01*
X165838688Y-83156230D01*
X165706230Y-83288688D01*
X165550466Y-83392766D01*
X165377396Y-83464454D01*
X165193667Y-83501000D01*
X165006333Y-83501000D01*
X164822604Y-83464454D01*
X164649534Y-83392766D01*
X164493770Y-83288688D01*
X164361312Y-83156230D01*
X164257234Y-83000466D01*
X164185546Y-82827396D01*
X164149000Y-82643667D01*
X164149000Y-82456333D01*
X164185546Y-82272604D01*
X164257234Y-82099534D01*
X164361312Y-81943770D01*
X164493770Y-81811312D01*
X164649534Y-81707234D01*
X164822604Y-81635546D01*
X165006333Y-81599000D01*
X165193667Y-81599000D01*
X165377396Y-81635546D01*
X165377396Y-81635546D01*
G37*
G36*
X155217396Y-81635546D02*
X155390466Y-81707234D01*
X155546230Y-81811312D01*
X155678688Y-81943770D01*
X155782766Y-82099534D01*
X155854454Y-82272604D01*
X155891000Y-82456333D01*
X155891000Y-82643667D01*
X155854454Y-82827396D01*
X155782766Y-83000466D01*
X155678688Y-83156230D01*
X155546230Y-83288688D01*
X155390466Y-83392766D01*
X155217396Y-83464454D01*
X155033667Y-83501000D01*
X154846333Y-83501000D01*
X154662604Y-83464454D01*
X154489534Y-83392766D01*
X154333770Y-83288688D01*
X154201312Y-83156230D01*
X154097234Y-83000466D01*
X154025546Y-82827396D01*
X153989000Y-82643667D01*
X153989000Y-82456333D01*
X154025546Y-82272604D01*
X154097234Y-82099534D01*
X154201312Y-81943770D01*
X154333770Y-81811312D01*
X154489534Y-81707234D01*
X154662604Y-81635546D01*
X154846333Y-81599000D01*
X155033667Y-81599000D01*
X155217396Y-81635546D01*
X155217396Y-81635546D01*
G37*
G36*
X170457396Y-81635546D02*
X170630466Y-81707234D01*
X170786230Y-81811312D01*
X170918688Y-81943770D01*
X171022766Y-82099534D01*
X171094454Y-82272604D01*
X171131000Y-82456333D01*
X171131000Y-82643667D01*
X171094454Y-82827396D01*
X171022766Y-83000466D01*
X170918688Y-83156230D01*
X170786230Y-83288688D01*
X170630466Y-83392766D01*
X170457396Y-83464454D01*
X170273667Y-83501000D01*
X170086333Y-83501000D01*
X169902604Y-83464454D01*
X169729534Y-83392766D01*
X169573770Y-83288688D01*
X169441312Y-83156230D01*
X169337234Y-83000466D01*
X169265546Y-82827396D01*
X169229000Y-82643667D01*
X169229000Y-82456333D01*
X169265546Y-82272604D01*
X169337234Y-82099534D01*
X169441312Y-81943770D01*
X169573770Y-81811312D01*
X169729534Y-81707234D01*
X169902604Y-81635546D01*
X170086333Y-81599000D01*
X170273667Y-81599000D01*
X170457396Y-81635546D01*
X170457396Y-81635546D01*
G37*
G36*
X167917396Y-81635546D02*
X168090466Y-81707234D01*
X168246230Y-81811312D01*
X168378688Y-81943770D01*
X168482766Y-82099534D01*
X168554454Y-82272604D01*
X168591000Y-82456333D01*
X168591000Y-82643667D01*
X168554454Y-82827396D01*
X168482766Y-83000466D01*
X168378688Y-83156230D01*
X168246230Y-83288688D01*
X168090466Y-83392766D01*
X167917396Y-83464454D01*
X167733667Y-83501000D01*
X167546333Y-83501000D01*
X167362604Y-83464454D01*
X167189534Y-83392766D01*
X167033770Y-83288688D01*
X166901312Y-83156230D01*
X166797234Y-83000466D01*
X166725546Y-82827396D01*
X166689000Y-82643667D01*
X166689000Y-82456333D01*
X166725546Y-82272604D01*
X166797234Y-82099534D01*
X166901312Y-81943770D01*
X167033770Y-81811312D01*
X167189534Y-81707234D01*
X167362604Y-81635546D01*
X167546333Y-81599000D01*
X167733667Y-81599000D01*
X167917396Y-81635546D01*
X167917396Y-81635546D01*
G37*
G36*
X155217396Y-79095546D02*
X155390466Y-79167234D01*
X155546230Y-79271312D01*
X155678688Y-79403770D01*
X155782766Y-79559534D01*
X155854454Y-79732604D01*
X155891000Y-79916333D01*
X155891000Y-80103667D01*
X155854454Y-80287396D01*
X155782766Y-80460466D01*
X155678688Y-80616230D01*
X155546230Y-80748688D01*
X155390466Y-80852766D01*
X155217396Y-80924454D01*
X155033667Y-80961000D01*
X154846333Y-80961000D01*
X154662604Y-80924454D01*
X154489534Y-80852766D01*
X154333770Y-80748688D01*
X154201312Y-80616230D01*
X154097234Y-80460466D01*
X154025546Y-80287396D01*
X153989000Y-80103667D01*
X153989000Y-79916333D01*
X154025546Y-79732604D01*
X154097234Y-79559534D01*
X154201312Y-79403770D01*
X154333770Y-79271312D01*
X154489534Y-79167234D01*
X154662604Y-79095546D01*
X154846333Y-79059000D01*
X155033667Y-79059000D01*
X155217396Y-79095546D01*
X155217396Y-79095546D01*
G37*
G36*
X170457396Y-79095546D02*
X170630466Y-79167234D01*
X170786230Y-79271312D01*
X170918688Y-79403770D01*
X171022766Y-79559534D01*
X171094454Y-79732604D01*
X171131000Y-79916333D01*
X171131000Y-80103667D01*
X171094454Y-80287396D01*
X171022766Y-80460466D01*
X170918688Y-80616230D01*
X170786230Y-80748688D01*
X170630466Y-80852766D01*
X170457396Y-80924454D01*
X170273667Y-80961000D01*
X170086333Y-80961000D01*
X169902604Y-80924454D01*
X169729534Y-80852766D01*
X169573770Y-80748688D01*
X169441312Y-80616230D01*
X169337234Y-80460466D01*
X169265546Y-80287396D01*
X169229000Y-80103667D01*
X169229000Y-79916333D01*
X169265546Y-79732604D01*
X169337234Y-79559534D01*
X169441312Y-79403770D01*
X169573770Y-79271312D01*
X169729534Y-79167234D01*
X169902604Y-79095546D01*
X170086333Y-79059000D01*
X170273667Y-79059000D01*
X170457396Y-79095546D01*
X170457396Y-79095546D01*
G37*
G36*
X145073821Y-78790313D02*
X145073824Y-78790314D01*
X145073825Y-78790314D01*
X145234239Y-78838975D01*
X145234241Y-78838976D01*
X145234244Y-78838977D01*
X145382078Y-78917995D01*
X145511659Y-79024341D01*
X145618005Y-79153922D01*
X145697023Y-79301756D01*
X145745687Y-79462179D01*
X145762117Y-79629000D01*
X145745687Y-79795821D01*
X145745686Y-79795824D01*
X145745686Y-79795825D01*
X145708707Y-79917730D01*
X145697023Y-79956244D01*
X145618005Y-80104078D01*
X145511659Y-80233659D01*
X145382078Y-80340005D01*
X145234244Y-80419023D01*
X145234241Y-80419024D01*
X145234239Y-80419025D01*
X145073825Y-80467686D01*
X145073824Y-80467686D01*
X145073821Y-80467687D01*
X144948804Y-80480000D01*
X144865196Y-80480000D01*
X144740179Y-80467687D01*
X144740176Y-80467686D01*
X144740175Y-80467686D01*
X144579761Y-80419025D01*
X144579759Y-80419024D01*
X144579756Y-80419023D01*
X144431922Y-80340005D01*
X144302341Y-80233659D01*
X144195995Y-80104078D01*
X144116977Y-79956244D01*
X144105294Y-79917730D01*
X144068314Y-79795825D01*
X144068314Y-79795824D01*
X144068313Y-79795821D01*
X144051883Y-79629000D01*
X144068313Y-79462179D01*
X144116977Y-79301756D01*
X144195995Y-79153922D01*
X144302341Y-79024341D01*
X144431922Y-78917995D01*
X144579756Y-78838977D01*
X144579759Y-78838976D01*
X144579761Y-78838975D01*
X144740175Y-78790314D01*
X144740176Y-78790314D01*
X144740179Y-78790313D01*
X144865196Y-78778000D01*
X144948804Y-78778000D01*
X145073821Y-78790313D01*
X145073821Y-78790313D01*
G37*
G36*
X150645396Y-78397046D02*
X150818466Y-78468734D01*
X150974230Y-78572812D01*
X151106688Y-78705270D01*
X151210766Y-78861034D01*
X151282454Y-79034104D01*
X151319000Y-79217833D01*
X151319000Y-79405167D01*
X151282454Y-79588896D01*
X151210766Y-79761966D01*
X151106688Y-79917730D01*
X150974230Y-80050188D01*
X150818466Y-80154266D01*
X150645396Y-80225954D01*
X150461667Y-80262500D01*
X150274333Y-80262500D01*
X150090604Y-80225954D01*
X149917534Y-80154266D01*
X149761770Y-80050188D01*
X149629312Y-79917730D01*
X149525234Y-79761966D01*
X149453546Y-79588896D01*
X149417000Y-79405167D01*
X149417000Y-79217833D01*
X149453546Y-79034104D01*
X149525234Y-78861034D01*
X149629312Y-78705270D01*
X149761770Y-78572812D01*
X149917534Y-78468734D01*
X150090604Y-78397046D01*
X150274333Y-78360500D01*
X150461667Y-78360500D01*
X150645396Y-78397046D01*
X150645396Y-78397046D01*
G37*
G36*
X139791000Y-79287000D02*
X136689000Y-79287000D01*
X136689000Y-77685000D01*
X139791000Y-77685000D01*
X139791000Y-79287000D01*
X139791000Y-79287000D01*
G37*
G36*
X134791000Y-79287000D02*
X131689000Y-79287000D01*
X131689000Y-77685000D01*
X134791000Y-77685000D01*
X134791000Y-79287000D01*
X134791000Y-79287000D01*
G37*
G36*
X170457396Y-76555546D02*
X170630466Y-76627234D01*
X170786230Y-76731312D01*
X170918688Y-76863770D01*
X171022766Y-77019534D01*
X171094454Y-77192604D01*
X171131000Y-77376333D01*
X171131000Y-77563667D01*
X171094454Y-77747396D01*
X171022766Y-77920466D01*
X170918688Y-78076230D01*
X170786230Y-78208688D01*
X170630466Y-78312766D01*
X170457396Y-78384454D01*
X170273667Y-78421000D01*
X170086333Y-78421000D01*
X169902604Y-78384454D01*
X169729534Y-78312766D01*
X169573770Y-78208688D01*
X169441312Y-78076230D01*
X169337234Y-77920466D01*
X169265546Y-77747396D01*
X169229000Y-77563667D01*
X169229000Y-77376333D01*
X169265546Y-77192604D01*
X169337234Y-77019534D01*
X169441312Y-76863770D01*
X169573770Y-76731312D01*
X169729534Y-76627234D01*
X169902604Y-76555546D01*
X170086333Y-76519000D01*
X170273667Y-76519000D01*
X170457396Y-76555546D01*
X170457396Y-76555546D01*
G37*
G36*
X155217396Y-76555546D02*
X155390466Y-76627234D01*
X155546230Y-76731312D01*
X155678688Y-76863770D01*
X155782766Y-77019534D01*
X155854454Y-77192604D01*
X155891000Y-77376333D01*
X155891000Y-77563667D01*
X155854454Y-77747396D01*
X155782766Y-77920466D01*
X155678688Y-78076230D01*
X155546230Y-78208688D01*
X155390466Y-78312766D01*
X155217396Y-78384454D01*
X155033667Y-78421000D01*
X154846333Y-78421000D01*
X154662604Y-78384454D01*
X154489534Y-78312766D01*
X154333770Y-78208688D01*
X154201312Y-78076230D01*
X154097234Y-77920466D01*
X154025546Y-77747396D01*
X153989000Y-77563667D01*
X153989000Y-77376333D01*
X154025546Y-77192604D01*
X154097234Y-77019534D01*
X154201312Y-76863770D01*
X154333770Y-76731312D01*
X154489534Y-76627234D01*
X154662604Y-76555546D01*
X154846333Y-76519000D01*
X155033667Y-76519000D01*
X155217396Y-76555546D01*
X155217396Y-76555546D01*
G37*
G36*
X145155228Y-76270703D02*
X145310100Y-76334853D01*
X145449481Y-76427985D01*
X145568015Y-76546519D01*
X145661147Y-76685900D01*
X145725297Y-76840772D01*
X145758000Y-77005184D01*
X145758000Y-77172816D01*
X145725297Y-77337228D01*
X145661147Y-77492100D01*
X145568015Y-77631481D01*
X145449481Y-77750015D01*
X145310100Y-77843147D01*
X145155228Y-77907297D01*
X144990816Y-77940000D01*
X144823184Y-77940000D01*
X144658772Y-77907297D01*
X144503900Y-77843147D01*
X144364519Y-77750015D01*
X144245985Y-77631481D01*
X144152853Y-77492100D01*
X144088703Y-77337228D01*
X144056000Y-77172816D01*
X144056000Y-77005184D01*
X144088703Y-76840772D01*
X144152853Y-76685900D01*
X144245985Y-76546519D01*
X144364519Y-76427985D01*
X144503900Y-76334853D01*
X144658772Y-76270703D01*
X144823184Y-76238000D01*
X144990816Y-76238000D01*
X145155228Y-76270703D01*
X145155228Y-76270703D01*
G37*
G36*
X151319000Y-77722500D02*
X149417000Y-77722500D01*
X149417000Y-75820500D01*
X151319000Y-75820500D01*
X151319000Y-77722500D01*
X151319000Y-77722500D01*
G37*
G36*
X167917396Y-75285546D02*
X168090466Y-75357234D01*
X168246230Y-75461312D01*
X168378688Y-75593770D01*
X168482766Y-75749534D01*
X168554454Y-75922604D01*
X168591000Y-76106333D01*
X168591000Y-76293667D01*
X168554454Y-76477396D01*
X168482766Y-76650466D01*
X168378688Y-76806230D01*
X168246230Y-76938688D01*
X168090466Y-77042766D01*
X167917396Y-77114454D01*
X167733667Y-77151000D01*
X167546333Y-77151000D01*
X167362604Y-77114454D01*
X167189534Y-77042766D01*
X167033770Y-76938688D01*
X166901312Y-76806230D01*
X166797234Y-76650466D01*
X166725546Y-76477396D01*
X166689000Y-76293667D01*
X166689000Y-76106333D01*
X166725546Y-75922604D01*
X166797234Y-75749534D01*
X166901312Y-75593770D01*
X167033770Y-75461312D01*
X167189534Y-75357234D01*
X167362604Y-75285546D01*
X167546333Y-75249000D01*
X167733667Y-75249000D01*
X167917396Y-75285546D01*
X167917396Y-75285546D01*
G37*
G36*
X155217396Y-74015546D02*
X155390466Y-74087234D01*
X155546230Y-74191312D01*
X155678688Y-74323770D01*
X155782766Y-74479534D01*
X155854454Y-74652604D01*
X155891000Y-74836333D01*
X155891000Y-75023667D01*
X155854454Y-75207396D01*
X155782766Y-75380466D01*
X155678688Y-75536230D01*
X155546230Y-75668688D01*
X155390466Y-75772766D01*
X155217396Y-75844454D01*
X155033667Y-75881000D01*
X154846333Y-75881000D01*
X154662604Y-75844454D01*
X154489534Y-75772766D01*
X154333770Y-75668688D01*
X154201312Y-75536230D01*
X154097234Y-75380466D01*
X154025546Y-75207396D01*
X153989000Y-75023667D01*
X153989000Y-74836333D01*
X154025546Y-74652604D01*
X154097234Y-74479534D01*
X154201312Y-74323770D01*
X154333770Y-74191312D01*
X154489534Y-74087234D01*
X154662604Y-74015546D01*
X154846333Y-73979000D01*
X155033667Y-73979000D01*
X155217396Y-74015546D01*
X155217396Y-74015546D01*
G37*
G36*
X170457396Y-74015546D02*
X170630466Y-74087234D01*
X170786230Y-74191312D01*
X170918688Y-74323770D01*
X171022766Y-74479534D01*
X171094454Y-74652604D01*
X171131000Y-74836333D01*
X171131000Y-75023667D01*
X171094454Y-75207396D01*
X171022766Y-75380466D01*
X170918688Y-75536230D01*
X170786230Y-75668688D01*
X170630466Y-75772766D01*
X170457396Y-75844454D01*
X170273667Y-75881000D01*
X170086333Y-75881000D01*
X169902604Y-75844454D01*
X169729534Y-75772766D01*
X169573770Y-75668688D01*
X169441312Y-75536230D01*
X169337234Y-75380466D01*
X169265546Y-75207396D01*
X169229000Y-75023667D01*
X169229000Y-74836333D01*
X169265546Y-74652604D01*
X169337234Y-74479534D01*
X169441312Y-74323770D01*
X169573770Y-74191312D01*
X169729534Y-74087234D01*
X169902604Y-74015546D01*
X170086333Y-73979000D01*
X170273667Y-73979000D01*
X170457396Y-74015546D01*
X170457396Y-74015546D01*
G37*
G36*
X145063565Y-72585889D02*
X145254834Y-72665115D01*
X145426976Y-72780137D01*
X145573363Y-72926524D01*
X145688385Y-73098666D01*
X145767611Y-73289935D01*
X145808000Y-73492984D01*
X145808000Y-73700016D01*
X145767611Y-73903065D01*
X145688385Y-74094334D01*
X145573363Y-74266476D01*
X145426976Y-74412863D01*
X145254834Y-74527885D01*
X145063565Y-74607111D01*
X144860516Y-74647500D01*
X144653484Y-74647500D01*
X144450435Y-74607111D01*
X144259166Y-74527885D01*
X144087024Y-74412863D01*
X143940637Y-74266476D01*
X143825615Y-74094334D01*
X143746389Y-73903065D01*
X143706000Y-73700016D01*
X143706000Y-73492984D01*
X143746389Y-73289935D01*
X143825615Y-73098666D01*
X143940637Y-72926524D01*
X144087024Y-72780137D01*
X144259166Y-72665115D01*
X144450435Y-72585889D01*
X144653484Y-72545500D01*
X144860516Y-72545500D01*
X145063565Y-72585889D01*
X145063565Y-72585889D01*
G37*
G36*
X151563565Y-72585889D02*
X151754834Y-72665115D01*
X151926976Y-72780137D01*
X152073363Y-72926524D01*
X152188385Y-73098666D01*
X152267611Y-73289935D01*
X152308000Y-73492984D01*
X152308000Y-73700016D01*
X152267611Y-73903065D01*
X152188385Y-74094334D01*
X152073363Y-74266476D01*
X151926976Y-74412863D01*
X151754834Y-74527885D01*
X151563565Y-74607111D01*
X151360516Y-74647500D01*
X151153484Y-74647500D01*
X150950435Y-74607111D01*
X150759166Y-74527885D01*
X150587024Y-74412863D01*
X150440637Y-74266476D01*
X150325615Y-74094334D01*
X150246389Y-73903065D01*
X150206000Y-73700016D01*
X150206000Y-73492984D01*
X150246389Y-73289935D01*
X150325615Y-73098666D01*
X150440637Y-72926524D01*
X150587024Y-72780137D01*
X150759166Y-72665115D01*
X150950435Y-72585889D01*
X151153484Y-72545500D01*
X151360516Y-72545500D01*
X151563565Y-72585889D01*
X151563565Y-72585889D01*
G37*
G36*
X167917396Y-72745546D02*
X168090466Y-72817234D01*
X168246230Y-72921312D01*
X168378688Y-73053770D01*
X168482766Y-73209534D01*
X168554454Y-73382604D01*
X168591000Y-73566333D01*
X168591000Y-73753667D01*
X168554454Y-73937396D01*
X168482766Y-74110466D01*
X168378688Y-74266230D01*
X168246230Y-74398688D01*
X168090466Y-74502766D01*
X167917396Y-74574454D01*
X167733667Y-74611000D01*
X167546333Y-74611000D01*
X167362604Y-74574454D01*
X167189534Y-74502766D01*
X167033770Y-74398688D01*
X166901312Y-74266230D01*
X166797234Y-74110466D01*
X166725546Y-73937396D01*
X166689000Y-73753667D01*
X166689000Y-73566333D01*
X166725546Y-73382604D01*
X166797234Y-73209534D01*
X166901312Y-73053770D01*
X167033770Y-72921312D01*
X167189534Y-72817234D01*
X167362604Y-72745546D01*
X167546333Y-72709000D01*
X167733667Y-72709000D01*
X167917396Y-72745546D01*
X167917396Y-72745546D01*
G37*
G36*
X134147025Y-72696590D02*
X134298012Y-72742392D01*
X134437165Y-72816770D01*
X134559133Y-72916867D01*
X134659230Y-73038835D01*
X134733608Y-73177988D01*
X134779410Y-73328975D01*
X134794875Y-73486000D01*
X134779410Y-73643025D01*
X134733608Y-73794012D01*
X134659230Y-73933165D01*
X134559133Y-74055133D01*
X134437165Y-74155230D01*
X134298012Y-74229608D01*
X134147025Y-74275410D01*
X134029346Y-74287000D01*
X132450654Y-74287000D01*
X132332975Y-74275410D01*
X132181988Y-74229608D01*
X132042835Y-74155230D01*
X131920867Y-74055133D01*
X131820770Y-73933165D01*
X131746392Y-73794012D01*
X131700590Y-73643025D01*
X131685125Y-73486000D01*
X131700590Y-73328975D01*
X131746392Y-73177988D01*
X131820770Y-73038835D01*
X131920867Y-72916867D01*
X132042835Y-72816770D01*
X132181988Y-72742392D01*
X132332975Y-72696590D01*
X132450654Y-72685000D01*
X134029346Y-72685000D01*
X134147025Y-72696590D01*
X134147025Y-72696590D01*
G37*
G36*
X139147025Y-72696590D02*
X139298012Y-72742392D01*
X139437165Y-72816770D01*
X139559133Y-72916867D01*
X139659230Y-73038835D01*
X139733608Y-73177988D01*
X139779410Y-73328975D01*
X139794875Y-73486000D01*
X139779410Y-73643025D01*
X139733608Y-73794012D01*
X139659230Y-73933165D01*
X139559133Y-74055133D01*
X139437165Y-74155230D01*
X139298012Y-74229608D01*
X139147025Y-74275410D01*
X139029346Y-74287000D01*
X137450654Y-74287000D01*
X137332975Y-74275410D01*
X137181988Y-74229608D01*
X137042835Y-74155230D01*
X136920867Y-74055133D01*
X136820770Y-73933165D01*
X136746392Y-73794012D01*
X136700590Y-73643025D01*
X136685125Y-73486000D01*
X136700590Y-73328975D01*
X136746392Y-73177988D01*
X136820770Y-73038835D01*
X136920867Y-72916867D01*
X137042835Y-72816770D01*
X137181988Y-72742392D01*
X137332975Y-72696590D01*
X137450654Y-72685000D01*
X139029346Y-72685000D01*
X139147025Y-72696590D01*
X139147025Y-72696590D01*
G37*
G36*
X155217396Y-71475546D02*
X155390466Y-71547234D01*
X155546230Y-71651312D01*
X155678688Y-71783770D01*
X155782766Y-71939534D01*
X155854454Y-72112604D01*
X155891000Y-72296333D01*
X155891000Y-72483667D01*
X155854454Y-72667396D01*
X155782766Y-72840466D01*
X155678688Y-72996230D01*
X155546230Y-73128688D01*
X155390466Y-73232766D01*
X155217396Y-73304454D01*
X155033667Y-73341000D01*
X154846333Y-73341000D01*
X154662604Y-73304454D01*
X154489534Y-73232766D01*
X154333770Y-73128688D01*
X154201312Y-72996230D01*
X154097234Y-72840466D01*
X154025546Y-72667396D01*
X153989000Y-72483667D01*
X153989000Y-72296333D01*
X154025546Y-72112604D01*
X154097234Y-71939534D01*
X154201312Y-71783770D01*
X154333770Y-71651312D01*
X154489534Y-71547234D01*
X154662604Y-71475546D01*
X154846333Y-71439000D01*
X155033667Y-71439000D01*
X155217396Y-71475546D01*
X155217396Y-71475546D01*
G37*
G36*
X170457396Y-71475546D02*
X170630466Y-71547234D01*
X170786230Y-71651312D01*
X170918688Y-71783770D01*
X171022766Y-71939534D01*
X171094454Y-72112604D01*
X171131000Y-72296333D01*
X171131000Y-72483667D01*
X171094454Y-72667396D01*
X171022766Y-72840466D01*
X170918688Y-72996230D01*
X170786230Y-73128688D01*
X170630466Y-73232766D01*
X170457396Y-73304454D01*
X170273667Y-73341000D01*
X170086333Y-73341000D01*
X169902604Y-73304454D01*
X169729534Y-73232766D01*
X169573770Y-73128688D01*
X169441312Y-72996230D01*
X169337234Y-72840466D01*
X169265546Y-72667396D01*
X169229000Y-72483667D01*
X169229000Y-72296333D01*
X169265546Y-72112604D01*
X169337234Y-71939534D01*
X169441312Y-71783770D01*
X169573770Y-71651312D01*
X169729534Y-71547234D01*
X169902604Y-71475546D01*
X170086333Y-71439000D01*
X170273667Y-71439000D01*
X170457396Y-71475546D01*
X170457396Y-71475546D01*
G37*
G36*
X155217396Y-68935546D02*
X155390466Y-69007234D01*
X155546230Y-69111312D01*
X155678688Y-69243770D01*
X155782766Y-69399534D01*
X155854454Y-69572604D01*
X155891000Y-69756333D01*
X155891000Y-69943667D01*
X155854454Y-70127396D01*
X155782766Y-70300466D01*
X155678688Y-70456230D01*
X155546230Y-70588688D01*
X155390466Y-70692766D01*
X155217396Y-70764454D01*
X155033667Y-70801000D01*
X154846333Y-70801000D01*
X154662604Y-70764454D01*
X154489534Y-70692766D01*
X154333770Y-70588688D01*
X154201312Y-70456230D01*
X154097234Y-70300466D01*
X154025546Y-70127396D01*
X153989000Y-69943667D01*
X153989000Y-69756333D01*
X154025546Y-69572604D01*
X154097234Y-69399534D01*
X154201312Y-69243770D01*
X154333770Y-69111312D01*
X154489534Y-69007234D01*
X154662604Y-68935546D01*
X154846333Y-68899000D01*
X155033667Y-68899000D01*
X155217396Y-68935546D01*
X155217396Y-68935546D01*
G37*
G36*
X170457396Y-68935546D02*
X170630466Y-69007234D01*
X170786230Y-69111312D01*
X170918688Y-69243770D01*
X171022766Y-69399534D01*
X171094454Y-69572604D01*
X171131000Y-69756333D01*
X171131000Y-69943667D01*
X171094454Y-70127396D01*
X171022766Y-70300466D01*
X170918688Y-70456230D01*
X170786230Y-70588688D01*
X170630466Y-70692766D01*
X170457396Y-70764454D01*
X170273667Y-70801000D01*
X170086333Y-70801000D01*
X169902604Y-70764454D01*
X169729534Y-70692766D01*
X169573770Y-70588688D01*
X169441312Y-70456230D01*
X169337234Y-70300466D01*
X169265546Y-70127396D01*
X169229000Y-69943667D01*
X169229000Y-69756333D01*
X169265546Y-69572604D01*
X169337234Y-69399534D01*
X169441312Y-69243770D01*
X169573770Y-69111312D01*
X169729534Y-69007234D01*
X169902604Y-68935546D01*
X170086333Y-68899000D01*
X170273667Y-68899000D01*
X170457396Y-68935546D01*
X170457396Y-68935546D01*
G37*
G36*
X145063565Y-68085889D02*
X145254834Y-68165115D01*
X145426976Y-68280137D01*
X145573363Y-68426524D01*
X145688385Y-68598666D01*
X145767611Y-68789935D01*
X145808000Y-68992984D01*
X145808000Y-69200016D01*
X145767611Y-69403065D01*
X145688385Y-69594334D01*
X145573363Y-69766476D01*
X145426976Y-69912863D01*
X145254834Y-70027885D01*
X145063565Y-70107111D01*
X144860516Y-70147500D01*
X144653484Y-70147500D01*
X144450435Y-70107111D01*
X144259166Y-70027885D01*
X144087024Y-69912863D01*
X143940637Y-69766476D01*
X143825615Y-69594334D01*
X143746389Y-69403065D01*
X143706000Y-69200016D01*
X143706000Y-68992984D01*
X143746389Y-68789935D01*
X143825615Y-68598666D01*
X143940637Y-68426524D01*
X144087024Y-68280137D01*
X144259166Y-68165115D01*
X144450435Y-68085889D01*
X144653484Y-68045500D01*
X144860516Y-68045500D01*
X145063565Y-68085889D01*
X145063565Y-68085889D01*
G37*
G36*
X151563565Y-68085889D02*
X151754834Y-68165115D01*
X151926976Y-68280137D01*
X152073363Y-68426524D01*
X152188385Y-68598666D01*
X152267611Y-68789935D01*
X152308000Y-68992984D01*
X152308000Y-69200016D01*
X152267611Y-69403065D01*
X152188385Y-69594334D01*
X152073363Y-69766476D01*
X151926976Y-69912863D01*
X151754834Y-70027885D01*
X151563565Y-70107111D01*
X151360516Y-70147500D01*
X151153484Y-70147500D01*
X150950435Y-70107111D01*
X150759166Y-70027885D01*
X150587024Y-69912863D01*
X150440637Y-69766476D01*
X150325615Y-69594334D01*
X150246389Y-69403065D01*
X150206000Y-69200016D01*
X150206000Y-68992984D01*
X150246389Y-68789935D01*
X150325615Y-68598666D01*
X150440637Y-68426524D01*
X150587024Y-68280137D01*
X150759166Y-68165115D01*
X150950435Y-68085889D01*
X151153484Y-68045500D01*
X151360516Y-68045500D01*
X151563565Y-68085889D01*
X151563565Y-68085889D01*
G37*
G36*
X134147025Y-67696590D02*
X134298012Y-67742392D01*
X134437165Y-67816770D01*
X134559133Y-67916867D01*
X134659230Y-68038835D01*
X134733608Y-68177988D01*
X134779410Y-68328975D01*
X134794875Y-68486000D01*
X134779410Y-68643025D01*
X134733608Y-68794012D01*
X134659230Y-68933165D01*
X134559133Y-69055133D01*
X134437165Y-69155230D01*
X134298012Y-69229608D01*
X134147025Y-69275410D01*
X134029346Y-69287000D01*
X132450654Y-69287000D01*
X132332975Y-69275410D01*
X132181988Y-69229608D01*
X132042835Y-69155230D01*
X131920867Y-69055133D01*
X131820770Y-68933165D01*
X131746392Y-68794012D01*
X131700590Y-68643025D01*
X131685125Y-68486000D01*
X131700590Y-68328975D01*
X131746392Y-68177988D01*
X131820770Y-68038835D01*
X131920867Y-67916867D01*
X132042835Y-67816770D01*
X132181988Y-67742392D01*
X132332975Y-67696590D01*
X132450654Y-67685000D01*
X134029346Y-67685000D01*
X134147025Y-67696590D01*
X134147025Y-67696590D01*
G37*
G36*
X139147025Y-67696590D02*
X139298012Y-67742392D01*
X139437165Y-67816770D01*
X139559133Y-67916867D01*
X139659230Y-68038835D01*
X139733608Y-68177988D01*
X139779410Y-68328975D01*
X139794875Y-68486000D01*
X139779410Y-68643025D01*
X139733608Y-68794012D01*
X139659230Y-68933165D01*
X139559133Y-69055133D01*
X139437165Y-69155230D01*
X139298012Y-69229608D01*
X139147025Y-69275410D01*
X139029346Y-69287000D01*
X137450654Y-69287000D01*
X137332975Y-69275410D01*
X137181988Y-69229608D01*
X137042835Y-69155230D01*
X136920867Y-69055133D01*
X136820770Y-68933165D01*
X136746392Y-68794012D01*
X136700590Y-68643025D01*
X136685125Y-68486000D01*
X136700590Y-68328975D01*
X136746392Y-68177988D01*
X136820770Y-68038835D01*
X136920867Y-67916867D01*
X137042835Y-67816770D01*
X137181988Y-67742392D01*
X137332975Y-67696590D01*
X137450654Y-67685000D01*
X139029346Y-67685000D01*
X139147025Y-67696590D01*
X139147025Y-67696590D01*
G37*
G36*
X170457396Y-66395546D02*
X170630466Y-66467234D01*
X170786230Y-66571312D01*
X170918688Y-66703770D01*
X171022766Y-66859534D01*
X171094454Y-67032604D01*
X171131000Y-67216333D01*
X171131000Y-67403667D01*
X171094454Y-67587396D01*
X171022766Y-67760466D01*
X170918688Y-67916230D01*
X170786230Y-68048688D01*
X170630466Y-68152766D01*
X170457396Y-68224454D01*
X170273667Y-68261000D01*
X170086333Y-68261000D01*
X169902604Y-68224454D01*
X169729534Y-68152766D01*
X169573770Y-68048688D01*
X169441312Y-67916230D01*
X169337234Y-67760466D01*
X169265546Y-67587396D01*
X169229000Y-67403667D01*
X169229000Y-67216333D01*
X169265546Y-67032604D01*
X169337234Y-66859534D01*
X169441312Y-66703770D01*
X169573770Y-66571312D01*
X169729534Y-66467234D01*
X169902604Y-66395546D01*
X170086333Y-66359000D01*
X170273667Y-66359000D01*
X170457396Y-66395546D01*
X170457396Y-66395546D01*
G37*
G36*
X155217396Y-66395546D02*
X155390466Y-66467234D01*
X155546230Y-66571312D01*
X155678688Y-66703770D01*
X155782766Y-66859534D01*
X155854454Y-67032604D01*
X155891000Y-67216333D01*
X155891000Y-67403667D01*
X155854454Y-67587396D01*
X155782766Y-67760466D01*
X155678688Y-67916230D01*
X155546230Y-68048688D01*
X155390466Y-68152766D01*
X155217396Y-68224454D01*
X155033667Y-68261000D01*
X154846333Y-68261000D01*
X154662604Y-68224454D01*
X154489534Y-68152766D01*
X154333770Y-68048688D01*
X154201312Y-67916230D01*
X154097234Y-67760466D01*
X154025546Y-67587396D01*
X153989000Y-67403667D01*
X153989000Y-67216333D01*
X154025546Y-67032604D01*
X154097234Y-66859534D01*
X154201312Y-66703770D01*
X154333770Y-66571312D01*
X154489534Y-66467234D01*
X154662604Y-66395546D01*
X154846333Y-66359000D01*
X155033667Y-66359000D01*
X155217396Y-66395546D01*
X155217396Y-66395546D01*
G37*
G36*
X167917396Y-65125546D02*
X168090466Y-65197234D01*
X168246230Y-65301312D01*
X168378688Y-65433770D01*
X168482766Y-65589534D01*
X168554454Y-65762604D01*
X168591000Y-65946333D01*
X168591000Y-66133667D01*
X168554454Y-66317396D01*
X168482766Y-66490466D01*
X168378688Y-66646230D01*
X168246230Y-66778688D01*
X168090466Y-66882766D01*
X167917396Y-66954454D01*
X167733667Y-66991000D01*
X167546333Y-66991000D01*
X167362604Y-66954454D01*
X167189534Y-66882766D01*
X167033770Y-66778688D01*
X166901312Y-66646230D01*
X166797234Y-66490466D01*
X166725546Y-66317396D01*
X166689000Y-66133667D01*
X166689000Y-65946333D01*
X166725546Y-65762604D01*
X166797234Y-65589534D01*
X166901312Y-65433770D01*
X167033770Y-65301312D01*
X167189534Y-65197234D01*
X167362604Y-65125546D01*
X167546333Y-65089000D01*
X167733667Y-65089000D01*
X167917396Y-65125546D01*
X167917396Y-65125546D01*
G37*
G36*
X155217396Y-63855546D02*
X155390466Y-63927234D01*
X155546230Y-64031312D01*
X155678688Y-64163770D01*
X155782766Y-64319534D01*
X155854454Y-64492604D01*
X155891000Y-64676333D01*
X155891000Y-64863667D01*
X155854454Y-65047396D01*
X155782766Y-65220466D01*
X155678688Y-65376230D01*
X155546230Y-65508688D01*
X155390466Y-65612766D01*
X155217396Y-65684454D01*
X155033667Y-65721000D01*
X154846333Y-65721000D01*
X154662604Y-65684454D01*
X154489534Y-65612766D01*
X154333770Y-65508688D01*
X154201312Y-65376230D01*
X154097234Y-65220466D01*
X154025546Y-65047396D01*
X153989000Y-64863667D01*
X153989000Y-64676333D01*
X154025546Y-64492604D01*
X154097234Y-64319534D01*
X154201312Y-64163770D01*
X154333770Y-64031312D01*
X154489534Y-63927234D01*
X154662604Y-63855546D01*
X154846333Y-63819000D01*
X155033667Y-63819000D01*
X155217396Y-63855546D01*
X155217396Y-63855546D01*
G37*
G36*
X170457396Y-63855546D02*
X170630466Y-63927234D01*
X170786230Y-64031312D01*
X170918688Y-64163770D01*
X171022766Y-64319534D01*
X171094454Y-64492604D01*
X171131000Y-64676333D01*
X171131000Y-64863667D01*
X171094454Y-65047396D01*
X171022766Y-65220466D01*
X170918688Y-65376230D01*
X170786230Y-65508688D01*
X170630466Y-65612766D01*
X170457396Y-65684454D01*
X170273667Y-65721000D01*
X170086333Y-65721000D01*
X169902604Y-65684454D01*
X169729534Y-65612766D01*
X169573770Y-65508688D01*
X169441312Y-65376230D01*
X169337234Y-65220466D01*
X169265546Y-65047396D01*
X169229000Y-64863667D01*
X169229000Y-64676333D01*
X169265546Y-64492604D01*
X169337234Y-64319534D01*
X169441312Y-64163770D01*
X169573770Y-64031312D01*
X169729534Y-63927234D01*
X169902604Y-63855546D01*
X170086333Y-63819000D01*
X170273667Y-63819000D01*
X170457396Y-63855546D01*
X170457396Y-63855546D01*
G37*
G36*
X167917396Y-62585546D02*
X168090466Y-62657234D01*
X168246230Y-62761312D01*
X168378688Y-62893770D01*
X168482766Y-63049534D01*
X168554454Y-63222604D01*
X168591000Y-63406333D01*
X168591000Y-63593667D01*
X168554454Y-63777396D01*
X168482766Y-63950466D01*
X168378688Y-64106230D01*
X168246230Y-64238688D01*
X168090466Y-64342766D01*
X167917396Y-64414454D01*
X167733667Y-64451000D01*
X167546333Y-64451000D01*
X167362604Y-64414454D01*
X167189534Y-64342766D01*
X167033770Y-64238688D01*
X166901312Y-64106230D01*
X166797234Y-63950466D01*
X166725546Y-63777396D01*
X166689000Y-63593667D01*
X166689000Y-63406333D01*
X166725546Y-63222604D01*
X166797234Y-63049534D01*
X166901312Y-62893770D01*
X167033770Y-62761312D01*
X167189534Y-62657234D01*
X167362604Y-62585546D01*
X167546333Y-62549000D01*
X167733667Y-62549000D01*
X167917396Y-62585546D01*
X167917396Y-62585546D01*
G37*
G36*
X155217396Y-61315546D02*
X155390466Y-61387234D01*
X155546230Y-61491312D01*
X155678688Y-61623770D01*
X155782766Y-61779534D01*
X155854454Y-61952604D01*
X155891000Y-62136333D01*
X155891000Y-62323667D01*
X155854454Y-62507396D01*
X155782766Y-62680466D01*
X155678688Y-62836230D01*
X155546230Y-62968688D01*
X155390466Y-63072766D01*
X155217396Y-63144454D01*
X155033667Y-63181000D01*
X154846333Y-63181000D01*
X154662604Y-63144454D01*
X154489534Y-63072766D01*
X154333770Y-62968688D01*
X154201312Y-62836230D01*
X154097234Y-62680466D01*
X154025546Y-62507396D01*
X153989000Y-62323667D01*
X153989000Y-62136333D01*
X154025546Y-61952604D01*
X154097234Y-61779534D01*
X154201312Y-61623770D01*
X154333770Y-61491312D01*
X154489534Y-61387234D01*
X154662604Y-61315546D01*
X154846333Y-61279000D01*
X155033667Y-61279000D01*
X155217396Y-61315546D01*
X155217396Y-61315546D01*
G37*
G36*
X170457396Y-61315546D02*
X170630466Y-61387234D01*
X170786230Y-61491312D01*
X170918688Y-61623770D01*
X171022766Y-61779534D01*
X171094454Y-61952604D01*
X171131000Y-62136333D01*
X171131000Y-62323667D01*
X171094454Y-62507396D01*
X171022766Y-62680466D01*
X170918688Y-62836230D01*
X170786230Y-62968688D01*
X170630466Y-63072766D01*
X170457396Y-63144454D01*
X170273667Y-63181000D01*
X170086333Y-63181000D01*
X169902604Y-63144454D01*
X169729534Y-63072766D01*
X169573770Y-62968688D01*
X169441312Y-62836230D01*
X169337234Y-62680466D01*
X169265546Y-62507396D01*
X169229000Y-62323667D01*
X169229000Y-62136333D01*
X169265546Y-61952604D01*
X169337234Y-61779534D01*
X169441312Y-61623770D01*
X169573770Y-61491312D01*
X169729534Y-61387234D01*
X169902604Y-61315546D01*
X170086333Y-61279000D01*
X170273667Y-61279000D01*
X170457396Y-61315546D01*
X170457396Y-61315546D01*
G37*
G36*
X148744000Y-60808500D02*
X145642000Y-60808500D01*
X145642000Y-59206500D01*
X148744000Y-59206500D01*
X148744000Y-60808500D01*
X148744000Y-60808500D01*
G37*
G36*
X143744000Y-60808500D02*
X140642000Y-60808500D01*
X140642000Y-59206500D01*
X143744000Y-59206500D01*
X143744000Y-60808500D01*
X143744000Y-60808500D01*
G37*
G36*
X155217396Y-58775546D02*
X155390466Y-58847234D01*
X155546230Y-58951312D01*
X155678688Y-59083770D01*
X155782766Y-59239534D01*
X155854454Y-59412604D01*
X155891000Y-59596333D01*
X155891000Y-59783667D01*
X155854454Y-59967396D01*
X155782766Y-60140466D01*
X155678688Y-60296230D01*
X155546230Y-60428688D01*
X155390466Y-60532766D01*
X155217396Y-60604454D01*
X155033667Y-60641000D01*
X154846333Y-60641000D01*
X154662604Y-60604454D01*
X154489534Y-60532766D01*
X154333770Y-60428688D01*
X154201312Y-60296230D01*
X154097234Y-60140466D01*
X154025546Y-59967396D01*
X153989000Y-59783667D01*
X153989000Y-59596333D01*
X154025546Y-59412604D01*
X154097234Y-59239534D01*
X154201312Y-59083770D01*
X154333770Y-58951312D01*
X154489534Y-58847234D01*
X154662604Y-58775546D01*
X154846333Y-58739000D01*
X155033667Y-58739000D01*
X155217396Y-58775546D01*
X155217396Y-58775546D01*
G37*
G36*
X170457396Y-58775546D02*
X170630466Y-58847234D01*
X170786230Y-58951312D01*
X170918688Y-59083770D01*
X171022766Y-59239534D01*
X171094454Y-59412604D01*
X171131000Y-59596333D01*
X171131000Y-59783667D01*
X171094454Y-59967396D01*
X171022766Y-60140466D01*
X170918688Y-60296230D01*
X170786230Y-60428688D01*
X170630466Y-60532766D01*
X170457396Y-60604454D01*
X170273667Y-60641000D01*
X170086333Y-60641000D01*
X169902604Y-60604454D01*
X169729534Y-60532766D01*
X169573770Y-60428688D01*
X169441312Y-60296230D01*
X169337234Y-60140466D01*
X169265546Y-59967396D01*
X169229000Y-59783667D01*
X169229000Y-59596333D01*
X169265546Y-59412604D01*
X169337234Y-59239534D01*
X169441312Y-59083770D01*
X169573770Y-58951312D01*
X169729534Y-58847234D01*
X169902604Y-58775546D01*
X170086333Y-58739000D01*
X170273667Y-58739000D01*
X170457396Y-58775546D01*
X170457396Y-58775546D01*
G37*
G36*
X177164239Y-52691467D02*
X177478282Y-52753934D01*
X178069926Y-52999001D01*
X178359523Y-53192504D01*
X178602395Y-53354786D01*
X179055214Y-53807605D01*
X179055216Y-53807608D01*
X179410999Y-54340074D01*
X179656066Y-54931718D01*
X179681676Y-55060467D01*
X179781000Y-55559803D01*
X179781000Y-56200197D01*
X179718533Y-56514239D01*
X179656066Y-56828282D01*
X179410999Y-57419926D01*
X179186289Y-57756227D01*
X179055214Y-57952395D01*
X178602395Y-58405214D01*
X178602392Y-58405216D01*
X178069926Y-58760999D01*
X177478282Y-59006066D01*
X177164239Y-59068533D01*
X176850197Y-59131000D01*
X176209803Y-59131000D01*
X175895761Y-59068533D01*
X175581718Y-59006066D01*
X174990074Y-58760999D01*
X174457608Y-58405216D01*
X174457605Y-58405214D01*
X174004786Y-57952395D01*
X173873711Y-57756227D01*
X173649001Y-57419926D01*
X173403934Y-56828282D01*
X173341467Y-56514239D01*
X173279000Y-56200197D01*
X173279000Y-55559803D01*
X173378324Y-55060467D01*
X173403934Y-54931718D01*
X173649001Y-54340074D01*
X174004784Y-53807608D01*
X174004786Y-53807605D01*
X174457605Y-53354786D01*
X174700477Y-53192504D01*
X174990074Y-52999001D01*
X175581718Y-52753934D01*
X175895761Y-52691467D01*
X176209803Y-52629000D01*
X176850197Y-52629000D01*
X177164239Y-52691467D01*
X177164239Y-52691467D01*
G37*
G36*
X128904239Y-52691467D02*
X129218282Y-52753934D01*
X129809926Y-52999001D01*
X130099523Y-53192504D01*
X130342395Y-53354786D01*
X130795214Y-53807605D01*
X130795216Y-53807608D01*
X131150999Y-54340074D01*
X131396066Y-54931718D01*
X131421676Y-55060467D01*
X131521000Y-55559803D01*
X131521000Y-56200197D01*
X131458533Y-56514239D01*
X131396066Y-56828282D01*
X131150999Y-57419926D01*
X130926289Y-57756227D01*
X130795214Y-57952395D01*
X130342395Y-58405214D01*
X130342392Y-58405216D01*
X129809926Y-58760999D01*
X129218282Y-59006066D01*
X128904239Y-59068533D01*
X128590197Y-59131000D01*
X127949803Y-59131000D01*
X127635761Y-59068533D01*
X127321718Y-59006066D01*
X126730074Y-58760999D01*
X126197608Y-58405216D01*
X126197605Y-58405214D01*
X125744786Y-57952395D01*
X125613711Y-57756227D01*
X125389001Y-57419926D01*
X125143934Y-56828282D01*
X125081467Y-56514239D01*
X125019000Y-56200197D01*
X125019000Y-55559803D01*
X125118324Y-55060467D01*
X125143934Y-54931718D01*
X125389001Y-54340074D01*
X125744784Y-53807608D01*
X125744786Y-53807605D01*
X126197605Y-53354786D01*
X126440477Y-53192504D01*
X126730074Y-52999001D01*
X127321718Y-52753934D01*
X127635761Y-52691467D01*
X127949803Y-52629000D01*
X128590197Y-52629000D01*
X128904239Y-52691467D01*
X128904239Y-52691467D01*
G37*
G36*
X170457396Y-56235546D02*
X170630466Y-56307234D01*
X170786230Y-56411312D01*
X170918688Y-56543770D01*
X171022766Y-56699534D01*
X171094454Y-56872604D01*
X171131000Y-57056333D01*
X171131000Y-57243667D01*
X171094454Y-57427396D01*
X171022766Y-57600466D01*
X170918688Y-57756230D01*
X170786230Y-57888688D01*
X170630466Y-57992766D01*
X170457396Y-58064454D01*
X170273667Y-58101000D01*
X170086333Y-58101000D01*
X169902604Y-58064454D01*
X169729534Y-57992766D01*
X169573770Y-57888688D01*
X169441312Y-57756230D01*
X169337234Y-57600466D01*
X169265546Y-57427396D01*
X169229000Y-57243667D01*
X169229000Y-57056333D01*
X169265546Y-56872604D01*
X169337234Y-56699534D01*
X169441312Y-56543770D01*
X169573770Y-56411312D01*
X169729534Y-56307234D01*
X169902604Y-56235546D01*
X170086333Y-56199000D01*
X170273667Y-56199000D01*
X170457396Y-56235546D01*
X170457396Y-56235546D01*
G37*
G36*
X155217396Y-56235546D02*
X155390466Y-56307234D01*
X155546230Y-56411312D01*
X155678688Y-56543770D01*
X155782766Y-56699534D01*
X155854454Y-56872604D01*
X155891000Y-57056333D01*
X155891000Y-57243667D01*
X155854454Y-57427396D01*
X155782766Y-57600466D01*
X155678688Y-57756230D01*
X155546230Y-57888688D01*
X155390466Y-57992766D01*
X155217396Y-58064454D01*
X155033667Y-58101000D01*
X154846333Y-58101000D01*
X154662604Y-58064454D01*
X154489534Y-57992766D01*
X154333770Y-57888688D01*
X154201312Y-57756230D01*
X154097234Y-57600466D01*
X154025546Y-57427396D01*
X153989000Y-57243667D01*
X153989000Y-57056333D01*
X154025546Y-56872604D01*
X154097234Y-56699534D01*
X154201312Y-56543770D01*
X154333770Y-56411312D01*
X154489534Y-56307234D01*
X154662604Y-56235546D01*
X154846333Y-56199000D01*
X155033667Y-56199000D01*
X155217396Y-56235546D01*
X155217396Y-56235546D01*
G37*
G36*
X148100025Y-54218090D02*
X148251012Y-54263892D01*
X148390165Y-54338270D01*
X148512133Y-54438367D01*
X148612230Y-54560335D01*
X148686608Y-54699488D01*
X148732410Y-54850475D01*
X148747875Y-55007500D01*
X148732410Y-55164525D01*
X148686608Y-55315512D01*
X148612230Y-55454665D01*
X148512133Y-55576633D01*
X148390165Y-55676730D01*
X148251012Y-55751108D01*
X148100025Y-55796910D01*
X147982346Y-55808500D01*
X146403654Y-55808500D01*
X146285975Y-55796910D01*
X146134988Y-55751108D01*
X145995835Y-55676730D01*
X145873867Y-55576633D01*
X145773770Y-55454665D01*
X145699392Y-55315512D01*
X145653590Y-55164525D01*
X145638125Y-55007500D01*
X145653590Y-54850475D01*
X145699392Y-54699488D01*
X145773770Y-54560335D01*
X145873867Y-54438367D01*
X145995835Y-54338270D01*
X146134988Y-54263892D01*
X146285975Y-54218090D01*
X146403654Y-54206500D01*
X147982346Y-54206500D01*
X148100025Y-54218090D01*
X148100025Y-54218090D01*
G37*
G36*
X143100025Y-54218090D02*
X143251012Y-54263892D01*
X143390165Y-54338270D01*
X143512133Y-54438367D01*
X143612230Y-54560335D01*
X143686608Y-54699488D01*
X143732410Y-54850475D01*
X143747875Y-55007500D01*
X143732410Y-55164525D01*
X143686608Y-55315512D01*
X143612230Y-55454665D01*
X143512133Y-55576633D01*
X143390165Y-55676730D01*
X143251012Y-55751108D01*
X143100025Y-55796910D01*
X142982346Y-55808500D01*
X141403654Y-55808500D01*
X141285975Y-55796910D01*
X141134988Y-55751108D01*
X140995835Y-55676730D01*
X140873867Y-55576633D01*
X140773770Y-55454665D01*
X140699392Y-55315512D01*
X140653590Y-55164525D01*
X140638125Y-55007500D01*
X140653590Y-54850475D01*
X140699392Y-54699488D01*
X140773770Y-54560335D01*
X140873867Y-54438367D01*
X140995835Y-54338270D01*
X141134988Y-54263892D01*
X141285975Y-54218090D01*
X141403654Y-54206500D01*
X142982346Y-54206500D01*
X143100025Y-54218090D01*
X143100025Y-54218090D01*
G37*
G36*
X170457396Y-53695546D02*
X170630466Y-53767234D01*
X170786230Y-53871312D01*
X170918688Y-54003770D01*
X171022766Y-54159534D01*
X171094454Y-54332604D01*
X171131000Y-54516333D01*
X171131000Y-54703667D01*
X171094454Y-54887396D01*
X171022766Y-55060466D01*
X170918688Y-55216230D01*
X170786230Y-55348688D01*
X170630466Y-55452766D01*
X170457396Y-55524454D01*
X170273667Y-55561000D01*
X170086333Y-55561000D01*
X169902604Y-55524454D01*
X169729534Y-55452766D01*
X169573770Y-55348688D01*
X169441312Y-55216230D01*
X169337234Y-55060466D01*
X169265546Y-54887396D01*
X169229000Y-54703667D01*
X169229000Y-54516333D01*
X169265546Y-54332604D01*
X169337234Y-54159534D01*
X169441312Y-54003770D01*
X169573770Y-53871312D01*
X169729534Y-53767234D01*
X169902604Y-53695546D01*
X170086333Y-53659000D01*
X170273667Y-53659000D01*
X170457396Y-53695546D01*
X170457396Y-53695546D01*
G37*
G36*
X155217396Y-53695546D02*
X155390466Y-53767234D01*
X155546230Y-53871312D01*
X155678688Y-54003770D01*
X155782766Y-54159534D01*
X155854454Y-54332604D01*
X155891000Y-54516333D01*
X155891000Y-54703667D01*
X155854454Y-54887396D01*
X155782766Y-55060466D01*
X155678688Y-55216230D01*
X155546230Y-55348688D01*
X155390466Y-55452766D01*
X155217396Y-55524454D01*
X155033667Y-55561000D01*
X154846333Y-55561000D01*
X154662604Y-55524454D01*
X154489534Y-55452766D01*
X154333770Y-55348688D01*
X154201312Y-55216230D01*
X154097234Y-55060466D01*
X154025546Y-54887396D01*
X153989000Y-54703667D01*
X153989000Y-54516333D01*
X154025546Y-54332604D01*
X154097234Y-54159534D01*
X154201312Y-54003770D01*
X154333770Y-53871312D01*
X154489534Y-53767234D01*
X154662604Y-53695546D01*
X154846333Y-53659000D01*
X155033667Y-53659000D01*
X155217396Y-53695546D01*
X155217396Y-53695546D01*
G37*
M02*
