%FSLAX45Y45*%
G04 Gerber Fmt 4.5, Leading zero omitted, Abs format (unit mm)*
G04 Created by KiCad (PCBNEW (5.0.2)-1) date 25.02.2020 13:05:04*
%MOMM*%
%LPD*%
G01*
G04 APERTURE LIST*
%ADD10C,0.150000*%
%ADD11C,0.200000*%
%ADD12C,0.300000*%
G04 APERTURE END LIST*
D10*
X17272000Y-5080000D02*
X17907000Y-5080000D01*
X17145000Y-5207000D02*
G75*
G02X17272000Y-5080000I127000J0D01*
G01*
X15240000Y-5080000D02*
G75*
G02X15367000Y-5207000I0J-127000D01*
G01*
X15494000Y-5334000D02*
G75*
G02X15367000Y-5207000I0J127000D01*
G01*
X17145000Y-5207000D02*
G75*
G02X17018000Y-5334000I-127000J0D01*
G01*
X15494000Y-5334000D02*
X17018000Y-5334000D01*
X18034000Y-10287000D02*
G75*
G02X17907000Y-10414000I-127000J0D01*
G01*
X12573000Y-10414000D02*
G75*
G02X12446000Y-10287000I0J127000D01*
G01*
X12446000Y-5207000D02*
G75*
G02X12573000Y-5080000I127000J0D01*
G01*
X17907000Y-5080000D02*
G75*
G02X18034000Y-5207000I0J-127000D01*
G01*
X15240000Y-5080000D02*
X12573000Y-5080000D01*
X18034000Y-10287000D02*
X18034000Y-5207000D01*
X12573000Y-10414000D02*
X17907000Y-10414000D01*
X12446000Y-5207000D02*
X12446000Y-10287000D01*
D11*
D12*
X12724928Y-10887214D02*
X12724928Y-10587214D01*
X12796357Y-10587214D01*
X12839214Y-10601500D01*
X12867786Y-10630072D01*
X12882071Y-10658643D01*
X12896357Y-10715786D01*
X12896357Y-10758643D01*
X12882071Y-10815786D01*
X12867786Y-10844357D01*
X12839214Y-10872929D01*
X12796357Y-10887214D01*
X12724928Y-10887214D01*
X13024928Y-10887214D02*
X13024928Y-10687214D01*
X13024928Y-10744357D02*
X13039214Y-10715786D01*
X13053500Y-10701500D01*
X13082071Y-10687214D01*
X13110643Y-10687214D01*
X13210643Y-10887214D02*
X13210643Y-10687214D01*
X13210643Y-10587214D02*
X13196357Y-10601500D01*
X13210643Y-10615786D01*
X13224928Y-10601500D01*
X13210643Y-10587214D01*
X13210643Y-10615786D01*
X13396357Y-10887214D02*
X13367786Y-10872929D01*
X13353500Y-10844357D01*
X13353500Y-10587214D01*
X13553500Y-10887214D02*
X13524928Y-10872929D01*
X13510643Y-10844357D01*
X13510643Y-10587214D01*
X13896357Y-10887214D02*
X13896357Y-10587214D01*
X13996357Y-10801500D01*
X14096357Y-10587214D01*
X14096357Y-10887214D01*
X14367786Y-10887214D02*
X14367786Y-10730072D01*
X14353500Y-10701500D01*
X14324928Y-10687214D01*
X14267786Y-10687214D01*
X14239214Y-10701500D01*
X14367786Y-10872929D02*
X14339214Y-10887214D01*
X14267786Y-10887214D01*
X14239214Y-10872929D01*
X14224928Y-10844357D01*
X14224928Y-10815786D01*
X14239214Y-10787214D01*
X14267786Y-10772929D01*
X14339214Y-10772929D01*
X14367786Y-10758643D01*
X14510643Y-10687214D02*
X14510643Y-10987214D01*
X14510643Y-10701500D02*
X14539214Y-10687214D01*
X14596357Y-10687214D01*
X14624928Y-10701500D01*
X14639214Y-10715786D01*
X14653500Y-10744357D01*
X14653500Y-10830072D01*
X14639214Y-10858643D01*
X14624928Y-10872929D01*
X14596357Y-10887214D01*
X14539214Y-10887214D01*
X14510643Y-10872929D01*
X14782071Y-10858643D02*
X14796357Y-10872929D01*
X14782071Y-10887214D01*
X14767786Y-10872929D01*
X14782071Y-10858643D01*
X14782071Y-10887214D01*
X14782071Y-10701500D02*
X14796357Y-10715786D01*
X14782071Y-10730072D01*
X14767786Y-10715786D01*
X14782071Y-10701500D01*
X14782071Y-10730072D01*
M02*
